<mxfile host="app.diagrams.net" modified="2023-09-18T00:00:56.757Z" agent="Mozilla/5.0 (Macintosh; Intel Mac OS X 10_15_7) AppleWebKit/537.36 (KHTML, like Gecko) Chrome/116.0.0.0 Safari/537.36" etag="gwMysiX09oPOiw9AePvJ" version="21.7.5" type="github">
  <diagram name="Page-1" id="wxJfLSaoJ1N9_RzkQ5oH">
    <mxGraphModel dx="2846" dy="1835" grid="1" gridSize="10" guides="1" tooltips="1" connect="1" arrows="1" fold="1" page="1" pageScale="1" pageWidth="850" pageHeight="1100" math="0" shadow="0">
      <root>
        <mxCell id="0" />
        <mxCell id="1" parent="0" />
        <mxCell id="nHozH7aZE5zu8DyxtDVJ-3" value="" style="rounded=0;whiteSpace=wrap;html=1;" parent="1" vertex="1">
          <mxGeometry x="40" y="80" width="1650" height="920" as="geometry" />
        </mxCell>
        <mxCell id="nHozH7aZE5zu8DyxtDVJ-1" value="Benchmark&lt;br&gt;&lt;font color=&quot;#b0b0b0&quot;&gt;Generative AI&lt;/font&gt;" style="text;html=1;strokeColor=none;fillColor=none;align=left;verticalAlign=middle;whiteSpace=wrap;rounded=0;fontSize=22;fontStyle=1;fontFamily=Tahoma;" parent="1" vertex="1">
          <mxGeometry x="60" y="80" width="237.5" height="100" as="geometry" />
        </mxCell>
        <mxCell id="nHozH7aZE5zu8DyxtDVJ-40" value="" style="shape=table;startSize=0;container=1;collapsible=0;childLayout=tableLayout;strokeColor=#B0B0B0;dashed=1;" parent="1" vertex="1">
          <mxGeometry x="40" y="170" width="1650" height="40" as="geometry" />
        </mxCell>
        <mxCell id="nHozH7aZE5zu8DyxtDVJ-41" value="" style="shape=tableRow;horizontal=0;startSize=0;swimlaneHead=0;swimlaneBody=0;strokeColor=inherit;top=0;left=0;bottom=0;right=0;collapsible=0;dropTarget=0;fillColor=none;points=[[0,0.5],[1,0.5]];portConstraint=eastwest;" parent="nHozH7aZE5zu8DyxtDVJ-40" vertex="1">
          <mxGeometry width="1650" height="40" as="geometry" />
        </mxCell>
        <mxCell id="nHozH7aZE5zu8DyxtDVJ-42" value="&lt;font style=&quot;font-size: 16px;&quot; face=&quot;Tahoma&quot;&gt;&lt;b&gt;Soluções&lt;/b&gt;&lt;/font&gt;" style="shape=partialRectangle;html=1;whiteSpace=wrap;connectable=0;strokeColor=inherit;overflow=hidden;fillColor=none;top=0;left=0;bottom=0;right=0;pointerEvents=1;" parent="nHozH7aZE5zu8DyxtDVJ-41" vertex="1">
          <mxGeometry width="270" height="40" as="geometry">
            <mxRectangle width="270" height="40" as="alternateBounds" />
          </mxGeometry>
        </mxCell>
        <mxCell id="nHozH7aZE5zu8DyxtDVJ-43" value="" style="shape=partialRectangle;html=1;whiteSpace=wrap;connectable=0;strokeColor=inherit;overflow=hidden;fillColor=none;top=0;left=0;bottom=0;right=0;pointerEvents=1;" parent="nHozH7aZE5zu8DyxtDVJ-41" vertex="1">
          <mxGeometry x="270" width="555" height="40" as="geometry">
            <mxRectangle width="555" height="40" as="alternateBounds" />
          </mxGeometry>
        </mxCell>
        <mxCell id="nHozH7aZE5zu8DyxtDVJ-44" value="" style="shape=partialRectangle;html=1;whiteSpace=wrap;connectable=0;strokeColor=inherit;overflow=hidden;fillColor=none;top=0;left=0;bottom=0;right=0;pointerEvents=1;" parent="nHozH7aZE5zu8DyxtDVJ-41" vertex="1">
          <mxGeometry x="825" width="545" height="40" as="geometry">
            <mxRectangle width="545" height="40" as="alternateBounds" />
          </mxGeometry>
        </mxCell>
        <mxCell id="nHozH7aZE5zu8DyxtDVJ-61" style="shape=partialRectangle;html=1;whiteSpace=wrap;connectable=0;strokeColor=inherit;overflow=hidden;fillColor=none;top=0;left=0;bottom=0;right=0;pointerEvents=1;" parent="nHozH7aZE5zu8DyxtDVJ-41" vertex="1">
          <mxGeometry x="1370" width="280" height="40" as="geometry">
            <mxRectangle width="280" height="40" as="alternateBounds" />
          </mxGeometry>
        </mxCell>
        <mxCell id="nHozH7aZE5zu8DyxtDVJ-6" value="" style="endArrow=none;html=1;rounded=0;exitX=0;exitY=0.25;exitDx=0;exitDy=0;entryX=0.999;entryY=0.025;entryDx=0;entryDy=0;entryPerimeter=0;" parent="1" target="nHozH7aZE5zu8DyxtDVJ-41" edge="1">
          <mxGeometry width="50" height="50" relative="1" as="geometry">
            <mxPoint x="40" y="170" as="sourcePoint" />
            <mxPoint x="1320" y="170" as="targetPoint" />
          </mxGeometry>
        </mxCell>
        <mxCell id="nHozH7aZE5zu8DyxtDVJ-68" value="LangSmith" style="text;html=1;strokeColor=none;fillColor=none;align=center;verticalAlign=middle;whiteSpace=wrap;rounded=0;fontStyle=1" parent="1" vertex="1">
          <mxGeometry x="1130" y="170" width="80" height="40" as="geometry" />
        </mxCell>
        <mxCell id="nHozH7aZE5zu8DyxtDVJ-69" value="" style="shape=image;verticalLabelPosition=bottom;labelBackgroundColor=default;verticalAlign=top;aspect=fixed;imageAspect=0;image=data:image/png,iVBORw0KGgoAAAANSUhEUgAAAVoAAAC6CAYAAADvYoVAAAAAAXNSR0IArs4c6QAAAJZlWElmTU0AKgAAAAgABAEaAAUAAAABAAAAPgEbAAUAAAABAAAARgEoAAMAAAABAAIAAIdpAAQAAAABAAAATgAAAAAAAACQAAAAAQAAAJAAAAABAASShgAHAAAAEgAAAISgAQADAAAAAQABAACgAgAEAAAAAQAAAVqgAwAEAAAAAQAAALoAAAAAQVNDSUkAAABTY3JlZW5zaG90zd1FnAAAAAlwSFlzAAAWJQAAFiUBSVIk8AAAAdZpVFh0WE1MOmNvbS5hZG9iZS54bXAAAAAAADx4OnhtcG1ldGEgeG1sbnM6eD0iYWRvYmU6bnM6bWV0YS8iIHg6eG1wdGs9IlhNUCBDb3JlIDYuMC4wIj4KICAgPHJkZjpSREYgeG1sbnM6cmRmPSJodHRwOi8vd3d3LnczLm9yZy8xOTk5LzAyLzIyLXJkZi1zeW50YXgtbnMjIj4KICAgICAgPHJkZjpEZXNjcmlwdGlvbiByZGY6YWJvdXQ9IiIKICAgICAgICAgICAgeG1sbnM6ZXhpZj0iaHR0cDovL25zLmFkb2JlLmNvbS9leGlmLzEuMC8iPgogICAgICAgICA8ZXhpZjpQaXhlbFlEaW1lbnNpb24+MTg2PC9leGlmOlBpeGVsWURpbWVuc2lvbj4KICAgICAgICAgPGV4aWY6UGl4ZWxYRGltZW5zaW9uPjM0NjwvZXhpZjpQaXhlbFhEaW1lbnNpb24+CiAgICAgICAgIDxleGlmOlVzZXJDb21tZW50PlNjcmVlbnNob3Q8L2V4aWY6VXNlckNvbW1lbnQ+CiAgICAgIDwvcmRmOkRlc2NyaXB0aW9uPgogICA8L3JkZjpSREY+CjwveDp4bXBtZXRhPgpZSol1AAAAHGlET1QAAAACAAAAAAAAAF0AAAAoAAAAXQAAAF0AAGHCKba8rwAAQABJREFUeAHsvQeAHGd9/v+9su3KXq869WbLTa6Y4u4YQjFJ6IT8E/70/H4hgYSQkBAMSSABx0AIoScECIRigws2GBtblmXLlm1Vq7frvWy7rbf3+zzv7MoyMcZFJ/mkHWlvdmZnZ2bf+c4zz/t8y1vW1NQ+a6Wp1AKlFii1QKkF5qwFykpAO2dtW9pxqQVKLVBqAdcCJaAtGUKpBUotUGqBOW6BEtDOcQOXdl9qgVILlFqgBLQlGyi1QKkFSi0wxy1QAto5buDS7kstUGqBUguUgLZkA6UWKLVAqQXmuAVKQDvHDVzafakFSi1QaoES0JZsoNQCpRYotcAct0AJaOe4gUu7L7VAqQVKLVAC2pINlFrgBLTA7GwxIXPWyoz3ZeXuLNx7t2bWvE3KvPVl3vwEnOoL8pCL8jPWU17xgjy3pzqpEtA+VauU1pVa4Bi2QD6fBzTzVgGW+vwBC4RCVunzmz8QZF7pzSt9HBEwLS9zMDszk7dcNmu5TNrS6YzlcxnmacukkpZJZ8FltiuA8zE81ee5q1krL+dH5jnvfLn3/nnu8WT5egloT5YrWfodL6gWmJnJgZl5Czc0WWvnQqtraLVQbZ0FANfyikrLw8hygOcMr1wma/nZGROFdSwW9ioMFZCWl/usorKS5XKbBbBz2ZylU9M2nYhbbGLUpkYHbToeB6DZ5gSxXh3W7/NZZUXefL4Ka+5cbGWVVbZv26PuvF5QF+YEncwpD7Qy6JYGnzXWV1hDuNLCvGqrKsxXifXQo8vlzRLJnEVjORsdn7HxSNYmpnLcKCfoipUO+4JuAQFnuKHBFq843doWLrVQddhmshmbjkYsEY9YNp10ICuwrYTdVgZDgG+1+ZhXwHIrWF9WVuEYcD6fA4x5ZZJuHzO5LL9drLHCKiv9gJgHvmlY7sRwv430HbYEx8k7VWLupQYPYCst4C/jfADYBUtsyRkX2+oLfsvCzQtsw81fs3U3f4cznvtzeUEbBSd3SgKtz1dm7c0+O3NllZ2xusaWdwSsJeyz+o4qCzX4LUdXTUgaCGH4PowZi0oDtqP9CRscTdmBwyk71Ju0/d1p6x1IWyQ+4zGRF/rVLp3fnLSA9NZyuvJ1DfW2fM251rpwmWWT0zY1Nmip6YT5YLE1MNqG1i6ra+m0cFO7VdfUW6Cqxn0m0KyEtZbz1PckAT3kYbf6hx3OALZZwDqdnrZUPGaxqTGLT41YLDJu6emY5WdmOL7HaNPTcRvs3m39h/dbdCqiW/yY/2b91sqKMgsGK2CyfmtfvMpOu/AqO+38y6wNNit5JMUzIQ37/tk3/9Huufm7x/wc5tsOTymgDQbLbVVXwK6+uN7OXVVli7rQysQOUmUWAGj9HUHse8by6bwFm4Pmq65kGXrAayY3AyvB2JNZdLIZmMmMTU6mbf+hlN3/SMw2bYvZwIgYR2k6lVpA5uGHXHYuWGhdK8+2HKCXBRBr65ttwbIzrGPpGdbUuciqquvoJfkARMAUSaEMzRYUBQaZq3ukdQVQlEPsCRkAoBTuuk8FmuWWB5BnZ8s4Vt5SsNno1KhFkRGikwBvMmGVszmbSUXs5u993SIObI/NFVHvz1dZDriaVVVVAbCrbc1Fv2VnX3yNtbS0cGY5TpRjG06qimqbySTsm5/5oD10373H5gTm8V5OCaBVF+fsBUF73RlhO2thyFpb0MkC5VYB8PpqfRZaEuR9hc0k0NWQDPxNfvPBbGUvWI0D26JSoBsrCxCL4U5HU24ej2Xs4OFpu2djxH6xPmJTEb5Umk76FpCDq6xsxkKBClu4/HRbfe4ltvyMC2zJaWthrW1osT6bncGRBRvNz2R5z4OYB/ksYCzo1EO8TN18Gaj+ay5AFRgDW2K0+kxrBbTleNMq2acPPVTbspn7fpb9CXSzOM6mEzGLjI/ZxNBhu+m/vmDdBw/x7ec36VjBYCXOvBkAttpWnv0SW3vZtbbijPOsNhS0mXSU35jmZCr4z8MkELKagM9u/No/2U3f/y7nzome4tMpAbTXLKu2ty6usUUg50x0xirbfBZoRRZAjw22BSy0usoqQxgJkkJgESAcwjA8ocuZh8BVN4Amvc2zQl7hzHTOkvGsxaMycGm4KXvgkah958ZR2G4JbF2DnZR/ZiGhWXTTtLW0d9ilr3yDveSa37VFq1aZP1hHVEDGsjDNnPRYNNs82uos9iJgFjK6mQCULrjsykUPsOzeO5DVOpb5Lz1WwCqfwSz7ikfGbLDnkA31HrKB/j6LwGKz6RTMNoVNArhEKiRTRCdkMjY6PGDJ6eTzuAKzREVU8CARi620ruVn2vlX/q6tfcnL8WMELBsfs0wyzu8BSpE++EHu4VJVFbQt626xf//cDZbG0VeaaJqTvfD3ObDTD6+ss1bkgRwgWy4W28TTuRZnBEDrR0qof2k9LJYncU2FlVfTNXPASuPAaGX++uPmvBXo6mOxDd0wObxlCRhtNJq1KQA3EsnYugen7Me3jNvwCF2p0nRStYDAMoM04A8G7NJrXmWv/YN325oLLsIafIBg3FKJhAMfOcCOgCtG48XNypCkw3qMVWxVk5ZlYQJXrSlz4IqkBYPNJmM20nvAdm97xLY9tskGBwdsanLKAWoWUJWtOlDWjo7hpFPyQzz8/grrXLjcLvyt19v5l77G6urDlp4atHRs0j04dK56ubAudOJgIGCHtz9gX/7XG2xsfPIYntH83tVJDbT16El/vThs54f9PO156mK40pkqYKyV9YTNVPO0Xkk350W1FqFLNwYjVVeuuTVIKA7A6+dJjqRQgcG577r7xCloXHXdPJLXZmEPyAhICZMA7eRE2sYnM/botqjd9OMJGx4qPdHn9y3yxNkrJGs6EbElK1bZO/7P++1Vb32bGY6u4aGEJSJRQDGBLpmiGy0A5CmMfTh5wIGrdChN6l47OOW9wFXrsEu9kZMJZuhnHhntt73bH7VHHlxn27ZstkRiWgisjed00mlUwJ5RQ4ieqLdzXvIKu+oN77b2zoWWnBi05OQQ9xI2rd/EtoqQcA8IoiV8iNWRgQP2tX/7rB04cHBOz3O+7fykBtrXNVfZOxfVWBkstpLujzNTnAi+OpxcAG+F2OuZQbt5z6jdef+wHe6Pme6Bl57baq9/9UJbtbrWSQpVtQHzIS1UYoBlRCE4zzD74T83khgwDhC6dQoDm4LdDgPYE4SB7dodt9tumbKew+hXpWn+tgCAOYNUME03+cprXmH/+MlP2eIzT7fDI9N0z6eIY43hfAJgkQg8LZYvOGPDQByYsuBYK7bDv1mA1P1zSMUmGJIAll66jfUftA133W5bH91k3T3dYPXcg2vxwhRZbBB99ewXXWlXv+ldtuy0cy0TGbXYSLcLM/MAVvqxQFZI6yUmVFRU2GT/frvpu/9lm7c97n1W3HFpfvJKB2EQ87plYVvTHEAuoGvDI1qGVAar1Ry+YWWnBewnB8fs+u/sgzHk7UUXX0xMY8Ae2LDeLj6rzv7yXatswYIq89fgMOPlhwn76EoV2S3WpL0wg9US85jBexxP52xsKm1jRCRMRHO2Y2fcbvnhpE2Nl2SE+Xq/KaxKZPItf/B2++uP/LXVtLXZnr4pGx/By0+ygGOxRQcXNuCxWNmFDM6bK0TwCHPFZmQ3+q9QqQq63mm0180P3GP333e3Y4Nyfh3PyQNZWGw4bL/9lvfYFb/7Ngv6qwDPg5aYGOI34XMoslf3W3R2+gGcP+sTEwN25y032n33b2Db43nm8+NYJy2jbYZ5fvK0emsEHGtCGANJCHlYQ5mcCurFdfms15+1v/vKbttxMGYtjdX2tx/9BGE6C+x9732fTUxM2gf+YLm96VUL2R6vaxX6Uw3B2cydnIAsIXvjVsLWZglsIRKBmyxFl3ESJ9k4MsLoVMYmIznb+EDU7r0jSoSC4L00zZcWkB6bJE5VDq8//bMP2rve/U6LlPtt94EBPPsTLlY2h9NpFklBsOhCsI7gowC2sOC62XrPy63z3osF4jGzgzsesbtvv9ke372bntHxtxERhcqKWVu26jR7w3v+3C647BU2OTRsU4CsQtX0uXpu3s9BRuONw1Lm5fyGDOFl9/7sFrvr3nX4LEpO4Key75MWaOvCVfayZZ1WC7Auq0jZqmDKmpAQZuRgaEJ3XVxpG/dF7Ibv0SXKc1MAlGeceZY1NDbZhvvW4diatmuv6LC/ePsKd8P40GsDxNUKbKvryegJyMuq//qjDt6spUm7TMJsonQhJxzYZm1sImtD42m7/66IbX1g2jnQnupClNa9sFpAemycTK7Vp6+xf7nhBrvsyivs4MS0dfcOW3RsHIfXtCcVsJ0m2UEZoOP0SgERtM4D2iK4sg3r5byS40hgNT0+ZA/e+3O7+647LZZInZAG0MPEXzFjay++xN7x4euILFhjvbt2W3xsAHnN02L1CHGTGHqRrfKzlCQxMx21zRvuslvvuNMS0+jIpekpW+CkBNqGxnpbsLDDQnV1FiQ0Jhj0W202ai8NDFhX04yl6mGm4QrbsGXCvvSTAatvaMShlbZ4LOZSHitIJ4zHc/aW3+myj/7f1ehu6LlIDwJaXzUSAqy2nG2cMwzDywPUYgS5PNEHSV7TGYtQ+GMygYMN+WAYoB0aTtu9N0etb19Jr31KS3yBrBQYplIJ8CRvr3/TW+yjSAUti5fazu4hGxwYsVQUp5dCtxSyRQ9G27sYV8DTRRNIfxUgFSfs4yhscp/lCfvas2Wjrbv7F7ZHTqOjty9+73jMkQPKqU9w1St/z971V39HllrYenbtslRsFO6g31U4c6cFsFwgFvxkd85ZIg92P/aQ3fKznxNtoyy00vTrWuCkA9r6xrAt6OpwWpNYxeTElDW3tVjXshXWlt9vF7b3WpCIgmoiEbqHp+0j1++2fHnYwrUh4g8Vi0i6Y2YGw4nZP3/iLHv7W5daMkPXCgZbTk639FnxF6m8ijjIzcBSFNGAUebQaSNUWIqmANrprEWIrZ3kNTIJ6CIhHNhDnO2tEdInS92rX2eQJ3K97CWVTlhNba297/++3/7kj99nZdQq2LK328aHR9FjY4Bs2jnGFDsqGBLQupeAVhJBAXDBW4BYcM1cQAVzrGDbdCxqD6+70+5bf5+NT0Xdd0/EbxZjn53N2rkXXGgf/fxXLVDTZAe377BMdNw7X/cDilDrRBH9EP1gD2Rhsod3PGZ33HmX9Q8NnYifMK+OedIAra5/XX2dtXe1WIgCHZWEmyiIu7+339raW+2ll19lNWVDdvmq3daxuArDgumi337pP/bb57540Gpq6rjBQjCVWRsfnbQrrwjbv372AmttZR2MVU4LAawreaf+HzdO4f5x6bn57IxlCEqPET8p6SBCyFc0CWADtGMUoZkkhldgu+uRuG35Bfnp7LM0vXBaQNc1SVRB1+JF9ulPX2+v/O2X2yCZf3sO9dnEyCjJKQliV5V8QIo21949ayUXiI1yKb3U2gLQCnAxSAExT2G29+wlOtRnj224x+594EFL4jQ9kVOWQjVLVyyzj3zqBlty5kW2d+s2S0fHCiyd03YnX/iZBYB1Dwx+1wyMv3/Pdrvznnts/4FDc/aw0CkU8P5ENtUxOfZJA7S1dTU4stotFApQAQnHlxgH2mmWzJSOjg5X7KI5OGhvvGbUWhZWuSsYRHfNkE77b1/ZY7feNmiTUyrzVmZXX9Fkf/rBM2zZ8jC+ioJzgquum9HtV3NYrCaFiel9PosjjPjJNBwmDrOdxEkyIVYL2E7F8rwAXV5jIxl74KaITfSX4muPiQUfg504kAU8XnbppfaJv/+EnXfuebYXLfZw7yC9jykKtyRcUZc8D1L3dOXud1efP3IGafKSDgBYxWprBdvoHwaDfWRt9NAB2/rwfXage78dHhBrPEpe0PbHcZLs4aeH9pd/d529+i3vsM2PbnearKu/oJPndxV/n+d/8JbFa/PECQ/t22H3rLvPduzZ67XHHJy7QL2Oe9pPzNvo8BhObFLi5/F0UgBtVXXIOrrarLa2hmBrUhbJt5YxiUkEgkEnI5SVB+zcFeP2+tfkcGZR24AunmJmBax+AHdojJAstNQQ+uuyZcTPcoFnAFkV73DdLOEt26s7OKOXwDXDTaQyRZIPYC4ZXjPE6yYA2gmAdiSesklia2OEjkX1AnCnp/O2b2vStt2pbmgBxOexAc33U9cNXV0TtHe+5332x+99D3HSfgDkkI3CYpXlpfoBWapQyZZ4bjspQHbgTZ5soO60kwz0gZMQtIGgioc9ztFuEg8e2/SAVdaGrXwmZY9u3gajxZzUDTvOk35vOhW333nD6+1v//nztv/wiA0e2MOpimG7R4MHsu68HNwWzhAmi7Y80XPAfnHXXbadCIm5m2atHpAN1wZdcZ625efaQ3fdSghmYu4OOcd7nvdAK2Pt6Gq1xuYGnn6Um1NeOHnZ8ohKIfMhIVShuUncv+T0PrvssjKAtpoamirQgaHz/UrAViXfygkJo5yXzWYBUoEodibDFOOR9elmYhGpgNJ1AG2OKl65OByWbXWsmXLiaQlGiFFoZIrSduPTxNImqIWQnPVeiVmAdsZi0bxtvStqvdtOjKd5jm1qXu3eRymqD334L+xtv/9W5J0YSQKD1A+IkKOfRipQcW6qUal3xK+SLchetKC42CJQurmW2cbZiNtGwEwPpueg3X/3HVZG0e9VZ6616bFee3D9OusfjrGtx4aPZ4PJB1EbDtnnvvw1W3zGi23rpk2QhZj3+xzQ6pfqt/Jb3Fr3cyEYRGEM99pjGx+0uzY86Eo3zsV5Kwqirq4a0lQFGeKevfYddv4r/si2b/ip3fy1T9nE+PhcHHbO9znvgTaIVNC1uJOqQhoehGIx5KD7SQUU6PpJPpCM4PMFXJGNC7sO2EsvmLVwRy3MVesFrtJfYbfq6gG85QCt2G4ZoCljywOq6jI6ecDJBFrHDZgWGMN0+JyvAspUT4LyTFPhaJzog0kki6lUzuKAcSLFehhMknkS0BWrHRvI2mO3UAx6ouQYm3Mr/zUH0E29YOECe/d73kXh93qhJw9fv3vAZgWyhd6L+h3OFthemqyDXQ+PjkgERwNvAaVsmrqxe2Cyk4D2KsLEwrX1AMWw7XxkvW3aus+yDPdyvKcUozO86jWvso/f8G/2+N5eJKxujNfrWen5oEnymJ4aWnQPF+YqPj52eLfdfNvthLgNaLNjPulYoSq/NeHQVgH1q3/v/7fLf+ddPLAgMBVVdud3P283/cfn3DU45gef4x3Oa6AVh2horrO2jhZAlkQCwDUA8AZd1XpiXQFeB6LcHClY6rKaw/aKCxIAbQ0sl1KIdPMryPSSfFChBAQBLajpHBsFsiEg9e4puk5EI6RhqBle0mRn+UzWqJoI0iFyhMrEANphdKwJIg+iAO00gKyoBXUVCUhwL4FtGtng0Oak7fwlbMKz8zm+1KXd/2oL6MbuWNhlZ55ztq1eutgWdy7AIVrHBa3EsakoEklE9FQAIumTAmaP5xVQVugrdJJDTJ84pCo8oGGA6maP9e2z9kWdtoDIl+ysz4ZxsB3e+ahtfGiT9Y3Ena25Lx+HP/q9ORIkPvO5z9mFV11rmzc9YjkcgO7BwO8rAm3xVLwHive7y0hBjg8dsC9+9ZsWifKdOZgC6MZNTVQ/42Fw6ctfa699x4etTMV5FIZG6Nnt3/qsffebXy+08xycwBzucl4DrQCxgygDVRTSECA+crQ1JlOIGplisxpeo5z0QEkJs2WM0zQ9aK86Y8iWLKJEYjWMl/oFfsDWxwXWSArKGlP0loswKDzRxWQlFai+gdar4HeaegazgK5L5wWQZ4mhzTLPEf6VLM/bEMHsI1DYGECbBGjTAG06U2aqGJfOah8qRGPUs52x7b+I2uBuELg0Hf8WoAfStWS5rTxtla1ausiWL1rsElby2EqW6JNsAWQlHziWB9xKq5VOz1V34KuTLkoH3g/gM7bJ8lSN0dWu9yets7PRamtqLcE1HyACpbvnsO0mjvbBx/YC4uKNx2eSH6GltdH+439uslimwrr3obPiT/BED86h8OAozFjU7xTDZbQR7qVctM+uv/5fSS0/9lppJUSnuaWedkvaS664xt743r8hZjmCLpwgbj1MVbBKu+Gj77dHHtnizmm+/ZnXQCtZYOESEhOQDeQEc5IBACs5QTU8FeLlrRe7rbTe7n47v73PXnFRkBpwADOZYn5XcMYDWlUtUuFv8LtgfLqpZItIB7wEtAJXhXIRQEvBGb4HWOcB2QSe5SgOhQRP3wnqkU4xEkMEoE0BzBlAFn+KA9osQJvLsQzD5v614QM4R0hkyJbSc4/7vSMiumTVajvzzDPtzNUrbPGiRThfGmyGHO0UTk4NxeLG7GKu4WTEbAVGAh6XrCCJCRqI4uBNwqUCq80kk4RLjdrSFp+11IewsyBSAUBLTPXBoSnr3f2Y3X//RhscV4prcQdz2wRyEJ93wXl2w1e+aXv2ddvUyCAH9MBUp1DAVeYQC/65iQ8E0AHuJ//MFFlyn7fevuFjeqK6r5qbw8hzOe7nZfanH/9X3ptFR/ogQZCmUK2VZ6bsI3/2XhsenTqmxz5eO5vfQAu4Ll3e5cqzuWiDozRahd2oWIdYrT/gp7zdtO3aud8W1GXsT66tQi/Da0V3X9JBJV1/abOqzuUBrcdePVOTU8O7weRy1vaQZGeGZbDhcrLF8jBZAe0wKYiTgGwU7TYJMCdxkqVgvh64CmgBWWE0QItNOaBV/YPtd8atZ2spffF4GX3xOOqlrDrrLLv8ZS+xC849xzoWdJm/utZi9EbipGBPcz011LfYaRFoBUICWbE9DyCxEsDIAZX3B9ugx0KNgAwlFVd2hKw5rN4VdTawx4lY2vYNE99NmNf2TRvsoa37+T4GdRymLJLW69/8Rnvvhz5mO7c/bkmSJ3TK3uSeEoW3GLp+ReE3yv+g82+hXvM3vvple/DhY8kqZx2TVZs1Nzfbuz/0cWvqWG7Dh3a5oX+U1lxVE7bB/Zvt7z923QmpBVFooOc1m9dAq4u/ZEWXY6uVXBAv4sAb6sMV7MCKxGRnYCT9vX3oolkuaou95pwYQ9qgs6LFKdJA+qxjswJe5xwDaHkP7jrJQI4ydu/uBx/AXRbgKQ8bmpFkAF4r0iAO0I5rNFJuzARAq3h0dT8dsDoWy/IRkOX7vFdYpljtWK8cY1MWZ5Td0nT8WkCM9ryLX2KvfPlVduF5a6m52sU19dkQCStRMgOnE0kGV5zmQcloClwoDYJ4BGgBIsdmJSA4ZsvOCpO2yaUZ5oiBEpe2hayrrZrvUlMAIpAkNfvQSNK6hybswLYH7b4NDzO4J0ZwPCZ6XH/8gQ/aVde+yfY+/jg+h6JkBcgeYeM6ES1rhTd5gFtuizqbbd2dt9rX//O/+e1P/N7ids92rv2GqUlSzWgNfqI/3vOXH7PT115C+OMmF7FRwRhrejiFCdu8+yffse9+/ybX5s/2OC+E7ec50MJoVy6iSw9QOqD1pAKBroYAUbpsDpAdHR4hRRZDQYera2mz0Mywvay9xxpq6Aa67wpY2UJAK6IrdgvgClQlLfgBVjFe2ZakgnIkgxz6XhJ9SwAbUy1akDPBjRgTm+WVLThT6K0V0nQ9UM0ButLl1AudIf6Wrzh2e/CxhG37mUY0fSGYxclxDrqRVVlNU47r4R6+hZ+mYV+C1UG79Kpr7NrfZoDBM9dQ8L3dpumJDI5MMqghD744jDaZgp0Swieg5eIUQ/0cGMkgHKEFdLEjGYi63G6YcEBMAyV2ELO9aglyBIZQyQNb2w+Oxe3gaMZ6D+y0jevvsZ37h5wNF05tzmaKsvnIJ/6ecc0utJ59e8BSVR3zmKsO6jH0AsA6oBXP9JYVT94E48ynJ+1jf/1XNjH1fB1is2RjUnSfGHg147s/8Fd23iWvtN2b5aCjLjQgW+HuSdLlyVX4wmc+SXUz2P88neY50HqM1rsgHrA6wAVo9cRNwkbieEhVY7adrLGm5ia6ITVEIMzY4rK9trZtFOtiW90jR4BWLBhwRU5QOUTVoA0xQq5qHeQZqTTHa5b3Ob6TwlBjjBs1gYAf40ZKQV+zGGSGm1VD3MhnIsaqdFsBqsduxWSpIsZyEWwFxikSGh6lDsLQniLLmKcW9QI5bbHPDq75olVrGJ57wqZGhwitorQh7FQ1BxYtW271AMfqNWvs5VdcaqetWGHh5hYy+bI2SCbSFGUy43GGpaG2gaQD6Zu6YI7Rco2PsFn2JdblisHLkJgEyBq7S0DbQBjhmSsYIZZwQYUF+rGzSCxuB8gQ7B4Ytsfuv9MeemwX+/W+O5fNp7G8Pk56cX3LQhvAIaewKUkHwlQ9A1ji8IW/Dl/5U9yAT3zBKusiHO4H//lFu/nHP+GeCTzn0w1QpKmurpZ2Stsb//Bddu3b3kuhna0Wo2pYBczfRf7w8JJGm57osxuuv55KeNHnfLwT/cV5DbTSZRcvlXTggayezhVIBTKOaQA2Ta2DEMMiN7U1u6wxOctCOCUqGHc+m4zYufX7bGk9hWRwfojNSp9V9IGAVrqtnGXOYUZpRFXtmmXXSZAzQ0LCDNur9uw0jFZxknEMJsuNCHHiRiNSAcY6K4B1zLXAXgvvnUbrssm0vvAZ89GetHOMJUoSwvO6L8TUli5bZBdf/TpGM15APOuIJROMhBCZdF7tcEOzrTjrXOtsJgOQqm4rFi20ZUuXWoDQrolY0voHRy0C0ErXT8FoJQMo0F/g7U2SC6jehr25aBT3pJbZCSxhtPonOyH6JIR+f8byFqvhoZ0GsP30jHLYy+GhuO0djKLTrrP7129EahLIze0Urq+x6/7pXyj12WijjD2miODiVDy6h68FHuuA2ANfgbFYe2NLB86/Wfu3T30EnXcn0huO5Wc5KcKgobGWhxgRBpdeaX/ysU9b94FuG+neA+DTs1TvwLVtBY7toG3bcCeywY34OIrt/ywP+ALYfH4DLcy1a0m7izYQw9AFUvnCaRhDhjhWRSNUh2tcGq4PPVfMVo4xf9AHAMJWc8N2fme/tdZ6MoEMoEKOMem0Al29RzaQ08sHsy3DEZZC54ozhLSSE/RKAa7TSAdJ4gy94iEArcBWFstLMoHAVpLAEQbLe082KEgI3GSO7cJ+D2+eti0/Zfjm+WtTJ9is83YOjq2Lr361NS1ZS2p1DFvQSK08HOllaKojsmDJ0oW2dlWrVWUiVoYE1MqoCTxVKWs5bX2UQ3RAy+gJKcAyh+4uj7gHtAXWJ1DVw5kekQsHBHgd+2P/giltmyUeFHO0VQubrLWhypXiVKprObbSzxA4OwfitmPLJlt/z3riref+gtfV19rf/OM/c1+QODE67Fis2kMgqknkVZOcfaDqEx84lNUn9PYgKe1LTrNDB/baf97wN0Ty9NJu1XzyTKdZayH2PUt87JqzzrY/+7tPIbWVu0pgajnV6XXnwfHL0PGqIT0/+PbXbMNDm1n/zI/yTM/meG03r4FWwNqGQK9aB0WgVYB5ki6fj/CtYIg0PsBTeq0kBQeysNpKPlPoV4YQK59v2FYtmrBWqnlV050JAqwVAKukhIpKOAsX2mAlxvtyH91/pdnCWHLEy6a4YTLGDYyc4HLhuWoK9ZFdOuNl7kAXu/VqJnhSgmO5ijwQEGsOGKtnqvXEk9u2X8Rt/0MqEl64A46XNczj40g7VanL81/8Mrvot661zmVnMBpG2Pbv72HkWIZiAfgcK6UXEq6usTPOWGEvPnuBtXJtZwBaaYIZrsNwhMpU/YwuQKpnEqB1tWdVtUtsluuBeEAreWDg2ZxkA9AUW/ScYtI19VAlNAwGq9EJutoabHE7aeCMw5GDxZXnU9Y3OGHbDk/azse32YMbHmC8ubkH2uqaKvsLRhFpbGzl91Fz9ijg0lsnGmC43i8o2LF+jQNaD+R4tNCuNda0+HQ7dPiw3fIfn7R92x6DdAT4zUdz5P9tTCKq4bBAOW+LkW4+/MnPEiPbSHrtvbRvmiYkMoMTKb58JCClo0P21S99mQfT/Ey9LbbCvAZa/YimlgYKd9e63yMDT06neCpqPHrEdFisuiKSGIrOMkUq6L037heB6YClr7GHjJScNaO6h3F2hXhJPmAXfJcLr8JBAK2R+aXkhFmBLkCMLxqgzbqbydkstuiZo4zWs0+9EY/i/naMVnqtx2w9VismK3YrOaGo58YmZ+yx22I2sKtUC4Gm+42TQK2tvdledMnVdvbLrrH2pautjmLu9fRmeqnC9dDDm5GKkrAo1ZKd4fqGbMWKZXbli1baonq/lfN01DVKEIo3MBGzvt5+GO0EWYBxHDMq8l1gs1xE9wB1YMC1Zl7OA9sbWYEHOjbBH33gGLQbrBEDaME+l3TUWZWfxJVE1HLUcj3IeW3eP2L7cEpt2gRQ8dCf6ylAAfz3vP/PbenyVRadnHjS4Zz9ssZFGDgrfuJ8nC59xLKl5+K3qGuwhoVrHPu/47/+2Q5t34hvgoQc2TIPJXEED5/F+ukxElVQVxdyRXpqahvsz6/7pC2jPOOWDestxVA4CsfUOeioIkZq2yAy4P4dm+yb3/4u+37ifJ504vNkYd4DbTXhIa1tjZiBd4FHKEGnkC7VlhWr1VPR1S/gQqqGgS6o04C4qBUK7yILKFkzZBX1EasN+SyM86KOV0iOMNgtX0dCgOWK3Ur+rSSYG8B10gJdR0OvhaIwlwF6V71oMG5RBsdq99J7B7icq+YOZBUGBqsS0GKkBEmg7xnOm7w9TDnFsW7SiUrTr20BSQJLly+xS655ja047xJr6lwEY2u0Buyipc5POFXGfnLHIzbU30uiSZIHcYJr56cY/AJ70fln2AWrGq0OqUi9iUnKWnbDnAboDsdxoGUV2qVi8HQ3PNnAu5i6vgICda+dPcmmBBQ8mT3HmMfs9B3pxbU11Q5oG6ohApEJ6tsO2a6DDCfeP2WHDu63bVt3Ouno1/7IY/SB9OQ3/f4f2kWw/hhZVwJVTfopzkCdweq9p9E+sZplHkZay6PEfa8cwhIkvrWuYyXp5hX22L032+6Nt1JucRD6od2hYav7r1cBOBXHW0nP4d0f/Bu7+KpX2paND1mE7DnHoN1JeO2q4+o7PoqO3vvz2+3n92zw2pv183Wa90ArMG3raHbgmiFGcXhwnBsj556gKn8XwtMapNCMx3C5IdyF9yxKo3dKIkjXjVi+Ko7Wi3SAA6wGRlslZhukhCJgq1clQEu9EfYjCUGhQrBm6bhit8gJLnIHK/RuQuZFi+CN3nsmzdwBrScTyM49gJWkUABahYMVQsBGANlNP4nZJAVoStNTt0BNdZW98R3vtdMuusLqmtutnnTslroqQveIv+R6+XgYrts6ZPesfwSQG7FEbMplaNU3d9riJctIVFhmKzpwkKLjjEwxJljPAE6ZbhxnAC367Ax502KmLklBV5H/TpPlqroQQnpL5TzYKwDvcnnLARIxXHXAZQuKQPDzeVdLjXXUldnk6CDFsrvtQP+EjcWz1nNwr23fsee4AK2GTL/8ymvsNa/9PTIWNagkDP2IfbozPtLIzl4LQKyVsuEj8piW+XECbj+RCOHWJZav7rCevl5GaXjAhg5ssQQFdeT0c1l0gGYlhZ3C9S324itfble/+jXEEG+1kcN7C+dQODYH5fZ0bVfJd6LD3fb9H37fegfGdArzepr3QCsm29xWT9gWQ9EkGHl2eOLIk1pXxmWGidniBFPXSdKBujLqvs/CRIPN3IztSa7wjJMJiiUTAwBtANANALIBAS7dPuRdJyf4A2i7Lt5W++cF6HJvuRvLA1wMR5apqWDI3gLH1L2qFys0z8NiJf85Z5gYLZiqDDIBsDSvUZIZNt4Ys/HeErMttuGROU+t8xgi/p1//U9W29hmYR6sysJqqKJry3XxcxF8yEiT1Jr4yX37bNODD1qcobPTAKdCnJrbOm3hwoV2xukd5PJT0pBwq8H9+xj9tYchXSJEKKRc9ICMhd04UHJp2GJoPKClKar3VI5hVND1UTSLXmUYhT6Xxp7Npii7mbEWQgTbwgYYDVgPwDGBKiT/12jfQXv0UdWnFQ+c2ylHhMzylSvsbW/9IzLgahwIOgTlj7NX/UZeYpha5i3L3g93y7zXuqJpuzcgo3qNQTLqQk0LLR+oo/Yyo4tEp9wIwhrgUSy2iuM1NjbzqrHYwB4b79mHbp7zjsfO3Z51bO2cfRJAadsfvt9+dOvP+Ew8en5P8x5o1fxyhtU3hV3M49jIr8+F9jQ1LqouKN/TxfWHy6xtLdEI1dw4rBRLVVUvgaySFTyg1ZwbV0DLC4KMccmRxlxAK7YroMUejrBbZzDecVw0gk5UVlqY3Fv+OC0LQBXw56EXT+i1aMDKKOP+GzyUsUfRbIf2l8C22H6aCwSufdOb7U+u+zQ3aDnST5nVc82qYLFcliOAoJv3cQbHvOn2jbZ32yYytmJW09hu7YtXUGC6wRYtol5G+bSNd++24V07LNrXw+iuSR6CXk9C+/ZKZ2IjgKgLpheYwmblha8kZLASo6jww4yJ+xSrFWzOALA61vTUuIXKcPZwUlP4EDJc9ORsyO0rMTVsD1PfdXQywW+Q0czdJFdeXWODve41v2OLlzPoKMdziRYc0h3ZHZ+7omicmrPuCYlBBuvdN+4stT0bu7A23vu4QQS4/ppmonXQSegCOtlAGxNtkafUYpLhchLjgy5+9sgV0gH1YndlSkdmnqNOxI9//COGdu9zh5rvf04KoNWFaaQoheJWJ8ef/Wic9Ut81rRajATARMd1QCt9tgC4AUK7BLLcUxQM5+XmBaB1YOsBLUQHsH6CzcrjLAYkScKLfuBEmWS4rr6tog2gsxqnTECrUCHnwCO8IU/4mfTaFOUUkxQLH+whTfeOqB3aIgDQHVCa1I5X/fY19tVvfcvdp+Us09SArPo53qSWUveYmuu2fvs4Q3vfb337twEKQetYusZaOhdbM/GlldP91v3ovTa6c4dFGGwwJbbFdxUuWIlNqCvrx/ElCUoFVioxAh8G4QdgA7A1HxKGgFY6LRaA84aCQgzmOD05ShWvITeWXA5C0NjAtnSjZ+VhlxYFQG1/9EF7fE+3juad9Bz9lbOuBgfh6hWr7KpLLreKunrHykUwNOm8C9zSLblG5Z0DUj4tsk5hoptk6/zjA/1nkr0XdGv5P2g7Aa0kChceJ6ciDghl5bkvCKhBbndUMQ53HkgybNO7f7t9+/s/5v4oHswdYN7+OTmAluZ39QqgldJpn+0ke289i2EzOqTh6kEMsAKyegX0gilJPhDICmzFaCUf4EgtyAnotQJZ3SeEelXAqALIFdWEjFXRh/UTNqaEiCOMRYbJy4V5YUhZis/oJUQQW5InW7KBPpeUoFEZ4uh5wwNp2/zzqG27F2+4ti9N1t7Rajfe9CNbvXKllyyiS1BoF7WQXmKXdA5smKzR+x/ps4fW32uRkV6n6S5avsYWELFQlRskBfom2//wwzZBkkJMAKELyvcqAQS9lFEW4BXk+lRx8asB22oSYqrDdYBtNfIBhgH7zQIoCYHsxJhFCBObIMwrDcg20OtqRN6QcyxISc9y6irM+mttsL/HfvGLewjx4sk6h5M01Zb2FkAvb5ddeDFZcWdZGeevKBz3Q/mtajtBm8diPeDVw0DLyiQrvvdOs7C1vlCA2if24MzZ25/7XPvkani78L7u/haP6K3SIWYTE3b7HT+1zTv2PnHPHPWN+fj2pAHa59v4gVpq215ASbYqbijVOSDSwAEtWq1Gy3Us1jnGAFqSYRzoFnRb6bey1Qo03xDJEA2NIUZ8UHEbwBeAdQ9r7MlxAgwJPyyni/E6G5MxS8/jcweuKjQtEPaA1otMgPlyD0rHm2Bss0fvjjrAnRgsSQlyNr39nX9k/3DddS4LUARI4MrMzRUVlObuzfBisAvrH8vblu39pHs+QLpnPzptuy1XLdrmchvZudFu+eFt1sfwROU4UTM85cTGxOi8a+WumgsH47JaFUDcQKhYS7jWqig2r5rIcsQmiOOORSLIBAlLiAXDmKUfB3kaq8fSSOJAJ7VX21V/dTZgQ/EZ23DPnbZx0+NHuvLP156f6vuyxdPPXuseBFNEPrzqsqusbckSqwBsiyFVruFkl7JPoR4rnJlqFYtivGrfJ9ZpG03eGpEJAaqs2jnPWK0tpHG7TZg50C6At1aLnxTltTKSgbp3b7Ubb7vTFeDho5NiKgHtUZexeTUguULFLAS2T7BZAa0DXVitQLYItAJf5yRDr5VDTFEOjWQAVREeVs5ymeoiYGjFrpksTeYoVqBJJuzMFglBN7P+5cl5z9K1cuNUYYWKRphVbCLbSF6QZjsxlmHY8oRtvHnS+vbgyDvFJ6VpfuYzn7K3vPnNriXwfcFuSYOmfQWyygVI03AaVigaS9n4RM4Ghidt3+b1BMSPwGib7LSFDVY7G7Fb77jXtu3vo9iJn2tTYXG0Wo1TpV6GahwXAakINkGBLU7WasR7H9c1TW2EODpsUtdQo33AZKsJG5T8oG6wRm5ohdmes2ohozosQHoI2YGJWTuwf7/9GA/7+NTcxU7Xkixw7Zv/iNDHJrvzth9aJU7Bq1/yMqvrWkAvDiceLN71umSe+oH6I1t1gFsESM9utYkA07FUWbX3n7WyUz2c9H193QNeD229ldqd260Mmu29bb19ZdGzf3rHbbZzX7e3kdvL/P9TAtqjrqEfVtt5HtEJYZgHrNYvsAVkHaN1rBagDR0FtEFG2UVO8PnyMJoAIFvL50pT9IAX7MR4BaeeMcno9M8zLs2BWaxOhimTE9DqM9mf2K/mxUpfik4QM5azTEkPcYYuP7ArYQ/eOmW7NsRPad1W7bdsxRL7+te+amvPOcdjr7SVAFfO/AR/YhSLiZFeGx0foxzlGKFYVa5W8J7NGywbG7E2qmy1hisJwB+2bXsOuwddsKbehkZGbNuWLThvqPYFoCrbsBo91o/Tq9jlVhnNSi62utY5uiOqCKeyfxqaJeAyE/UApTYGaeEZkiJWLmyxl160xpYt7rLaujobiWbtwFDCNlFg5qe3/xITwGt2jCcB4iVXXm7ve/+HLBOL2Mb77rfb7r6TJJ1qu+TCC62mvZ02CfAgUdwrduhAlFPBTB2g6nxoT9m0A0otYKuO9Ra3LTIKLfNPFq4deIAswuHZvFZrZ9qPN3lvZkmV3v/4Vrv17nWEn82tjFI88vGal4D2qJaWETWu9FnzanlLPflAUQdBdFYBqCIRuM88Vgub9RgtIWLouGGCt6soAu4T+CIZePG1GJeHncwxMv5LNqjgQIrnLU4yRDe4I91gr7sla/YM2mWSHfVefgStU7UnOcp6DiXtvpvGbed6CqDQBT1VJ1XXesWrXmGfu+EGa29rtUkAL4ZuMI2WHWXooehUzIFslDjWid6DrsDMwqVLrLoubI9u3MBnQyT/ZehBZCksQ0iWv9oBwbatW2yI2geSBdx14hop01Cx2VWktFZhED4MwcXUFhihG/RTF9Bt67HgrCq6EbtaiYdzUWu9XXHlBXbamacTGsZxANae0YQd6um12370XcoB9oBPDqaO2eUU6/+H62+wa66+ygYoKPPoPfe5B8j6zVtsYVODXUAB9JqOTjfcutg7fjMPCDkNyVqyXT1IPEhkuYiS+rz43tvMA1enl3kkoygh6Bdp0+L27jdqBb81TyjdONfl3g0bbF9Pf3FPzE+OqQS0v3IdQw2w2ovwKMNgFerlkhiIy3SsFukghIaLLFdwiAls81YNza1hZQAQdmFhAlo5xyAmDmhdQkOB1XI8ga6Pm0vOlcJj351FniyiNCFFRb3KM0ruV2ecMlABrMd4Bbb6soC3+3DKHlsXs00/jdhk/7N3Bv5KE8zbRcWJvuEtb7R/+MTfW7CxyfqijEYcSVpkbAIgHbHoUJ9NDfLq7yEjiRAjUmzPuWittS1baBsefNj2HzyMLpimRxK0utqwTeDM2rp9t3uw/WqjSBsWQKgQkV/RB3RtggBuEDuophSnDwPIAtoOgzACOaAqyVGtIpqhDmZ8xtrT7PLfvtyqqTuQnsGJSwpuz2jU9u3aat/9JgMgAvbHalKNh7e+/e32gT//kDUiHzzeO2L7d+2xsV3b7cDunbYOxt6Cg+7Fa8+1RsZNk2ar0Un0+7C6wml47wWS3jv+uh/HMtu5rZyd8oePjoAoC7NIaM6ItScRDBm0vsH3dIgZQDY60GMbH33EtuwivtYdoXDYk2RWAtpfuZCKQFhwEc6sJlgnNqG6mUGA1kkIMNogQEvP0bHZQEE6CMFKqkKUYKz2WK9iawWyyh5zgMt+ZFAyPm/O57zxKZzLIXHhJGR0Dmw18qe6VqxgcmapP3pfAFrZuPe5F3vb35+htmnMHr41asP7j91N6h11fvxVm1US3/X+P/tTu/b1b7bpihobGaUWLeAaGRmwCDdzZGjA4oBscpKh3mMxF41w4eUXWRjddP1DW2yY8MAqaasA6OjYmO1Gr326gHmPnRUuDs2ka6xsxTDDl9chC4jpOuDg3AI4ysLIHLXICvWU7rz4ypfamRecS+W3ABp8BUPopKg2Nm733vYD++Uv70Or967/82395atW2Mf/+V/sxeedZRGicnYcGrLRgUHaot+ivYdtD6z9wV2Pk+hRZS85Z611EMFRWUXxF4z3CGDKdgWacnTx3rNJZ4TeNu4ktVbn7MkC7ru8dwNbihbzPb3Uq/O0Xewdh2NssNe27thim4gyyCqm8SScSkD7FBe1ZY3fGpYpMF2MVuDqZYkJcIuMlp4Y7BVnGOw1WFkFyyXkp9qLUNB3pM2KFCjsy4Gt7M8BLuuL9w9zF7cL2BIS7z35sdV0ni6sGFNhKgKuFosA681Zxn6VUy7LHx5mVN1HE7b+h5PWv5Pur2MOxb2cGnPptW0dbfam173Ozjr3IosgHURGhywqsAVkp8eoTTtJ1hLDECdhmXHaLcuT8bTVi6nq5XMB8mKAXEKbInJg/6FBNwTRs2k9ga+K1yiRRuNgVVHtCrcoNYlIGOCYjUQeBIlU6Fi9wi6+/GXWunCJMZSYu5aTlPjsZ5jyW7//Ldi0wps4kecx6esf/tg/4Ch8ows13Dcad4MrxnmIKM04gfMp1t9rh3bvsge3b3VYeNl5F9ri004jmYfRpQk3lGYr0cCdiwyvMLl3R5ZZggQISzU5uYDvuBXeht4HAmmMVraZJ0U3Njxgjz++wzbt3I0ue/L2xkpA613+J/2t7aqwVsBWoyuoa+g5xMRsPemginnRKSb2SrQsAEwhG/LrQ3xHiQ4iqgJbl2nmHCIyVBleAWjde+Gj1gO4R24oecsxRCFoYToaaLXqCMiK8bJLOVo0iUFEY4QvPTxt991IwRIiE07F5AY9pBSy9fIXvwTwrLcopQkTyADTE+MMYR1FHmDoIRouxZNwhidlJdkoforHd5D0kgNkJyamXNB8jDKJ+3tIXlBc2HOYBPoaDqmVWN8qMqZ0rYJc11audRgnVKi1xZatPcsu4DwtQGqqRkImg2qEkSD6Sar4/n/9B8PqPPsEnOKpCsxeesXl9vF/ut6Wd7XYIOOdHx6askmGdkpFeNhQDD3Nb5wmXVYPoP79++xhwDZKjYcLTltjZ1Ivtqa11coxduckc2xVPwN7k/0WHuS88z6RIWOcWi7OtUrW6bbxPna1I+SQi6AV7z6w3zbv2XdSg6yaowS0aoVfmYL11LklLTdYq7hHbg7A04s8AEglHSARHAFaSVkzKl5Tia5XiXygugrwU0LElI6r0oo+PAs+wNYDWnWhBLayQGeSzAWqMlBvWR/9xolNtbUHut4XuK85JvUSCK/dsyttd/9oynb88tQcylxxHEsWLbA1HQsswDjfeUokpqjElVSYF0CXAQDLAFm/QrOIfdY1UosG6Kb4QjUAUMQlEkg60CCbz3USu5UtNLc2o92G6eEQDsYFbq4k2aGBkLLODltz0YW2/LTTqW/sZ5glnGZcwHHqxe59bJ3d+D/fZ/BG6O5zmBYtXWIf/dT1dsmLziPllxCyoSgFv8ctMTnpUoMzSertMtyOMtg0CGVqatKmBvpJFNhmBxmKvKu51c47/UxbtHKF+ZVFRgibABeD5b+EBM9qnRGyLFs8Yrq8cTHIhfMWwxV5yCYSFieGd3iw3x4/eMD6kXbSqq94kk8loH2KC+wDTNsB2lCjatl6MbSKOgiqohfzqhokBDnEeInRzmbYNoguR3hQdQ3xlAWglWyQL59xMbUBFnSTCWxJScBgOTDvBapyFjgDlTFqnc7J/fFmIqyFRe9sC/e9m/FHjFfvZeh645Ik0Pf27snYnT+YtC23T6GF6cNTbKItF3R1WnuoGrDFyUgrpngQZegOl8t5BcBWESICDjLh2OKCKlc/TcWuEaSGQ/sPIB+oBoEu1nOfBLaSkZphsLVkkQXRklp5gjdxXsGWZmtZvtxW44hq7VzE4J6e4ywJAE6M9NtDd/3Ebv/pzzh3dvAsJjnnPvjRj9urX/VqCrlU2+GJaRscmrQkYJqETaZTCWrtqgwkA1CSWKEC55qnGYI8RgrywcOH7PH+fvfgXrt8ha1csdLqCQHz4ehTmUkHuM6IaTlMy3WqnAEWLVXAKurAQ472VCU0HTsyiiOup8cOw6onozHPZp/F75qvm5aA9imunO6rlrP8VrdAjNYDWldgBqCVbHAEaKXREjM7mwZcuXlrGFusnhqoAWrZlnH3OhYLo6WuPiALUIPKGjNKbEtrvfsXYBXzdVDJ7AjQesDoeIMsuTgV3h61xll5cVm2rogEJ12A4gf2Z+3HXxm1x+/FqJU2dYpNeuh0UqGrRsVeaBxXCMZFCAC0yAV68ClQ3w+L9ROqpdFv9+/ZbUOMyqAaFB6DOzaNJrDVkDk1aJ81PHg7YLV1jFNWQ8JA67JltvKstVZV32JxMiwkO0zHo1QUO2Q3//dXbcu23c/4XMQc3/D//aG9jfKRkgzG0al7hyMWhc1mxF4pPp5JM0QP4Krx0DKAboa0Ywe6AGIKbTrNmGmjY6O2j9cI4NuMc2w1EQkLFy6i8lkrhWOqHcPVcDMudFFUQKwBO1aN4FkcfzPo4Bo3LYZkMzE66hx9vexvnKHcNRLKqTSVgPbXXO2GlX5rXA4LxSGmgRod0Lo42gpYq0K8PPlAsbT5NJlgsyoFV0E9VLqipN8KoAW0KruYJj5TN7SW/eqyylEmucDZJjc6n6lko7DW2SqfO2yV3WqbpzpHrSzgppsd9V7FdbSofUm33b2T4teA7Z4NsSPfeapdnpzraHeAtbWj3YVsqTZsFctKRuHK0T7IPeFGeSVthOIvB/futTHCwVTg59hPYrYV1snovFUAVwPSRQf1XOta2qy6s9M6KfaydPUaYnhrLJ6muDzFVSIUIO9+/CH7Cc6x3r4nDz/zVOcnFnn+xS+ydzJ897lrVpqPVOL9g6QDj3pMNotckJ72huhxw/RQUUtMVsPuqCykmGcK3TadICJjKmIxnHO9gPAQLFgjAjdV19hS2rK1qcnCyAkBxuVTgR3F3mpS8RgVS5cUEVUaMlrwMFLFcASmTJbdqeigVbuUgFat8BRTDQVmWs/U+GLcg9yUxRTckEZfcC+AVum4hHqV0U2fSfmctFBTSxovNVEFzqqFG4A15cowPm4asVqIr5uLBRyp9OVAtwC4QKSiEgS+DmE1c4xXiwXI1eecs24qTXzTw1xv0XXHCh/xIccBRA4eSNsPPo/u9yBge4pNXtedgio4dtra6L4DPq5OMRcvWB2mmAsj3/Yctu5DB6mUloGhzQXIeo2uc/ET/tVKN1xjeLViRF01dVYNS6xZsMA6VyM/WlwAACGCSURBVJ5mi5afzhBJ6LXSLgGuseF+CmVvsFt+8N82RjnFp5vaAME//eg/2tlnnWnt7fXWO5G0kSHGP6Pb7gEq7BVgzaSTxK9S7Ia5JIQcox8IIN1n6KhpjS5B+JvG3xvD6ZVFy06jc4+MaXTgBJE2XmGdINlkIR5cGvxUD/YciRkpNOYkEQXTAHMS2UDs1Qv1erozP7k/KwHtr7m+ziF2LokLgGmx7oEKzSjUK1QI8/J0W3Ra7st0DFmAXPgaHGj1dTjS0GzFagW00F0KmmRdmBf2yE2u+qYCVgDTvTx2q+28Ckke2BZlBLcN50kymANYgayQ1eliR51/EVyLc21dfK+KZLu2pux71w9Z385Tsz6CutRySi1duoyRcKm4hSYbo1u8fy91aAdHAAlp53MHssVLpfMIEqvbJrAldnVRbY21VjOmWEeHhbsY+nzNWmtkqJ14VjWJeUjTzR8d6LYt62+3X1DV6tcVCdeoz7//rvfZi694Jem9rTbNxR9CMohRqyEjhorum0OTzfASexW4ZgBXSQYCWbFZN7YaQJoBZDXc+hTHz1FUX4Y3COOfIsMuTRiWfoNnjfzFQJ1NKn6RXoJ73vPnVAfX4vXWvAS0R7fGUe8rAdW28wFMhh8pMlofMoBLw0UikFYrwHWxtP48QIujC69xLYxWYBuuViFoOdMY+wgmmyE2VsCpHpacYpIkHGsFXMVgnVbA5+6t1omnetYLo/VOzC0XthGAarWMWuu17DkktO0TAKsN5ATSNgL4LQ/G7RvXDeB5Pvk9vWqJX50EEHUN9TDKNhyEsMWRYbq4sHwa+XgCg85DtWHlIKtHRliMk6m5rslCSAjNy1bYwlWnW1Vdq8VIs9bYYykGdBw4tNceufdWu/euX3KtC0ZR+IHa36tf93p72SvfaF04ABta6mxsnLRjtNYU3f4sckFGQAuDdcBKiJvG8HI6LVqttFSBbA4mmyEELg7YRoSltVU2zfe6e/oswQgmpem5tUAJaH9Nu6nWQevZ1Bxtg5mqwIxAE8BUTG0V8bKqT1vlmC0OMXTaLDdELlFJrVE/nxNTS/B7CI+2hisXqc3h3FB0gTRbOapchTD251grwFohqaAAri4sTB+5dR4g675ilSDU/XULxfe/8huKLLa4+ug4XDnp7iKh4eYvj1hacZun4KTuu7zhaidxsWPp8Ho2zSlwrG+qt6bmFmuEjS7FMVbf2GI1i5dY8+JltmDZaqsI1TrnGOKmxRgt9tDu7faLn/y37SP2tPhg0H7OI0Ts2re9x7Ll1bZmzTLsbRYn1IQD2TSg6TFZAS3MFYacpVs/I0YrgAVoHciyXVYlHnGYKXq3vLYaBjthBw/1OUng2fy20rZPboES0D65PZ601LiCKIJlcmyhrZKKCxEtAC1VmSg2c0RCQF6QEyA5RbwtnuTaelVuIsFBI+nifKG+s+VIrVXsrB+gdaDJvsRqpdWqnKLWCWzFPAWwjrC494VlQYKAt7iOMxXkPmkSEhdXMn+C4WqrAsvleEpiuPemSfvJV0e56U5NsH1Su53ABRUTaqMYt1J2m5ERljG0Tl37Aqte0EWt2BUMt7OcIe6r3VDoZdjQ1NiQ7Xhso63/+c3WTRyq7GX1mtMYoPL/2Ghc2m+btVLnVsw1Qyyw5/wS0AKmijRwTi+xVwGu2K2n0WZxVGUIt4rDaKcwPl84ZAP9Ay6L7AQ2z0lz6BLQPs2lrOmssOYzyBwCHH0Ap9iPog+qkAY0Wq6SGFxcLTJCGYM7xumOlxFT29DE8CbE0vrIu1clJxcCKTYLUgdguAJYsVuP2SqLDFQ8ArQC3yLgCmT5SJ8LYfUXsHVSg1vSH+8z/dUmwmI38b6QuOOt046Y3Na8x1dhP/vOqP38u+NeLrr7tPTnRLSAC/sCIGsJ+1qAXruEEK/q9g6rXbjY2gHblgVLScuuxLFEhd3ZLMOh77cdmx+yu2+5kUuesfd84EM2E2i3yUQWZ1+z1VJLtywnGQCApdufTeslmcDTZR2DleMLbXYGuSDLdlkiDWJxIgUwynLqKvf09JLS/eSBTk9E25wsxywB7dNcyWAjkQfIB34kAoGmYMoPSw1JOigkL8ghVsVLoytMk7CeiijEi/J5yAdB5AYBrWSIPMAqucAH0BbjN516ymflAK9XDwEQBXD1cqyWI6p7+CTgdes8wNSpe1KClvUYeGK9Wygsuy6yQNgte99Q5bDkdN5u/vqorbt5gk9K04lrAVK16fm0EzFQQ3d9Oey2vQ6wXbDQOccWEIkQbmi3aZxjKmAOetrhvTsZ1fd+a8Dxeu7FlzJ8OXHS/NPoDbUUGi/DJ5AnPnZGUQVydkmPFdhKOhC4FuUCATEgG0cyiGKE5Ti+Dh08ZMMjk872TlybnFxHLgHt01xPlUpsPRettUGD8gFQUEQBbJA0WznFpNeK0VYzr6gkvZDCzpHRHCmd1VZD4kIIVqviz4qfVYqCsr4qnWYrYAZAQT6NxKCger3YrAC0sF2AkP8OcIvvJQWwibde5+2QUxzV8VRvWUsebdUWbp2LXdTOvMXi1u5cpsZz9o1/6Gd02Gn3eenPiWkB6axVgFwrTLaeYjTLkRBamtos1NVlTUuWIyGstBAjIyi+VskM2WTEdm99hO59vxvRd6Yi6BIF6gFqAW05sdszAG2e4c4FtlkkAw9oBbyFCANkArHeOBEGESyrIlxlfb191tc/UgLZY2wGJaB9mgaVNtt8ps/CnTAEdfeJB/QrO4zIAjFbOcRCkhKQDjTkONUy0NAYpXaaMnikPSqBQcVKpNeqe6iKTgr5Esj62J/WKcxLOq1zjh0BWjnLCpqt1nkY+SSA1Sphp8NUkFVzt+Ko3+PWHcVzHQC7zfRtPgW5FVEx1Juxb10/iKPl1Az7OqrJTuhbAWgYRtpC2Fcj5eGWNzTiKCMEbMlSa5KMsFDlC8MUfdEgPQyLExu3HY9utEO9/eZXeBhVwkLE5ZJZbJV5SmXOoA+pvjEZWjNoRdJtHdgqRhZWOyOQxQE2hSlUEF1w+NDhEpOdIwsoAe3TNSx41LQah9gSshaEWiw7oKWmgZitIhGK0QcaM4zeH5WQkjY5mHUjnYYbAGSC0+UUUxUnAa1kATFcgbgHtAJbhXx5cwGupIIn2K2A1hMGPIar0+BkhJVuKrwpnN+RE+UzrSpOR7u8il9VNII03XLAdt/2pH3rs4M2PnzylqortsULe563FkaIqEM+aCWhYXl9M6ngC62aNOLWhUutuXOZ5SsIuSKZQSGA8YkBQvbW2fDYlAVqG7ErHyAas6BNM7ySVyxnljoPAtq8WK1kBEUh4PxKAbSTOEbL66qtt7fXBgbGSkx2joyjBLS/oWFrF1H8YxXDmIBUxWHIAwwjHoKtKq5WjFQyQrWLqSVDDKMe6Y3bbKrSGpo1UCMRCGK/BY1X2qu+57LEHNhqHwAt+xHICnAFwFqWZHBEs+Wm8oBW63XSniard0VA1WoXaaCVBSTWZ8XP3Xv+lAlghbD6jJkDXHb+yLqofY9U3VM17Ms1yAvgjx7CSmaoqa21BcTaLofVVnVIr+2y5q5l1rxgCaMyyDmWZayyWRvr2WW7tmyygbGYTZDqmmG47jCF6JsbGF4JZlwm41VRHTnDlAUG0CZJRogqYwuQHRgctH7kgmKP5wXQBCfdKZSA9jdc0hAOseazSC8U44T5icVWyiFGSUR1/z3ANNIpqYFANEI5ITgTw3GbGMq4mqNhabVoumK1AkgPaBV5oIwyTzLw2CsAyrKcZZVsWEkxGgeyfKc413fBZA9CtS+9d6gr0NRSYeZhqANYL4ZW0oJ4MP8ErLzX1hyO9x7Y6o2GxfnZjZN2B+UVT9WcdDXhiZ4U5xuqCrgCNBoIcmVjo3U0tFqIgi7hzoXWuXQVumybMd4kQ+AgI+D4Gj20w3Zte8we27LVRod6XcHxJsowhmHFQTIWqfXIwx9ZC0abiSEXcLFnKQwzTp3e7p4BdN8T/atP7uOXgPY3XN9KnF2KPPBVkzkE2PoKzq1KOcPQaCUhuMIzAGe4DkkBlSE2lbTRfrFaMsTQvmrrVDRcVY74PsDoQr8cSAN22ieUtugUE/g6MGe9JATF1orxFkHagavOmTfuPR84KcFBpvep/nqA6oGq/jpA1fd4k3dBuvq+B9zus0IsWDKRt2/9O2NlbSrptWquEzXJOVYLm21qIXMMQFwB2LYAriHia+sZkaF90Qocrs2k6TLyLpEIFfm0jR7cZju2PGKPPPIIlb8ijhHXq1IYNT0rka3KxGjRZyMw4VmcZqNU1OrtGz5RP/GUOm4JaH/D5VboVes5VOaC2ao4ho8aBq7eLDRUcxWYUaEYgaGr6MWyRjuNUcwjMpomgSHossXcoI2k9QZgxCpQo8QFgape7vvMJRn4AU7VVBDjdcNYs18nKzgpAXAUijKpJoLjpQUQdgiq9Q5r+QN6CkA9/PSYrJDZY7ZuI/e5tAYxZfUuVUZxluMfZsyxb3150ob6Snqt2vpETbqWjc2wUiUzICOsrG+kRCGVvhYvtQakBCUzyAkWwzmmItsVOMD2bn7Q7rj5B5ZSUW/kAkkHYRIhiKy1cnTaVCpL7YIggz9G7fDh/hKTPU4XtwS0z6ChNYZYeLEfR0LOKpSIoCwxuvgCROmvDngBQoGnWG4Fxb4z9OumRik5FyW3HkOvgvm67fmuB7Zelhi+MsAWMAXQXTSCwFdeYwGxwJZlv5gt74vwKCaq97PciZqLKXu8Vvqt4JUtJNbqPYCs924tq7RatQ+K2wiI+boHtGzLs4TMMbPHNk3b977BcCenaJouTfKCmBSR0tjcSK+ozhYCuEslByAfVHcS9tW12FoXLMNYQhQt8mJsb/veVxkR+Vbiaet1iQHcpNUoEoH9zMJ88xTniFD3oK+XUYCptFWajk8LlID2GbRzDQXAm88MuPAuIZbfsVglI6CniqHy0oi3SmrAph1QzhLqNR1NMz5Tkmwxhi+pYzhyabyk7gbFaJm7IjUArADaab3sQ3Ot92m/hIzJOSY/motGADi5XwSj7uXwUkDJSiU2kBbhGK2ny/LDpB+wPX+Z3Bfd3Lu9PDD2IJvVAlhorXTaGZgtI2Xb7TfHqBZF9hDLpenEtMCChV122RWX2vp167CzgC1rarTFDFEeYoieWsXYdkpGWG6ZspDd8qPv2V03/acF6G2FgqSCI1tl6F1pEEQfT+NKQDaPDR081OsqcJ2YX3RqHrUEtM/guvtr8QJTMrEcppmHBQTQWz1W6wGiQFDRB4qtVVquQFT1C3J00+KTSRsfTFkVhW2b6qlTC7AqfdcPG9YrAKgKqAWmYrAuzIttAvpcbFdA7NYr5IvuHzeKkwcEtgX8OwK+jtl6PwhYdQCr+ZGpUECBuuAOgz3wFeCyBS8NCy15RGArKWEqMmM//F7cNm2i8lhpOu4tUNdQZ5//4hfsyksvseuu+7jdfMst1sKounKOtRH2FepcYI2Llljr0jV2150/tztv/m/sEN8BgCw7qUY2CAC4OYBWF1SP4m5ibtOk8pam49sCJaB9Bu0t7bQJ+SDYwMaAVCWoKKCVQ0zMU11vgZ1GzZVmq2HJFVerMnzTsRQRCNM2PZWzptqg1ZPsICZcBFqBspguPjYjIocbhX1xPMkLLvDcAS1smXUu9Ivj6FgeMsJwtb2HvJyHdzMpvtKhsdvOO2dFJwiYNWKu5ANNkg00HpZjtfqMFQqaZxQS99JvPXAwZ1/9ClEUE6Vuptdqx+evUnI/df1n7A/f8kYbowbBY7sO2hc+9Qk7fHAfo/W2kDlWbx1ICKElS23L7j22cd0v3bXz06VyleC4yCqLGeQprQLjeWSDQ4d70WhLD83jcwWffJQS0D65PX7tUu2icrpqGkMMVokBu1AvGKxkBOGWnFMqOKP4Wr0EpJIPpNVGx/H0jintcdZa63BOEIcr0HSsFUCVVBAEbGs14COsWSBaAeJKhpCs4HeSgge0Xnytd5o6prZ1mWWchHOQgaZOs2VZDwChqgNWFsRoJBFI29UkoNU0K2QvAK0+n+EDD2x5WLD+Z79I2y234rE+NUvYeo10HP9qRIw//8sP2Yc+8H6bIuZ19yBDwRAju+vRh+z2H/wXZROnbWlrm3Xx2j00bHv27XUP24pyjXKgkEHvkSt2qwd0DUXGK/CuyvmlkYBL0/FvgRLQPsM2DzSUWcNqhXLBYAFFJxdgxH5iZPVe0CW9VqUTa8gIUwgXoi4ZOZRPpNhMbCpFem7aytA+OxtDZO0AxoCqHxYreUCstgpHWpjvi2NSGcEtB2G8AmWfwJZdsilAKq0WBOQ/MOpuMi2LyXgMtwC2nJOrWcp2mlzMrYDWna03x1XmlqXrOobLdoqpVD3TnAsdKrOp6Ix9+wcZ27y11OV0DTmHf9SreOf73mXXffRvXadk/xgjQPSM0CsadrVlN95zu20nhEuZYwmKwYyMjGF/dIcAWP3TmGQabJI/BTuR9ASrBWx1pfv6hnBwlsB2Di/hU+66BLRP2Sz/e6Vst2ENEQO1YrOwBhBPgyBKQggoxhYAVNSAwrhqmij+DQDLOZWHBuadhJCm2n3KYpMZqwSv2mG21bBhAa2ffTktFuCtKmi3TvPlOGGN5MB6R0LR2RT2pWwgga7EVckIAnlVD/NuNJgy5+oqfrFeQOzAVj9JgOt2xPkWwFegq5KNkhRmJN5qYr8CW2m1OcZDy2Tz1t2Xs698O2+DI4UveluW/h7DFpA+/trX/a598QufJerEZwcB2UODEzbS10+qLcPRMMrCKMOgr//lzy1KeFZGtWUJ4fIiTLCjQAjbJGMsqcFA6RHxsFftYazESVFh4nElDR082OOGyDmGp17a1W9ogRLQ/oYGOvrj2oVlDA2tAjEALQxU2VOqxhVkVAVFHQjJpL9WU/i7tpGC4YBaHkZbBgiqslc8mrFEBHYL2PoAtXacY2HAVuApZ5hkAjnExGIDPumylGBEPqhF+1UAu5iuuoKO3YKJYrECWo/N6kw5B5YDALe/4KDTugJ8OsB17zX4GJMDYTFZGLJUCE71iJwgIHbg68CWMc/Ss3bPQ7P2P7fljRolpekYt4AA8JIrLrOvfOVLVO1qtO6JmB1AMhgdZKidEVgoCQhpRj5Qse59u3fYjh1bAVQKw/A01CvPNa3wES2LzeV4uGvsM1cLWVbDtVQ0SxBHQA2ZZiqJODAwXALbY3wNn253JaB9utb5lc981bDa1Rg0rLVSiCdGCVwFwji4nCYrxgl7ICpBQKvEhDwpkn6fV9ouzQir03EAF6BNRMlTB2zbwgxrTuqunGdiqWK2DDjKi/0Cuoqp1dDYFaTkBniFtE4SgpMPPOdZhSsiTrdR5yvg5TNtE2If7K4wecxWTFXb6bw1OYLLXFIF/hLAVqALBDvMFhQXpATWD08AtD+dtQ1bjuxUuyhNz7MF9BBde/759vVvfM2WLlxgPVNxOzA0ZSOAYYwU2cTkuBv+Oz0dg9WqGEzM9u7fY4e7u6kzy5A0XFQN4ijpx3t8Yh8YjlitXtLw3QMZ8A3gHKslKyxOGm5PTz/X2X3pef6C0td/UwuUgPY3tdBRnwuUwothrO2ArLCGl2YB6h4otEtlFMVwXZiXZAGYqSQGyQNivDMwjfR0FpBlKOZozhKxrJVzdyyuJyECbRbS4ZgHQ405oJVjzOm4zPV9MVrIs1XBdvF3uO11/Fm0YMVOejeTwNdjugLjKrFkvi8nl84/S1dyGokurIgJ9iG+K/aqWrlyfCXRZSUZOIRlpv27GxjwlcN6694Z++IPKmwqrk9K0/NtAQHd6jNOty9/+Ut2NkPSjHBx9g5O2RBFXqJjI5aMeoMraqjw4kuDK8aRDvYeOmDjkxP0MCiDyFPSjUvHdSon1bAMsV7ZYmK2cq7p2utR7MILMSox23EGbhwZHuN6YxylaU5boAS0z7J5K6tIixSrxfEl2icHk8YTkyOsTExSQMuyssV8kgAANDFbpdmqiz9DJkAqIWaLkyyedfMyNNAORmRoBJxd7QN27cCWQR+DAKXqJ0guEPoJPBuUFAHWiwHnQEdV3a9X5hnL0pJ9SBXSi8VHJV+IGWt/+o6AdnTKG1anGf1Xcbx5mLXjruwbwg1LEvv1QLbIbrWk8Mup2Izdsr7cbl5f6bLInmXzlTZ/UgvM2pLly+zb3/m2nb5yuY0CsgdHY9bXM2SxsVFCAwFZ5IJ0Aj2WGgUaSFEj2QpwM8gGU9GI9QLGUxENpch1hBmnksTMyghYdo9CLmQ52pTHbvUQ1sOcEMRAwGoI+5oAbPtxkJWmuW2BEtA+2/bFemu70E7bMWTAzHn53RxGKTADzSoBVlfPQGAL0CoCQcOX+8j0EqDlKOqRnAZoGeMpxSuZoLISTLKVbdtq2Jb7RDeE4mo9divAFVAr9IphqnlfCwhLw03DkqeRJxoA2mqEXjnFBLgCZDFkb3QGhfwQfsY6ZXmlkAHwobAN6Z048qodtQXI+Xwsnjfdq2EiIMRkCxDsGLGWY9N4rsdn7Wu3+Wxnt27o0vRcW6CDYcG/+KV/t0tf/CKbTGftwEjU+gdGLTI0BMhOAbJRQDUO0GrML0CW0oYa5ysN6KYTcVfycBLw7Qdoc64bwki5DLAobd2FeWGcPgA1S5KNHtM+AFd2JQKr+shVaFQhkhqk105MTD3Xn1H63jNogRLQPoNG+tVNKgC5umWAKRljYn5OA8OCRSTkJBO7dSm0AlckBQ15o7haksMcY5VLP4emlkJGSDvA5T1gm83krYntOgG/AMAoBirGKbDVSxliCvzSXwGtmGoaNowrxAhyoCo/Q+7Amn0CWVDWK7foyQxCTQG1Q09uNjnypMnqhhTQhtmfZIp9wzk7xHA8q9oZJQI5Y5aoAzc8t0CX7ydxig1HZm3rwXL7+h2Uly45xn7VPJ7B8izFvdvt3/79C3bVZZfYFA/eQ2MJQq9GKEQ0QnILmiwgm4K9Zhx79QBW+qxkg6yAVusJ75JDbIxrHicCIaGC3qo7y7XVI70cg/PTHcowtLiWlQQhsM1y4TVQqArQS0Lwoy31EdkwORl9Bude2uS5tEAJaJ9Lq/GdQB0JBksEqpiwY7SAroAWTVaM1mm1AlzeFyt3idWqWIzGF9PNkEuT0MBLIOsAd3qGHPS8USjMOijPWMu+vYgEABvgVYKD5AeJqm5EB9bJ2eVpsrNWxwJ+OG4gsV0YK8DJ4RzDFYuRxitwVliamLVYzkyuzMkJAnE54fqRFfaP5Ixng60GbBs1wi8balt9C0yw/kkGokzN2o0P+O3u7XypND2rFmhubbEbPneDvfKaqy0B29w3GnWjG0yNALKRCeKuI04i8EBWYMtQ4KojC6i6QRUlIwC0KYA2IucYY4zhCrMoRb/TAK4ejHqQz+II86QfHrLIBUpa0NNSiQzqiUlOEPBWE9qidf39gxaNxp/Vbylt/MxaoAS0z6ydnnKrUBtxrl3SZjFaZ7ie88sBKmxBgOuYrebotapp4EogAoDSc6XxztDtT6VU7QspAXabpuSdlv2w3k5YZouywwScKjDDTSKgLQ6bI4lBhWcUhysorMQpFgaMQyyL1briNGyvuFoBZYRKXGHOpYZzcSs4vuZgPhIENydgrLm2m0CL1V6XNDLCBEXNOQUnaaBUWB9Am1MUQqTcvvHLKjswzI8vTc+oBVraWuxr3/i6veziiyxGgx+eiFN4mxAuasMKZJ1ckCC6wI1SC3slnKsoGeRYlyHZION0W7INkQ2SSANTRCFEo9PW1FTvGK6cY4qvdcWAdBFhABriRvbmAa0XoqhF6bWSEZSmq/d9vf0WicSe0W8pbfTMW6AEtM+8rf7XlmKw0mur28QVYbZiC3TZXYouYOd0WcDVOcM0BwQFuK7qlwNbdomxz9D9d8yWdF0x25QDWxUcoIsJkHaFZqlr60kA0tjkBBPYCoDFUBUKJtBVmJBPYAuNdXVtJT+wbTGBYRx9Vey0s54MNj6YZf86ZzGgLGg7wzwH203AqhOpvE2RMqzz6yBJQ2X2eKQAynRTiVpQILweLvfv9dm31sOokBhK09O3QFNrk336M5+2177qlRTsztuhyQSa7JhNoskmpiac0ystuQD9Ncuw4HJ+afTaonwgoNWgihlGrY3DZGOw0SzXeN/+Q0QezFhLS6PV1dUClBF3TdVrygC4ZTgPdJ0Vq1sOcy0DUBWN4OyVayjHqZ8YXOm1AuOenh6X9PD0v6b06bNpgRLQPpvWeopt5QCrX4Y8UO+xRHXJikDrZAQArajZCmQFvm4EBbFO3hdLHOZgtmnq3aaJoZKDrMhsszjJGoiT7QpQ1xYpgXvEObk8HVYgilxA713MVsCXp5hsAHAUswXbHbNV8oIYcRQNGFnYkI2tM1xhtdIV2Jb7j46np/5KYkgBAkmAMwngRgXOfNbozrXcOVK0vTReQWtkuty++MsQcoM4b2l6qhbQg6ylrc0+R8bXK6660jHZ7gk02f5RahaPujjZouMr64YCl/PLkwkyWi5EGbjxvgBfJRxo5NrZ6oB1d/egrXrd/Uqetu0drQ4405RHlCYrOUHhWwr3ErBWAs6qbaEHbpl0WmxDzFeM18/2Kq2Y5buHD/eWEhqe6mI+x3UloH2ODXf016i7THwtTit0WwGXyxwDSL0MMoErBo1o6mQDB7QyeE9G0NA4GoLc6WqkZqUprZjCw5RGSkinPRkhDbsMwVYXAratfiUuSHooMFvmStFl4Aen55arPCM3FnVtLCyAJQpBWUGSF6ZZr+yvLHMlCIupNiukTGy2wFYhuZYRE2K7DNtNZ8tgT3jNQNcwUQ2SL+Tg9sDWY0N37660/3kEVgsbLk3/uwXaF3TY9f9yvb3i6istSdseHKfw9sC4TRY02RRhWhmiCxTC5aQC9NicAFZg6xgt62GyAto0IDuONJAPV1v/4IANDY47AC0eNUhZxM7OVq4RD262S7LPI84xaiIEQwBplu9zbaXbBvGyKklFICzQDVEToYZhyyORKXTjoRLYFhv2ec5LQPs8G7D49QrYau0isroaPUeTQFYvgZyAVJlkcoRVSjoAbItA6wchAyClq7jEzZF1YAvQOsD1WG4GppuEjUpEbQQ4lwVnrA5wBW5hL5IVPHlAvg45zTQ0jcAW0oqDTFllkh2QB7iZHA8FJVW/QGy5jjCuRSRcVIvd8l/FZBRrqxc4z4tEBbZLohtLw62CBQXoaurmFdhqms6U2VceqLLHB91JeStLf2mBWVu4ZLF99etfswvXnm1xrsnhiWmG9h72mCxyQQY9VqFaiiZwUgGZXnJ4OZkAsM0hISjKIAvISqudEgCHa22MjLHD3f0c438/3OrqatzgjHEiF1wtBK6Vwr+UxK0elOuN/D8B0wJofS1kCAGYRoDiIJNAE2bswMqfB3guwvev34Et5sfA8XhgQhgFFIUAAAAA//9uJzq9AAA1jElEQVTtnQmQZFdWnk9WVu61L11LV1VXt1qtdaRhRhIDIwaxDAMGEzgw4IGAsCMIbAw2EbYJE3YEgQEzmDADNgNDAIMJhgDbGBOEHcbgYQwMAjyDJMRoJLV6r31fs3LPSn//eZWt1tbdanV1dnfe1/0qM9/+zrvvv//97znnxgYHRxsWpptigXjSrHuqwzKDMTP+d3TELN5pFo938KnZrDPRYZ1J5kTMEnwmU2yfTVoymWCHhu3X61at1qxarlmpULVisWqVYs3K5TrzvtVq+5aL7dt0qm6jyYZxSM6zbynOkY5zfL7z1fbZxniyXWzQq42YyixPcx2dMZ2nYZUKc61uCa5zON1hg5mYpbk+a7B8v2Gc0qq1mJXYtlxtWKnWsDpzMhazFHODWcdhd/vspaT96ucyVtvnR5gwYcNO3HvCfvbn/qO9//HHLI/dLm7u2fzCmm0uLVlhe8NK+V0rFwtWKeStVi5ZrVTkuZetUi5archvPvW7upe3amHP8oWS5VMp26uX7dzZizwbnvFbTBMTY5SpTsvn89bY37dypcqz2ueZaQfKJYUx1kGB4Rl2dFAm4jxLVsZicUtSRtLppHXlsra1tWVzc4u2T3kI041bIBaA9saN92Z7xjpj1nPMLDPQYR0AHOXYQbaDgqzCLKCNA7KdAjywNZGKWzqbsBQFu7MzTqEHBPfrAGqNF+4AbAsVK5cA3NI+IKyXZt9ivMgTCQA3Wbeu+L6DXRLE43AOtvusj8C+YRnOKzDUS9bF+XtSXLleOkASXAdsOWZN+AqIsu2xPoFuh4HxDq4VQKIiYOYA2q7K+Tv5rm25XK4lxrYx++XPZu3zKweo/mbGaZNljca+3ffQg/axn/95e8+7HrQd7Htps2Dz86u2tbpiextrVgY8K8U9qwpcAdtapcR3ZgEry2r+yXItAyz3CgXbBRjrVMqvnD5r+b3SVa2psjQxMaq61vK7u4CtytU+z5sHznFi8QTPm3IkoI2prOq5CWgpmxQWlU+BbS6btZXlVVtcXPF1Vz1pWPmWFghA+5amufEVHYBt90TMMkOUab6L2cYApTizmGwnyzRrXSIRtwRsMpmOwFa/BbaNRt32AdtypWaFvYqz2zLMtlKqw0T3HRzrgN8ADPa+dN0G43WYKsflHCmAVy9WmfUp3p8EL01cAAzQ6lr6APhu2DAnsX3AdB8grfGSlWCtm0VePtu3+4c7bSwbtyLrtNyBFpOI4er8NY4t5E5yzITxorLuucW4/drzOSsAuu06Cby+CAb70x/9aXv0wfttF/udX9+1xYV1B9ni9qYVdjYBWQC2VABYS1YXm2V2kHVmq99lQJb1bFcCaLdoeez3dsGI521hYRXzXtvGuVzGxsZHbI/9a+yfTCb9u1oxMYErZaGD5k8sFjGCGL8TsFsHYMA4kei0TDpl6VSSSmLRNje3r+u87frsr3bfAWivZp13so73IDscs66jFN40P/gfSQkRwIoxOPgJdJEQEjTzUplOpIQEYBwHiLULjHNfsgHznmQEGC40U4BbrSAxiGnClpIwlYlE3Y531q073jB2dyajpn8cCSEncD8AegFinJesP42kANg22L8BkO6zYr/R4c3RjULdAfYEzPZYd5xlMFtaqWzG+SJGy26+nEtwkEUBgeWafep82n73TMaEw+02qSXyga/6CvvFX/iYjQ4P2wbP6OJaHpBatt21NRPIlpEJJBU4kxWbhcnWyhUYbdn2+V5BMhD41gBYsdkKksFmEdAFZFc31+3ShTme7bVBVrYXO+3v77G+vh4rlcpIBTEHWklTEdCqks+wZcPlKpXPFBJWnQpUFXUCEO4EbCUhdCI1rMLGl5fX2u2x3pT7DUB7U8z4FgfhfUj1xKx3GrDNHoAtgCdNTCDbcQUASlKQjBAx24QlDySGmPRUWFK1DNAWIqAtAbqVEuxWYIuUILAVu+0HVO8BbMcTNZqDMV4YNRcb6LKwa87FqXnBAES9QADjAJpyfydAC1qymWuu2kdsdbvYsD004dFczO5B5AWzAVtYsoAWxIUU+XYCXCe37C/ttlKJ2a+9kLMvbECb22gSyH793/km+6mP/FsbOzJsaxjqEiC7tIhcsLJspd0tZ6bOYmGqkTQAm61WImAVgxXoAoguJQiEC0WXDPKZNPr6vr304hlsrydx/ZPAdvzoKOUp7nqtJKlIQuC5i9UiISDe+gFjFMpIu2V5VFz5LWabsEwmRcsobvNzC+i2u9d/AWHLyLZBoz38kpDsoqk+EbdUH+AqoKXwg7WRrCDAFfDxGQdcO6XZ0lRLpmG39G4lAUj6J2AYSAaAa4m5KM1W7BbmWYViOrtFc9U72Ak7meqo2XRH1boF0tyeWKfANgtLdlbtgAvL5XMo3UB2gNmyofqxREQF2lUAMw+N3QXIR7o6bKqbC4ZJqWNMQFsFdHW+OjvV+S7AhVh7R9zsVqf9+ss52yhx4W0wxXh+3/btH7Yf/9F/Y33dOVui1TGzumvL6Jq7G+tW3KLjq7DrMoDYqmuwzmAFrgAt370zzOUC1ktWQLctAbTbVHzWm7OXXn7FdneLN2TNNM3/o0dHqAQrVkDrFSGu0jlW10MDbDW5VkunQYyC2ewcU2EQGAtgNUuv1fqLFy5xnBu7lhu6gbtgp8Bob9FDlEdC1zhgh5ygzjAVZpXxCHAPGC6/ndkiIyTQbDMZ6baRZ4I6iKWzCVRLRXWOCWgj4K0UJSOg4QGCNQEgL1APqHcPYDsm7VZNQ15YZ7agK10hDvh6ucAI914Y9F4tXiw+IT2AqQA36gzbA1h7kT8mclwn9kIm9nMIaPWuRiArmUNAzX3x9+mFlP3exaw3Q2+RiVtyGjXH/9H3/2P7lz/4LywL81yl0/LC8o6twGR31lZhsVtWRiOtlvYiFiswlTQAk60LYAE/yQaa6+r40gwYSjLYphKt9Xbb7OI8Gu8K9wdC3uDU09NtR44M2N4eHXA8XDFbAa06TSUjxGGtqmSF63GBrQqGg3AkO3WyTPJWLpOxCvvPzswjaVVu8Grab7cAtLfwmcsjoXc6jvuXCjMFXO0zZpVpZ7osUwGXK5g6xZJQ0DRgm+NTbmBitjUxV0DWgVafYra83GK2NdhnDfoqFzDpqtIDBhs1O9VRsYFY3ZmnOuRykiU4dRyglZYgZjsI2x1PNVzSEIDuA67OVHnxynSAFXAFSyHCjuGNIC8Gga0khmiOOdiKP9fQ9/TGVmC6v30ua89syMXh7pzSAOsP/tAP2T/53u9B447ZQr5isytbtjy/ZPlNWOzOlgNmRSALoHqn1wGwCmQlG9TELAW0B51gAlqB7C4SQhEGWaiV7KWXznhr4Z1YUR4lw8MDaLa9NP13XI5K0hFQlERBuRGoSqYSyKr2l5uXymecGr6D5dKFE2yv/oOe7i7YcdUuXZwBbKmRw3RNCwSgvaaJbt4GIgjdU0lLDfGFTq7ORARsKtBeviUpAHjqKBPwxpPICHKx6UrgAkbzLSUQi/FiSJ+VBwL6LFpghcKu3/K1FdjWNTdBEMBNwnYnYlWbYk6jtrqfpACd83FElzKEuUO4EEwCtklerEo50nclO1QBTbFWuXmxykYB2zRyg/RaLRcg612VHixWy38/5rmduH3yYhedQnefhJBDIvixj3zEvuNbv9nqPLz5nbLNLm/a+tKK7azDZHe3I2bqrlpy34JFVunwck0W0K0BsPyOAJhPAFZALKAt5GGzHLORS9vLp19BW726K9f1llDprePjR7w1JYBNyScX1y/52Iota30nngmdAGoJ5i2wTdEZ1sFy9QMkKJNqialzTPsWqRDEbCteq1/vVbTndgFob+FzF5h1TyQsy1ylua8OlARgm0BWcFcb8Nf9bMElMVst66S5lulKWiYndistF9ATq6VwV+msUueI5AQxjIp+A7jyc62zDR5iHmBQFeiChN0IsUcB25FG1Xo5Rw4q61AroPdXjV5q+kbuQbdNwoD0/kiKUBCCQFSgK08GqQwDbAf2+7oKMoW2EcgKdPWpSQD9+0sZ+9SqerbvnunI+Kj95E/9pH3j137I1Hi+uFW0+SVAdnHZAxGKO9uv+si6V0HEXus0uffVbBeDBXD3xW7128FY0kHRAxg2VIPBPGdmZ2xx6eb28qtT6yidYwLSkoIiOH+d56cOMgUwdMi5m0mBM1GnbQS0WkYxicok26jFJcAt7BVds+Wxh+kqFghAexXjHMaqHkC293jC2WhN/qjMcZrkcgFL0spO0Kx3dkupjppuuNzkkpaG1WYzB6yWhpyAU00+yQQ6hoC3DujK71aAK6B1/1jQURFBYrnqwFJwQR8ywgiM+misZoMcSx1xYjSurvIyDcCqj1MBZHh5tI97GLC+zraKHhKzFYh3s51mgTCHd7AVMAto1bkmz4ZzhU77+MVuy8t/7A6f1Pw+MjpiH/+lj9tT7/9S98KY3S7bJfxaN5eWbY9OLw9EkAvXgRRQrwGmgFq9zvORfCBgkz6r2YGWTwGttFk6wXYAv0pXl+2U8nSAnXPN9GabbWio3yWE3Z1d2Giks0q3lcYPjeV0mpGWYLYOvhRIl7RYrOevYAix3zSuYNlsBrevNVtZWfNy4DuGP2+wQADaN5jkcBd0jyds8FTSOyIcIBUGC1A2QKdOmG2WDqd09gCUKNjSbzuJOsh2p+gc66BzDIYBE3UXHQBPQLsvsNUslqsOM0kIfLp8wPGd4QoJAUrek8svU5pG/hE6RU4Q0jkIMsa1HriFiBJtFrMTyAMDaAXOiPGxjYA2YrnOdmlxQmw8AEI67+XOMQAJguQaggIhPrnUZZ/dvbO1WjnxP/zoI/bRn/lpey+fO9jzkkJqFwlEWFy0PQUh7AFcgKY8Blx/FagCpvsuE0QAK0BrONDyWx1jsFsPWpBkQCfYDqyyyjM+/fIZK9DpeRiTsHRs7AjlKY0ng6LGkKB0rbBYHp1LBh4pxoaKHnSQpSDK40BabRwSoLByuQkmaY7lkDg21zcJplhh/0Bt3+yZBaB9M6sc4rIsvU6jj6Tp3UcCoMlfly+sGCmAqI4sdUhIIsjgv5qQaxcvhTrBMl0pwBYvBEA3iSeCXnwxEDXVBbQCVbFYB1tAoA7QOuvl2GWivSQvCGjlvSBJQmxZ7ITdLcP+Y/WKTfDSD/LScVpAlbwHnPw4UWZH5IlQ53o5grZXvgP+O3MVuCocmChiS4kJsYHLCAJbZgHwM/mUfWKl28qO8odo3EM6tCSeJ2CwP/PRf28P3HvSAxFm1vdsAfetLcJTi9vrdGDBYgWyMNl9AegBa1XTPAJa9fILbCPAbTJaga2AuQyb3ab2auBlcGHmki2vbB7S3USHVdTX5OQ4ZY7IQ7RWlSfXYtH71TrSdwdVyguw6iDrQQ4CWMpFne078cEVu1UEmhju8vKKra8d7nUfqlEO8eABaA/RuG926DTO/xOPZbzTqwZK1eWTCjCKkeo776KzXQFhRkleCHRIgFYpssPkeulIg+1IrxX1UHCBQE6AKgDUyyLwlm4bHQ+mwu8y/rYCW87gMoE62nR8uXcJGxUJpOZ+kuOMABDHePmHYDcQbDrMGnaM7Ub5bGg7lrk84CCvffU7AmAOCdjCwFnGVwdaUeg1QnJ/drXHFmuR/seqO2YSyH7o67/OPvITP2HTk0dtCxudW9l2d6udVUAWz4JSno4vNf/dewApwAEVJguo1viuUOo6szrC/Duf3gnG9gLaCi5XTS+DvSpeBrBZbxEcspW6urI2PjZC3oS8d4jlkAHk/lVEvhCoisEqMiyJpiVXLi0TsCZZVsIOyokgdis/3SSdY/K1XVpYsjXYbZhea4EAtK+1x6H/SiINTD6RtSQgKoCNdFQxUBggqKVggFe1VRgoBTmJt0GOUNiBUeLOc/jXArTKh6BJwQ8R0AoIAV9QT54IWiaGW0FGKNHxVi7oHDXXg92VzMEWQOT4+qcXW4ApwE0B1EcAgyn03kHAogcUH0fCGOOU8lSocB7wx69TwOsz+3Hpwn+Lsz2HhxGxDSvlCvanhbT9z0K3Vwi67jthEsg++dSX28cJqT2KNquQWjHZGXraHWS38ZHd23Em6+5arrkKWAFbNNl9mKEDrL4LbAWwYrh8uj57kKWrqMAEGUSBCS+ett38rQsGGJReS4juHp4OkqPKqixoDSkEl8KBf23K3Q3F0N3vmlBcabd6zhQdX9YJm5WnQjabduC9dHEW8L5193AnlKUAtLf4KSXQX6cA2gzd/pIMBK4q4JINBLA+iy3qO4XdGa7QD+F0ZCJpw5NpS+FX6+5flHT53KqzqykjSEKo4FfrHW0OuoAsSCegVerFWAe9yVDOOCxZIOsyguin2C3sU4AbheGyju/9NCUnYV3jAMQ04H0c+CQ+yHvbxcA5nYNnFO4bMVwHXv7oZeQQHuJbRXr47dSgPbN2Z3SKCSj/7of/nn3kx3/Uhgb6bQWf5Ysw2YW5JdteWYLJSpPF+V+dXpILnMUKZJlpDTQBVrpnBLgRw9VyuXE50CIXKLnMJh4jDXISXJqb9YQx3tK4ReVS55qcHHOmukvaRklPmnTdkp8EtjxGnyQPdOB/6OVGEgKMV8/f9Vo0KXkiZDJZylbcZi5eQv8lCi1MboEAtLe4ICRgsg60/Z0OquqIEKAKYKW30vqnkMMuAUnPQcAy/S7vEjAAMB5/POeMVoVdzTi5gwnOxGZ1HDFaAWuVWeCthDT6Lk8E5UhwLQ6g7aCjS9qvgFa6LW+U/9M3SQQCXUkKNY6Lk4J1wW5HaT6eAhSe4JijHFsMFmmZOkDn5bq5dgGrg6++6760nrmDDReGuuy3EgN28XxZp7ltJzHZb/nwt9m/I29BX0+PLZEX+NLKji0S579NtNfeZpTmcF/sz9kpEoCkAYzgn3xvCKhkFI4l8HJNVmxWgEzF5bkO6Pzao5leQONUjtkvfOGMV0632jBq+k9NHSXwpYhsUOS5USlzrboXSgplhDIGwKqsqJy5pEChUScZyq63XrROwQ0CW0kQ0n5nZxYIiLg5PsC32iY3+3wBaG+2Ra9xPIXfTjyWte4Rml8gkGYBkn8HkMQC9d0jvEAyeSPw0/aWAdCNfTv1VJf1HUn6NkpCk1AeROcc0TEE1s10inLpknTgIboca29XbkZ1Z7OeK5f9YnR2QVq8CShS62xKQKtgW1g0p/aXy31pubgExx8rVeyLybfwBHOfjs9LVmad2HDUwaZKQ/seLONwqkjiLHvhwSP2ycW07Szcni+g7PMdf/877cd+5IdxZe21Ve7v7Pwm2uMiGbjIJau8Bbs7rsdG4Hmgux4ArQBWgCupQIDlnwJYgbBAmbmqbFyAWhmg3cbA+57LAMngBnMZXKPIXddqZfgaHiJEl2sS4ApQBZxVKgZJCQpeUKuHR63amTIjdssny5TlS/faIVmB7xmCbNJkBStTTmZmZjyY5rou4i7eKADtLX+4MRt7NGV9U+o2Auj0F/ByFilY8/8AlJrlUMMIhM3Wz1etsFS3STrSjj5EDgH0QqVVzOSi3mGBZLQtzFUMltBcgZtcx9QZJq8DAa33KPO2KD+uXhJJCTE0Au1/eeaqNHZDDJcuAa18bwWa+i8XL4GqdNgHkCi+moioh3cq1kGFUOKYYrMicuxKJXHAcvmu5bE9dOIRAhi+bNr+4NN5K6zfXuGbYrIf+Iqn7Fd++ReRCwZsHZudJ2/B7IVZksOsEYxAghiCEbzpD5BKl3XtVeAKIEWtE32HCQJOOl7EcMVk0c3ZXkCr0ROUz2AHZlvt6bIFOtVmGcUAs7ZsEiMdHR1GZ80C+FQkXL/cv0ow0r29AmUjYrad5ERI4NLlbmpcrbwTMiRBKlOpq8JWPlux2hRAK922jEfDzOyCH69lN3cbnDgAbQsewvB9SRs4jjOUmu/+DxgTyjEJ/PyF409Td62SsnDpb0pW3ia6azRh97yf/KB04IvRZugcU9YvoaADNt8qZI+K3MXk7kXi7r1IPthd5RMJwchd6+c+kA9cTqD5D0nx4/il6K1pKP3MAQILZX21KgUABPAlSNNHbPgSpIQnFws2tUNvNctLHEAygvZwlgsoQ2admccKDdv6ukl7+sFR+6PfWIIl3h5gK1B86iu/0n7x4x+zI8NDrsmeW9y0uUuA7DKaLJ4FZfxkm+5br0oFEYMVk3X55oDROrPl5gWs8j7w7QWyAJdAtsDnLuGuVRokf/P5l7xSjQzcur9io0ePjomwenYulQMBrbTa6OnDaAFZpVLUfalmlm6rzjF+8E8sWJU3+i3LNZSOMn4pt8IC3gjqnG3XKQBtC55811jcjjxATDkA6R0LwljHM/1R+VWRjYBKmu3OYgWgVZw8BRmfq6kn0jZwVL3BeCQonSLM1oelEYsCoAXUzobZXq5e7t5FZ9ja6ZrlV8ixQBSaQLVDob8aaUFD4TAsjpHLVlKCOst0Xf4i0WSUzy+/Dq4ImnrwVddW4+XM9qVtiut410LeHrq4axOMCOHruI8q+7pWy7bgNmGngC6JchZ+8N32zG6H/cmvL9CD31qwVUXzrnc/ap/4xC/bPdPHbBlN9szcms0Dsturi+jjeBbAzJyRSmNVEIKAVRKBgBWQ9vG4+IykA+mzfNdyMd8DbbYZ/VXBb3abZ1XHZ/YiPrMrh+wzGz2w6/ubTqcZAmeEZn8JfVUeCFV/9t45RrPkMiHgcALUplwgxiuQFXWIQnf5DdgqkbiY8dbGFgENy14ZXd+V3F1bBaBtwfNMkN919GGSe3eBPCCYd0jBIqKmvBjBAbABVAIpsdnNS69GCQ0cS9jRd5PYAw8GZeNKkXTAwVVeDGIf2p+C74yY38V8lAdh+YW65WG1As2mJty8fU4FM+Ya0JDjSZqBYruE4WqUkw5+Q2LYgOOSdlEdaRLrdBwxVgH+8AQa30SXZTdLNv38ut0/l7cRziuSXOdPFaaL44F3ltkOevHXT9rS9zxgrzyzbX/4a4u2vfzq/TWv6VZ9juMf+yu/8kv2xHvfY5toss+fW7A5cq7uri05yGqQRG/yCzBdbz0AUennhDJLMpCWXgdYReW1LPIE4fOAzTpIA7BKGrON61OFDFhbxby9/PJZf1a36l6v5zwK0R0aGrQdZJIy8oZq/SjqEE2IgiKAdSmBQhG1hlRxKyxXUpPWUSYoHwJcMds0zD1NjgWx2o2N7bYE2wC011PybvI2apUP3s8QISNXAq3AUYUzKqDaRoBb2Kjb7F+R/Qn5oDkpL8Kx92WtZ4TRurQP4Mimvr9eeHksKBm1JnkhONASsLDwXJXUfTBWVolxeg8ycCkwf6vJr0lgy+zAC/MV8HZmOAcMWNEJuuYs+RimT/XZ2HGGTSHzl13YscnzW3Z8fs9G10uWRi92lstxIElWG83Y2o88bnujWXvp6Q379G/xEs7ferBNAAIf+4Wfs2/+pm8k/2vdXri4ZOdeIsn22jJ5ZHcAxghkI601AlV1/IitqpZpMlqBrbQR958VkxWjvcxmJRkoAozxv5ANNgVW3WmXDJTi8nab9DwnJsYdOBUW7L6/ul+uW/k0FBXmTSLKjsqdyqAKVQfNJJag0apzLOpAk2eMotAkIYgNr62skhth43a75UO/ngC0h27iNz9B0oe4iZpWHV2EPFJiI5YgNxlYARhMKllbeqFiO/NvfBmHTiZt7F04iAtkAU4HXBinqK3SJ+q9F8PwJp9cvvL7NvNZerxZp/dCjJY3J7o40eErptf9vGLNq1/lx2uw2zhjjyX6qtaRqVnvYNomp3vt1IMDluhO2uZW2cprRcuc37EjF5AUFvdseLdqOYC4Ab1d+ucPWeFvTVuNzrTZ83v2qd9cspnP7716kkP/1rDv/offja/sj9k2OvNzr8zahdNnYNdzVnGQlT4pjwFABqM4c9UnQCOwlfXcKwRQ8XUOsOrAFKNlBmjdhxa/WYXZymd2i574xlCfnb94kZDV2xdwBJBTx45yH/seOab7zdDBVYHh5vEfVlnVrCixBFFhFd0rdpJ+qwxhSjwkm6m+F6tN0WGmIXG0/cylOdveyR/6072dThCAtoVPQxptdx/JYk7QxCY1odhAk9GKpZY2Grb413Juf+NFphhaZvKL05bp0T4H+6mdzlEEppINxFjlzSDlbHe1bvPP4iMJZvhWAlvW+cR2zemKr81Fr/kUSKsp+eoeAG2Wsw4UyEBG5q+RrE1MdwO2/TYwhH8oALa9U7VdQLdju2L9G2UbWyhYPx10lW+Yss73jVqHdGRezIW5oj39uyv24tNqXr7mtIfwo0GSmIftt//Lf7Z0z4A98/JFO/OFF217cQZviHWG+IbNApANOfCrWUyHj8bUamBrrHrZAAJdtzNAJLB1gJV8IKCVbICeK5AVM87Te1+A2e2UC3bmzEVUBmrD23jqwSNCnggKy1UaTmmucv1yhqtyRWHoADw76ZmVtKJHJpcw/RZ7VblzxqvyCeIm2D9D9JiGN7+AJ4dCfdtlCkDbwict5trf12udfSDpUNHZoQqhgFPd9Btnara7cICMr7tOAd7gqYQN3yf5AHbhjFgbIQXgaqNS76QVxNILsfpKzdbO4icgpvwaNqt99IpE07UATue9cpvm72Q/5+wpeE/z6LEu6x9K2b2n+m18Mger3qcXm8TkwixG/M1o5Ah03RwdaFlmsWMNgS1MW18r25/+t2V74TO4UYkVHdKkc/7Gb37SPvhVX2V//sIFe+G5v7aNmfP4K6MXE/m1yVhf2zSby8gJinTqYgiXfoIX+voHrAMG51SNa/MrxCBRZ1gkKXhQghges+dA4DguGbBxA8lAuQzytzDM9p2YcHCwz1MqOtgSsKLOMQqUM3r3IvACINDlLJTbKHos8rFtjuChlWK1amHJEyGdIv08FdElmG0Jht8OUwDaFj5ld6cZH6E5lbB8Y9PqXfgr4gUgLlBcg4XO6sV96wtMkOFr9NGEdQ1JQGUvvchsL/9ZFXznFHyW0WUXnyfRM/KBGLMYmNb6FCHF5ZNcCaKXF17li86jfZS6MXUEVpOqWJZE5SMAbAZviIlj3Xbyvl4/r4ZLF3imAde+/hRDohB4oX/SNpkr8h3mc2O9Yn/5+6v2/B9peO6rGOAq13W1VWKhH/q6D9qvfuITNkvugj/+v5+xlbMv2/bcjK3Pz9nZJTrDNrdsDxDQCMSyl4Zx6cvmbJoRbu85OmlZPAbcx+7g/vcPnIa1vTNZ2KxHf0kywGNhWxotDHFta9POnZvh+RzY/2oXehusU6V/DAlBjDRPSkUxWxU0T4hEReKljG2cHACmqnl0Zw64/I4CHZAQWKhttFzygaLHdnZJMzm/2BY+tgFoW1iYpVvdd+o4BS9leTSrFYZA2SmSH5TCSkTmdU3p3g4bfhgNrBtYVTsNoNonW5a+yyOBL7byUsU2L6Kj6j04eBEE5z7xW2+Hlt/o1ATbToheYoQLp7NMiW/Gp7r8GnqRR0490G+DwxmYEEOZb5bpFCnYyGjOxvFU8GxknFyZxvSaCmzzSAvP/9mW/dnvrFh+440a9Y1eq/bLZFP265/8T/bIY19qf/Cpz9i5Zz9rO7OXbGnmon2eF38eNivt9U0n7Dna12eP33eKwQ5HuNeomazOH0kH0sSbkkGFrFg1gHYXySCP21SZWOYvvHA6amm86cFvz4UK0Z0gpWIZKUVuX/JAUGUl7wMfTZf7VqSYKnaXE1SZM3fgsqK+A2X1omB6uK6YrYZq6srlqJwhGHg2zBCqG1X+t+f934yrCkD7Dq0YMUQB2NtHqiNHBu2e41NcAcCSL9BJQCw9I6a+3UkaaQZ2ODies3gvafcaRGo5YyKoYMts9WWiktBteS8uTw60ByCrhTdw+ZePpS9NsE0wtHpqjCQr3FMX+XMnTvQIxp1pT05121HANwvTXaeTbBfttoshGoYAYMkoRRK3dPckradXUXM4zeOu9rn/s4771wJN87dvXz/IG/407ANf/qT9h5//BTt7adme+eM/ttULr9jm/Kw9f2nGzjEcjV/sG/a7cgEjLQwO2/sfuN8GBoesLiARkxXQyv2L5nUNuUBJZyQZbGDcDsJsX5Q3wx2aaKWfpDdy+SpScSiIQRVmGjlFOrYix1QA1DmmDi+NO+YVDpWOWKxLBZhPvt0ylZ51kgpKrYQMIL66tm6LjBp8N08BaG/w6WpwuoGBPh/Ko0yzcIdhQcruM3ngrH4V5FKtr5FEj09PWjeD/KnQKtP9BdLL7QK4lye2Uxy5xgi7FpBn6RG+9+Q0+mHdNgoMDsgLkN+sEjKqXvOI4V4+7pVfDq7zKpd75dbX/K57Sw2haw6oc6Rh3eTQPXFfvwP57nYJAkjSEYblGTuaY1gY8oBBrNUp55xHLIl/aYA4ycCU+W18WmG1n/m9FQDs5gCtmOcP/LMfsG/99u+ypz/9pzb3ymnbmruEM/28/fmZM5539Zo3ebDB+PCwffC978XjIoPLE9fHLC+FagmXKEBWw4xvkdegPtBrC2i/MzOL7HnQkrjek9wm24lQjIwMe3nd2YlCdDvxMCjjYyw5QU/HvWZgqXFmpYqUPSQ5dOCg7eu0Dek9xX4FtmK2eo/SzLOE6SqC7G6dAtC+jScrfUljJKk2Huzv8+GbFRmjGl7+ht45QOHSwHcFXjA5e3shZBn/YZmS9RgzrLfHRmCz0qlU4wtsFIWzdlCzK8lygk6DPnTADC/xOk7e29tXL4SjvAQnjk8AqkazfM22aJIVSPpSYHDAV19tvr36I7pzXdjBdMXX5qIb+lQAQ3oUl7UegTzD4eB9cPz+Pl6smLPYIlnEknhcHD/ZZ0fRcrOEEWtkXkkd0muVl6GKlrs8X7an/8e6nX1294au4612+tc//K/soQcfsb/+i8/aJgC4t7psp9Fn/+r0K5jnCtr/Vgc4WK7y8CQRZfcdm7Yy171fV6gtwSGAbJWUg2qd7NHxU9iv2OnT5+94LVIuXxMTY9x9w7N8VfGoEHPVFA3w6HDrv1WmQVTXZBXMoBaWZANNDZbrWC4roNcKaFVBXyBI5G7tHAtA64/+6n9Um09NTtpjj7+HkMIkzRya+ACZVCkVrY2NTT5pThIjn2S92KcKoBJzqHNELE3rVbAi7ZQsR0Jdlms7fRMAq3Nsj6ghpapLAOY6l4aCVo/vLHlQvYn2JpeqhMvTUxPOsHW8VWX+x3VGMepKw6ckzE0Q1QvQ/P4mh7ppixxsR2C2fXLyh9n2o0c/NIgskKBSIVoNLwSNbSb99sTJbuvtSfmIvync2jQWlaYa97K2XrM/+d1le/7T2PgtZNO3c9EpfDy/7/u+1yYGRuzi2XOwZpJ3MzT4mcVZe+70ac8R8XaOd3J62j74xBNWoFKtaSBGKt0KrZMCrE9esvIyeBFdVhXv3TB5SsVj467NqlwquYzKsVy+9LxU1lXGxVrVKRBT+afQeeSYkwoRC37ziN3DBsCV21dXVw75TEnVkYluc7e3G3mOAWivw2onT56whx96wAtQHqaygZ9lAQBTaKHybsqBu6e72+R3qEIi8JU/YcRWcYWhsGl5BaZagQVU5Md0gBoqnAJk1fYqxNpHzSmxZgGiALPKNpub2/TQLnFkenDZVusVR55jyGfNOt7g4KCfZ4WxmxQOqgKtyDAxK4FtpHOq6YaLVQYHcvZXZ8Ze/nD8GeVClRpkDLIhNS1JiAOonqRTbOhI1llrGU12j06vNDLB1HQXWi1hxSTKSfG7E8DVPw0MubZZsb/4X6v23B9u4JP6ztC2kw7I7/y2b7GTo0dtkY6vPC0RxBlb2Vm3Z7/wAsBOXgO5x13ndPzYlH3Dlz9lOwJs9Etps6XtbdugsqyTenBhackzc72xKXGdJ7gNN9OoDEOD/QBj3oHWM3lRWCUPCHC9Zeegqg6xqFMWmuHrBcIpWCyPFmCm8xSgbXaOaeEiA11ubb39forb0EyvuaQAtK8xxxt/yDPgfe973AvV3Nycg5eWubakTEY08U/de4oCV7GF+QUH0izNfYGrAFT+gpIQqvKpBGA9lJNC6ZFEFEyhqXwTlVKuBz9NjSoqhipmLKAUsGpkW0kL24CtCqiYroIdpHOJwUZgobDJCWfD61QEYtUOtAC83L10/nK1TG/wvnVlu6wn0+1Aq+vZpqLQMXa2yU5Fgu+bPSV76JwfoAJK1RhkssPuf2TQhglsUCKcMqw2T04Esd6xsZxN0FnW04NvMKxWDF/3X6Ajbwe54W/Qa5/93+uWX3sH14j9/vaHvsa+6MQJQHULaQVHfGzZ1Ze1zz33/2yD1sCFBUDTPSCubokaUsGTTz5pX/bux2xx5hJuXNiPBDTrW9tWQoPf5rckg7sJZGURlSuNoqtBGQW2Ig8UN4hCmu9lKu4ilXm0nVwX44w5pnImeUFEIguRqLGByq7GHdOsMF11jO3s5iEUK1c3/B24NgDtNR5aNy+MCpX8/UqAnfwCBwdxXO/p9mihqakpbxbNA8JKmiwm200zSOApYFVt3wRZsV8VLs0CYTFf1f7Hjx+z++875eBY5BjruBcJeAWzmsSGawCCYsx1jAqgruO6NMH+AvUh2OzQ0JCtr69R+KPxnwS22iYCbAo+RE2achr3JjFinUMvSA7g1TZbREPNzc574o/ozDfvr9itPBJi6bplB8jVcD8eCMdzvGAdvJxIHIBtEXY7QBjvyXux70A02J8kU+nOBeSGPHLD2Rd27S//+5rtLN+Yy5ds+fh7HrWveNcjsGnclbBdnXsfRXrJFzftxWeftiLucacvrtoGFVvTdq+3hDrVsjzn7//+f2p1tlu8cM6jyXY3N20bllbkfl8mMKFyCBXX66+lFb9FBDQEjty8BLbqsBWoKnKswvBH8rWV3i0XLu8co1LStsqHIH1WkTPgq5dxlQ216HJk+dIQ63O03K7V+duKe34n5wxAew3rRawqAsTmpmq69/d12z1ICkKqufl5r6lVW6vAiGnWYLLyN5TGWqbgqYPMwZXt5WWggqRjT09P2UPIEupY0HDNBQqqjtkPkAugBd7uuwg4O+DyWeV4WsdmDuyjo0c8CYgKufTiAs1WSQKKPReLEKD7xirYMAmdV4xczFg+q56NiZciy3hPNPDszIXzeEEcXs4BsR2laBw+lrSjp9I2NKVx0DpwhariV6lQz5gdncjR2Zi13n65C8F+YOUlcukWcflaXizZ0/911RZevrEBAHvojPzQFz9ug6msVfQssEUnobGTDzxom+uLtnj2WdI7ZmxmaRtPkEu2tYZkQeUmrd4lm1QCGxfsw9/1D+yJL3rCPveHf0Dyn2WGuNmwLSXxwWvizJkLDuTNMnM3fqpjeJyAGw3oqDKqyl/9AqqcmmWPJ83vqHWl75EXQiQjSDIQGGt7VbhZGPEmrarV1btvFN0AtDf4BkhPfQ/MSJrS0tIKbi843jOEh8BQICo2W2B00yI1tPRSgeLrp5GRIXv0kYf9GJtEIgnA4ad0DpCoA7Yp9ioPhBrJDjRirthRGUDWdpInJDEoI/44jFtamPwRt+mEKakjzM/JSQES6ZzN6xLIan99qlJQIVf4q4BD33NZAJ4XRu5qqhBuxsRhXzNdaQslxcn2x61nmGihPthOkqg4mGthC/a+17Dh8bTd+ygx98fSrJN9CNMlgOEzv7Nsy2duTFsWG33wvnvtieMnfABKhgOAaacsR4tg/IF3w2TXbXXuDMotsf37cVtDTthhGBuPIqkxYi3RXV/61Ffb13ztN9qz+OEuvPSCFWlJbAI2xVzazl2cQWe8uZ4SrzHgbfSjjxDy0bEoH0JJFTxlRzzVtVrsjIuB922oJaUKXRKRyoPKoHsjsIx6lUq/01tYi0vqyL37wnID0N5goVUH1LFjE56JSMlCxGaV4FhuSmpGlQBIge1bTQK1U6dOOFCePXve5QQdI2LFUUHUvgJtHUvp9MSIU4wR9q6HH8Ilig4lfGXlKibXMjHZLTph5GpWkawAMCtdohitd05ccSGpdOQsrgIuJ/Ii4K1Os+b0ToIwmse48vP1QHt5nVaA5Vc2E33R6/CdrSxN7t5kWpVEjFBQ5JN3GJqr0YPf+8B9dqJvgAon6b6wndg0iwQz8sBjjHyQs9UVkpJvM0aYtFci9uqFHVyREvbYl3yJTU+fwsf3z2zu88/Z9sKcbVEGikgyc6srtriw6pXW5fu8y79MTY172Y/8a9WSi/xqVZabeWz1XQDcrOiVoN69cHjgIgyq9KuUwQVsJ4nhbpsC0N7gE1WBkU51oxmIVKMrMkzMUS5dV05yb+qkc0AAI5BUZ1gTjCYnx+2ppz5gZ14hyii/a8ODA7CnbVuBdYlBa9TbMsxXDPZqk4Be2pjLGDeJuV79fG+xVsiq6QBcm/cZLTy8vzpPtitjDx8/bpO5LksRPxwnLLST5nAWmw5MnbL08KQhZMD2yeJFq6KLzp+x0UHrKO3Zy3/1l7Z0+kXbw6tgg1ZEntbMAiHU7QayekIaI0z5a/UkCwRrSNrSlFLYsUeO7QGqBxIBLYdOAhjUh6ERKiSzZbF7EvlmaYlx2SjDd+MUgLZFT9WBjkKmjrHrnYRJDz10P9rlEJmPLuF7iucAEoP8ZjcYKmR3j+FurgGw13uuQ9tOb+PrGOuhnesaBxbYKu/ByYkJG891Ww4ASKFTxwHUhNhtT6/lBo+QRrGfdICIyvjJ7jFI4xo5EQpr5GBAqtlBn9yCHc8vL/szkAbejpNy0ApsNWpuUcP+wE5VxqvYRy6MTckghoTgXWDICmo5ien2dPd4R+/d6G3QLAsBaJuWuAM+5QJzL2G2cg2T54EKslzHxIh3cam5mlRxB9xeyy4xjl3HyMo12tVj/fSc53BHSoh5yTUJ/baD9aJrShbj+QtohajDcZdOnm1U41l0+vxOpHG37CZugxOr4h8ZHXIXQ4+KlIRAi0y2UyeZSEXUgDlIeMSKHGw2QytCIOuZwW6D+ziMSwhAexhWPaRjyh2rl7BcNa8SsCixAbEy+djerW5Eh2TKNxxWmmEPth3s7bVB8kb0wLySMK5OBZ6ADorsU87ZCowtT0W3i464STN5ZXn1Nfr2Gw7cRgskDwwNk6WNYAZFjSnCURqtB+xgO2mvTW1WspvCyyUvrKzgG31ljo+70GYBaO+ghyoGq7kpD0gnFl14O/LDHXS7t/xSVWlprLUuPEi6ANssjDatyKUDfVFN4CJzntbELr7KezjXR508t/xSb+sTyuUri/wil0UFMwhsxWrV76DKShWXNFn1D2iwxrcKLb+tb/JtXlwA2rdpsLB5e1hADLY5smtTd1UF5zNud81l7WGNt3eXIgPSbOXyKL9jVUbRoJVUZBxKPuBFcj9I8mqShrd3hjtv6wC0d94zC1d8YIEpOlRmaNqH6fa0gAC36bOtHlC1GMRi5Umj7+00BaBtp6cd7jVYIFigJRYIQNsSs4eTBgsEC7STBQLQttPTDvcaLBAs0BILBKBtidnDSYMFggXayQIBaNvpaYd7DRYIFmiJBQLQtsTs4aTBAsEC7WSBALTt9LTDvQYLBAu0xAIBaFti9nDSYIFggXayQADadnra4V6DBYIFWmKBALQtMXs4abBAsEA7WSAAbTs97XCvwQLBAi2xQADalpg9nDRYIFignSwQgLadnna412CBYIGWWCAAbUvMHk4aLBAs0E4WCEDbTk873GuwQLBASywQgLYlZg8nDRYIFmgnCwSgbaenHe41WCBYoCUWCEDbErOHkwYLBAu0kwUC0LbT0w73GiwQLNASCwSgbYnZw0mDBYIF2skCAWjb6WmHew0WCBZoiQUC0LbE7OGkwQLBAu1kgQC07fS0w70GCwQLtMQCAWhbYvZw0mCBYIF2skAA2nZ62uFegwWCBVpigQC0LTF7OGmwQLBAO1kgAG07Pe1wr8ECwQItsUAA2paYPZw0WCBYoJ0sEIC2nZ52uNdggWCBllggAG1LzB5OGiwQLNBOFghA205PO9xrsECwQEssEIC2JWYPJw0WCBZoJwsEoG2npx3uNVggWKAlFghA2xKzh5MGCwQLtJMFAtC209MO9xosECzQEgsEoG2J2cNJgwWCBdrJAgFo2+lph3sNFggWaIkFAtC2xOzhpMECwQLtZIEAtO30tMO9BgsEC7TEAgFoW2L2cNJggWCBdrJAANp2etrhXoMFggVaYoEAtC0xezhpsECwQDtZIABtOz3tcK/BAsECLbFAANqWmD2cNFggWKCdLBCAtp2edrjXYIFggZZYIABtS8weThosECzQThYIQNtOTzvca7BAsEBLLBCAtiVmDycNFggWaCcL/H8ArYxFZ95JWAAAAABJRU5ErkJggg==;" parent="1" vertex="1">
          <mxGeometry x="1060" y="175" width="55.81" height="30" as="geometry" />
        </mxCell>
        <mxCell id="nHozH7aZE5zu8DyxtDVJ-72" value="" style="shape=image;verticalLabelPosition=bottom;labelBackgroundColor=default;verticalAlign=top;aspect=fixed;imageAspect=0;image=data:image/png,iVBORw0KGgoAAAANSUhEUgAAAbIAAAB0CAMAAADXa0czAAABDlBMVEX///8AAACGv/JrgNK73/LIi8Sfn5+cnJx/vPF9j9TY6/1pftKDwfTMjMO9lc22traEg87w8PBgYGBtbW0iIiKmpqb4+PjPz8/GxsaTk5Pp6enY2Nji4uJCQkLv7+98fHzKysobGxuDg4NUVFS+vr6/5PRISEg0NDRbW1s7OztoaGitra0QEBAqKipOTk6VlZVgd9DO1vXI4fnEgsD/8/6u1/KUx/KezfK91ey4w/Dv8v5YctGut9+MnNqYpt7i5vSvu+3V2vB5i9bAyOnM4/mtzu7etdvp9fvMmcjR6vby1PDImcXz4PLqxujVs9LNpcqxx+nfyt3cqdiOqt+bueTBv9/DsNjFpNGZqOjcntgUZ38XAAAPqElEQVR4nO2dCVviSBrHOSSJMrtMVAIEBEQ8EA9avNptx2671e4eZ3e2d67+/l9kq96qVOpKCCEKOvV/+nk6VK5K/fIedYC5XGq9TX+q0Vx09a93866C0XS6Lo+u5l0Ho2n0ZlQsX8+7EkZTCBErFkc/zbsaWvnzrsAC6ubjMiZWLJaL7z94866NrPpxd95VWChdfXh7XRyNykWq8qh8+/7NQgW1ilWZdxUWSd5blHWMyowYYoY+L7+/mXfFOBlkim4+/nUbmNmoeP1u0VyjQabVzXIZLOzjguHCMsgC3YkfrxGzsugPTx6esTrRMsioTpwV4bOHvOIb8ZDC+TPWJ1oGGZHnFApiyZvRslhw50hU5ySDjOjCKTgnYtGt6BZvEFSJ6mxqu77blmKl6/ptTZnL955FZG7bddtZVuuFyLvDPJxLoVDsjK0UsM4zC2e1qmUjWcNWWNau4DLLqnPHtYZQVm2yEh6ZX6lKe/8Weli5KzgAxClcruhSRO/m5JwcUXAuPmVBzatagexhYCR1OyirBlbl9W12WFAWIvPq4V43g1q9CD18QrgcigMTcZzzuxUeysPK2XmBOwJvX5xczZb8Y2LDbhOpj7ZswmyImr6CiroVVNRkx1X7uGzIDuOQ8Xutv4l3fLi8EHAAM0SEY/bp7txRDjk/my0RqVtW4Mq8pmWD/fQRMPoitAICCF6fHldDPpRsBcg8vJee0UTOcQG7kE8kZGg/BEiQiWn8nndzeR5Qw0BnH70aBs2P1YZo5iMkrNF928aoanxYYx8CZAgTt9e2ajNX6yVphQKLDlMPkKAoWWVKCciIKoKZtHD7e5ZwWHBEgKxqVbm9yEgzqdrLEaSDYtG9+PEEMXMyGh5GjlGyibbGSlqh+8Rq0mhGkaEz+L2+ePDfQA+oXyYGg9OxxOxcb2OpQghOGOutVngywqPMXDYti794wIgiq1k2vnu3TmVZ3TQ1eRF6WFrSOMA7mcfn0vhUPM/R9aS/LH1JUQe3Cuk5ShrqJNNDLa6k6V3RfXqWgKwOsa8SdgyE7txr0sP2EpKmmX8QP34dl0rfxKI7NU2MvNpE+XVCzbIh66uLFgWKR9YHZL7NpJrpq5D3ZYlqQocYEyuVfo73eomvFqFWrY57VDiLQI6xJe9uiom7hIw4xteusImRtiOb2Xv85TsQK5XG919PIw9LdrVJdapbdgtyfDX9sAWMEjLfViG/Oj0sidI18+njvz+PKS8CbVz6jxbblwRXS6Qq5A1DMcnHRVKSLyGTkvzXuO5KBkYcmuT5Tr/efxeIAbNvv0jMvAcZGIS0xMmjx7cvSfWQ0VTY+a5t47Ku0BeQkQkd7Vz9+NV1pX/VEdMax+nj/eeA2rh0/1/FxDwdL6yzpN22qs0GftngFeoLD8MBKxuc3jAcsFKR4Z5CsNcbvsIc//b21+2Ilv6iurTTbwTao3ohrYGBLhJPgeJB3krN9Vtuq2JRj4iHDK1uu+X7fZsSI8PCNZd+kJGRve1W269bFmejr0XL5fLyWRQ0TRy6x8yUVog0MASsUEg+a90nvTKiYAweT7SQf2wgwyX9LmCkIEO2RfsJlvUaO2XL5WK5/L+lKGhqIEJeUbIx7yHy7O0zPOU2xUIDr0lg2NVueGO/D8iqNT4RQcfZJAupHoO5Vey6sBcjq7/GqReyyq34W6SVyP7xcSz1pKMNbHuJzIBOtzbE85vNpqeWya3vtShCr8n/F+xFF5GXHrwSLZPFpOXbu0hTkfzjdz7viPGI4BML0yMzmiCKDHnH68iQps1EQF+iT1k6Cyc/DbIstRx+MyIupGk7V9ExDAWxc8cgexot81+NKP6W1DtixfnEc36NgUGWqXhkxeJoOSakiQPzXoxPvCgIMsgylYgsPqTxzLxoYGcFxyB7QknI4kMaxyyy9312LgEzyDKWgiw2pLF4FmmJKjCDLGNpkMWFNDqrH5V5XKi8DLKspUVWLI+u9d5xG07STtjQ0SmD7KmlR4ZD2m9aaOAadTt0QcwgewpFIcNjWLppGWxmWiO7iAJmkGWsaGQ4pGkS/gedkW3rg5hB9hSKQ4ZCmprwb6tdssggZpA9hWKRYWhKwi/7xW1tYm+QPZkmINNMy8iRLCaIGWRPoYnIlJAm9snOJvEyyLJWAmTSGBaHb1IQM8ieQkmQRYxhTQ5iBtlTKBky7UqD2MTeIHsyJUVWLP/45yUP7fd//mCQzUWJkRV//EfpjyCQbX/8PDbI5qSpkJVKvy9tI13+OS6VDLI5aUpk49Kff/zxMyzyNsjmpCmRcTLI5iSD7MVpUZG163Zvf3W/Y/ez/k5fs4JEVmXW0Bb9XlM93Hwi4fsqP2uSRouJrL6VD7WRyYMyHeNrkgX++3iT0MM33M30PrIsfLMsfgVtEZE1d/KiNrP8cUw7bLo1tLVOSlfxu5HhXVRVw/djNi0gskpe1X4Gj0plkGWOjBHb3do7Ogw+7GTwrEQGWdbIWgTRGv3yWLu/QQsyeFiQQZY1sj38ZAf81/uo2XUzeFosgyxjZE3A42vKssrnDLKMkTXwg8k/adQHZhn9gIdBljEy6JApv2gE8ayRwePmDLLMkQ3wgymlQ1x6pB7ttX03rhVcX/2KewJkbvxVPd1l5Wopha8W2a4WGUkjYdMbDAYb8OTN3joUH3a0LrPVGJC85Uj8Fe8JyPxjctrmvr7/Xu+sx+73bTpyM2iIP7eqIvN20LMcdrSXidGiIRuo2QdWCwu2XHqAz49pHSrDg609bne+w10xFpnX4U9Tf5Z4eMDvbyhG46/x+3f4d0lFBs86vTdeNGT7k6IWIGvSjCTUnth6trQ7XxF3RSBrSWcdii+PP5D2H0j2rdyW600qyDbSEVs4ZPBg+W70AYCsrw5qrfPRg9nK5mawdRzsi0Z2JBODlyNUU92dF4as19T9GwySjAzcQJqey6Iha5Mn7UXGaUC2Cq94A/8Ij9ulfLinb5ASCCZesyE2bjSyAUSpTteFs6gLDO2MAt2tYg/tV6hj5iIarYh4AWZGEjJwJ5tp0pFFQ8Z8Syfi96fc4P3thUUkbrE43oWPq6w5vH2+8aORYW2Fd+1Jb8KhhKi2KTId6i8QVEtEBga5mWouZuGQ5cK0YnffUic4A2RCakDe78CJHQoAsYAZjSuxyISRzKFgnT3hHlhtuFHQ93Dzym0FLy8g60kWPI0WDxlpX6bN1arQs3ZlGwOBndEZmgrfkFTg8sh14pBJZ4FL3STbbb75c5qynuYCfBmPjPjqlL+BvIDIcsP1vCh+Xpog25RO8fMhiB3ZGnJ0yIuMg8UhkxsRzKgeniZPJ4AdrpJt7QXWw7pwyI4Vg51Gi4gMGcqRBG29G+wiyKryGR3mw1zN257zcCGZc4tBpkzwVMLSDa1drDMOde0FgCnps4TIhhqDnUKLiQxnZJ0NsdtKdxBkSmrSZC0GBqV0gvE7cAANFoOsq1QDlx7ijXbInBfYC/TjwQcqwzDwqgxgkyEjxNL/HOuiIoPn9ft2mIzQjpUbNoJwLOYL2R3Eic6wKmi4w4wkBpmacm8FB3dDz8qrxmqmHxyFV4XcLUBGBgFmWM21yMhAXtDvor4fkGnG5cCM8IaYvQiCK0QjO1Cv2gtID/VW6DLjxhuagesGe1Uosnp+Nrf4ApAhuWRUYYt84CyOFzMTOQxy6uIDY0Y/1KtaAelj1vSCwLhxxcADrkZcAPwlICNmmQ+cdCq9BGRBNwae0tV7KNI3xUdspLayLfWq1aDFQ2sRtUlRAzLNOjB2AbrF6rI3fStQLRiytt9u6zqYkJlBxJ5oZRB+ujWNuhPSDzVChlZmRVhZYP5RVmaLyEA96DsoSW9SLY8WCtmA+S9RDfaQbsTrjPML6K0xc4tQTPqhHtwJSA3ZOyMIEkkWyzQr91gwDJF1aDxL/deE3pUT2llaZHF/ylMRtJzmr2dWmG0BskPlAHjLYQj2mL3XesUgU+17J+APHk2dFILGt4UjRQ1YcYAMp04AMv36o6u/RomgpUPmFD5NUxk74mWFlzzsKatvKCThMIpVj6Au3EKPTFn8H/bAXX0j95hXaGjN0A+fhyIjve1dVt10uknkHdMgc5zL6apSi3AZPdYgBJnytFxXmNkbrzDUxCBTzqqGtnWkM15Amg9rriQwjfD9qXLE6NTbLH/d5E1xsqGlQOZcTP3Hyza1TZc7YP6FDgtLwx/NsO1Ix6wr7of+Kwn4cWOM0lmECHGXQx2SRuDpgprXoi8AyFgQJgBn+iLMu4necWpkznmK5P6YfxeZoGlIWkyRSX0ocDQ09Yf3XYp2B2EDxU6+iMFon2tl0vpimkdeFDq8C9ddFy+wGhq3PMW5FT5SWk0MaVMic5ypghgTvKzSUg7CkbzBwXyZkDQeCe29pRjEEedMY5Ed8vclvcHAS4uzZ1hN8fWC12KDv8AafwEJWcTw9nS6uY0NaVMhc5yzlLUIFliEf5y4PuAZsVnpAYt4dHqYRQYyjXXIJjdauzzR+Fnp8Co++ZZbmCWS4c6OuJiDG8YgNT/ostuSelv84RzQvvBCpFVsSJsGWYogxjQMGm937bhq94LFbYGnA2SkNbeGzVara9FlT1wGTlYS5HeqtVarOaQjy0GYiVlhBXaya3fxWfS+nLF65M3Idyrotv0enWfgZr1oTrhr87cVoxdvgx3+sdLrfbR3TI7MKcw0QiWvdyM2FTwsGbCylAOEAZG6egE2dB6NrKcuoRLcq7urXlaYp6yq+9fEncJfV4YhnRkyfarokJYUmVM4mXybWLXkL97yJuSSj3LrSEt3W1LrcgsOo5FZuZp0Vbnv3JH2b0md7+6mdAAXq9Slp7Nn+lQfIkJaQmTO3exVyHVXhQfvcS1DkeVa/CHqst3ccDdiP4cMZ4R0xgX7wS66eo87a00NNE3+rhuaSS+Lh9bjk3hLQUbTqizW6X/UhrREyGYJYoLcSm9vd31zfXevJ76GATKUH1j76IjDnU7EdGHzeFW3v9/pdNZIM1XRZpBHokJ4Mdzh2ga672BtqF+U59P9+3ZE5lBr4IofHvX6Iot6eF+mHirrzJg1Enm6kJYA2YxBLJFCZEaCbq4VaBORzR7Eksggi5QS0iYhc+6e5a+VGmQxeiuGtHhkU02xzCKDLE5XP/HeMQ7ZcwQxKoMsXnxIi0bmOM8RxKgMskl6UxxNQpZZYp9IBtlkvaUrDSKQPVsQozLIEoiGNC2yKdcJZCCDLJFgpYEGmeOcPUtiz8sgSygU0lRkzxvEqLytra2jTMZ4Xr3eK8jSrBMwek5dfRsLyL7Ou0JGk/X4mUEb/zLvyhgl09cSQBt/O513TYwS6+u379/vH+ddCyOjF6D/A8TZqXeebVrNAAAAAElFTkSuQmCC;" parent="1" vertex="1">
          <mxGeometry x="1500" y="175" width="112.24" height="30" as="geometry" />
        </mxCell>
        <mxCell id="nHozH7aZE5zu8DyxtDVJ-73" value="" style="endArrow=none;html=1;rounded=0;exitX=0;exitY=0.25;exitDx=0;exitDy=0;entryX=1;entryY=0.164;entryDx=0;entryDy=0;entryPerimeter=0;" parent="1" target="nHozH7aZE5zu8DyxtDVJ-3" edge="1">
          <mxGeometry width="50" height="50" relative="1" as="geometry">
            <mxPoint x="40" y="230" as="sourcePoint" />
            <mxPoint x="1670" y="230" as="targetPoint" />
          </mxGeometry>
        </mxCell>
        <mxCell id="nHozH7aZE5zu8DyxtDVJ-74" value="" style="shape=table;startSize=0;container=1;collapsible=0;childLayout=tableLayout;strokeColor=#B0B0B0;dashed=1;" parent="1" vertex="1">
          <mxGeometry x="40" y="280" width="1650" height="600" as="geometry" />
        </mxCell>
        <mxCell id="nHozH7aZE5zu8DyxtDVJ-112" style="shape=tableRow;horizontal=0;startSize=0;swimlaneHead=0;swimlaneBody=0;strokeColor=inherit;top=0;left=0;bottom=0;right=0;collapsible=0;dropTarget=0;fillColor=none;points=[[0,0.5],[1,0.5]];portConstraint=eastwest;" parent="nHozH7aZE5zu8DyxtDVJ-74" vertex="1">
          <mxGeometry width="1650" height="40" as="geometry" />
        </mxCell>
        <mxCell id="nHozH7aZE5zu8DyxtDVJ-113" value="Documentação" style="shape=partialRectangle;html=1;whiteSpace=wrap;connectable=0;strokeColor=inherit;overflow=hidden;fillColor=none;top=0;left=0;bottom=0;right=0;pointerEvents=1;" parent="nHozH7aZE5zu8DyxtDVJ-112" vertex="1">
          <mxGeometry width="275" height="40" as="geometry">
            <mxRectangle width="275" height="40" as="alternateBounds" />
          </mxGeometry>
        </mxCell>
        <mxCell id="nHozH7aZE5zu8DyxtDVJ-114" style="shape=partialRectangle;html=1;whiteSpace=wrap;connectable=0;strokeColor=inherit;overflow=hidden;fillColor=none;top=0;left=0;bottom=0;right=0;pointerEvents=1;" parent="nHozH7aZE5zu8DyxtDVJ-112" vertex="1">
          <mxGeometry x="275" width="275" height="40" as="geometry">
            <mxRectangle width="275" height="40" as="alternateBounds" />
          </mxGeometry>
        </mxCell>
        <mxCell id="6RKZ_3p5JFmJuiaVcuDi-31" value="https://encurtador.com.br/gmzK0" style="shape=partialRectangle;html=1;whiteSpace=wrap;connectable=0;strokeColor=inherit;overflow=hidden;fillColor=none;top=0;left=0;bottom=0;right=0;pointerEvents=1;" parent="nHozH7aZE5zu8DyxtDVJ-112" vertex="1">
          <mxGeometry x="550" width="275" height="40" as="geometry">
            <mxRectangle width="275" height="40" as="alternateBounds" />
          </mxGeometry>
        </mxCell>
        <mxCell id="nHozH7aZE5zu8DyxtDVJ-115" value="" style="shape=partialRectangle;html=1;whiteSpace=wrap;connectable=0;strokeColor=inherit;overflow=hidden;fillColor=none;top=0;left=0;bottom=0;right=0;pointerEvents=1;" parent="nHozH7aZE5zu8DyxtDVJ-112" vertex="1">
          <mxGeometry x="825" width="275" height="40" as="geometry">
            <mxRectangle width="275" height="40" as="alternateBounds" />
          </mxGeometry>
        </mxCell>
        <mxCell id="6RKZ_3p5JFmJuiaVcuDi-40" value="https://encurtador.com.br/klsRZ" style="shape=partialRectangle;html=1;whiteSpace=wrap;connectable=0;strokeColor=inherit;overflow=hidden;fillColor=none;top=0;left=0;bottom=0;right=0;pointerEvents=1;" parent="nHozH7aZE5zu8DyxtDVJ-112" vertex="1">
          <mxGeometry x="1100" width="275" height="40" as="geometry">
            <mxRectangle width="275" height="40" as="alternateBounds" />
          </mxGeometry>
        </mxCell>
        <mxCell id="nHozH7aZE5zu8DyxtDVJ-116" style="shape=partialRectangle;html=1;whiteSpace=wrap;connectable=0;strokeColor=inherit;overflow=hidden;fillColor=none;top=0;left=0;bottom=0;right=0;pointerEvents=1;" parent="nHozH7aZE5zu8DyxtDVJ-112" vertex="1">
          <mxGeometry x="1375" width="275" height="40" as="geometry">
            <mxRectangle width="275" height="40" as="alternateBounds" />
          </mxGeometry>
        </mxCell>
        <mxCell id="Q3NzAb_6QXpIOXe42pcN-1" style="shape=tableRow;horizontal=0;startSize=0;swimlaneHead=0;swimlaneBody=0;strokeColor=inherit;top=0;left=0;bottom=0;right=0;collapsible=0;dropTarget=0;fillColor=none;points=[[0,0.5],[1,0.5]];portConstraint=eastwest;" vertex="1" parent="nHozH7aZE5zu8DyxtDVJ-74">
          <mxGeometry y="40" width="1650" height="40" as="geometry" />
        </mxCell>
        <mxCell id="Q3NzAb_6QXpIOXe42pcN-2" value="Tutorial/Learn" style="shape=partialRectangle;html=1;whiteSpace=wrap;connectable=0;strokeColor=inherit;overflow=hidden;fillColor=none;top=0;left=0;bottom=0;right=0;pointerEvents=1;" vertex="1" parent="Q3NzAb_6QXpIOXe42pcN-1">
          <mxGeometry width="275" height="40" as="geometry">
            <mxRectangle width="275" height="40" as="alternateBounds" />
          </mxGeometry>
        </mxCell>
        <mxCell id="Q3NzAb_6QXpIOXe42pcN-3" style="shape=partialRectangle;html=1;whiteSpace=wrap;connectable=0;strokeColor=inherit;overflow=hidden;fillColor=none;top=0;left=0;bottom=0;right=0;pointerEvents=1;" vertex="1" parent="Q3NzAb_6QXpIOXe42pcN-1">
          <mxGeometry x="275" width="275" height="40" as="geometry">
            <mxRectangle width="275" height="40" as="alternateBounds" />
          </mxGeometry>
        </mxCell>
        <mxCell id="Q3NzAb_6QXpIOXe42pcN-4" value="https://encurtador.com.br/iDIS3" style="shape=partialRectangle;html=1;whiteSpace=wrap;connectable=0;strokeColor=inherit;overflow=hidden;fillColor=none;top=0;left=0;bottom=0;right=0;pointerEvents=1;" vertex="1" parent="Q3NzAb_6QXpIOXe42pcN-1">
          <mxGeometry x="550" width="275" height="40" as="geometry">
            <mxRectangle width="275" height="40" as="alternateBounds" />
          </mxGeometry>
        </mxCell>
        <mxCell id="Q3NzAb_6QXpIOXe42pcN-5" style="shape=partialRectangle;html=1;whiteSpace=wrap;connectable=0;strokeColor=inherit;overflow=hidden;fillColor=none;top=0;left=0;bottom=0;right=0;pointerEvents=1;" vertex="1" parent="Q3NzAb_6QXpIOXe42pcN-1">
          <mxGeometry x="825" width="275" height="40" as="geometry">
            <mxRectangle width="275" height="40" as="alternateBounds" />
          </mxGeometry>
        </mxCell>
        <mxCell id="Q3NzAb_6QXpIOXe42pcN-6" style="shape=partialRectangle;html=1;whiteSpace=wrap;connectable=0;strokeColor=inherit;overflow=hidden;fillColor=none;top=0;left=0;bottom=0;right=0;pointerEvents=1;" vertex="1" parent="Q3NzAb_6QXpIOXe42pcN-1">
          <mxGeometry x="1100" width="275" height="40" as="geometry">
            <mxRectangle width="275" height="40" as="alternateBounds" />
          </mxGeometry>
        </mxCell>
        <mxCell id="Q3NzAb_6QXpIOXe42pcN-7" style="shape=partialRectangle;html=1;whiteSpace=wrap;connectable=0;strokeColor=inherit;overflow=hidden;fillColor=none;top=0;left=0;bottom=0;right=0;pointerEvents=1;" vertex="1" parent="Q3NzAb_6QXpIOXe42pcN-1">
          <mxGeometry x="1375" width="275" height="40" as="geometry">
            <mxRectangle width="275" height="40" as="alternateBounds" />
          </mxGeometry>
        </mxCell>
        <mxCell id="nHozH7aZE5zu8DyxtDVJ-117" style="shape=tableRow;horizontal=0;startSize=0;swimlaneHead=0;swimlaneBody=0;strokeColor=inherit;top=0;left=0;bottom=0;right=0;collapsible=0;dropTarget=0;fillColor=none;points=[[0,0.5],[1,0.5]];portConstraint=eastwest;" parent="nHozH7aZE5zu8DyxtDVJ-74" vertex="1">
          <mxGeometry y="80" width="1650" height="40" as="geometry" />
        </mxCell>
        <mxCell id="nHozH7aZE5zu8DyxtDVJ-118" value="Studio/Playground" style="shape=partialRectangle;html=1;whiteSpace=wrap;connectable=0;strokeColor=inherit;overflow=hidden;fillColor=none;top=0;left=0;bottom=0;right=0;pointerEvents=1;" parent="nHozH7aZE5zu8DyxtDVJ-117" vertex="1">
          <mxGeometry width="275" height="40" as="geometry">
            <mxRectangle width="275" height="40" as="alternateBounds" />
          </mxGeometry>
        </mxCell>
        <mxCell id="nHozH7aZE5zu8DyxtDVJ-119" value="" style="shape=partialRectangle;html=1;whiteSpace=wrap;connectable=0;strokeColor=inherit;overflow=hidden;fillColor=none;top=0;left=0;bottom=0;right=0;pointerEvents=1;" parent="nHozH7aZE5zu8DyxtDVJ-117" vertex="1">
          <mxGeometry x="275" width="275" height="40" as="geometry">
            <mxRectangle width="275" height="40" as="alternateBounds" />
          </mxGeometry>
        </mxCell>
        <mxCell id="6RKZ_3p5JFmJuiaVcuDi-32" value="&lt;b&gt;Generative AI Studio&lt;/b&gt;" style="shape=partialRectangle;html=1;whiteSpace=wrap;connectable=0;strokeColor=inherit;overflow=hidden;fillColor=none;top=0;left=0;bottom=0;right=0;pointerEvents=1;" parent="nHozH7aZE5zu8DyxtDVJ-117" vertex="1">
          <mxGeometry x="550" width="275" height="40" as="geometry">
            <mxRectangle width="275" height="40" as="alternateBounds" />
          </mxGeometry>
        </mxCell>
        <mxCell id="nHozH7aZE5zu8DyxtDVJ-120" value="" style="shape=partialRectangle;html=1;whiteSpace=wrap;connectable=0;strokeColor=inherit;overflow=hidden;fillColor=none;top=0;left=0;bottom=0;right=0;pointerEvents=1;" parent="nHozH7aZE5zu8DyxtDVJ-117" vertex="1">
          <mxGeometry x="825" width="275" height="40" as="geometry">
            <mxRectangle width="275" height="40" as="alternateBounds" />
          </mxGeometry>
        </mxCell>
        <mxCell id="6RKZ_3p5JFmJuiaVcuDi-41" style="shape=partialRectangle;html=1;whiteSpace=wrap;connectable=0;strokeColor=inherit;overflow=hidden;fillColor=none;top=0;left=0;bottom=0;right=0;pointerEvents=1;" parent="nHozH7aZE5zu8DyxtDVJ-117" vertex="1">
          <mxGeometry x="1100" width="275" height="40" as="geometry">
            <mxRectangle width="275" height="40" as="alternateBounds" />
          </mxGeometry>
        </mxCell>
        <mxCell id="nHozH7aZE5zu8DyxtDVJ-121" style="shape=partialRectangle;html=1;whiteSpace=wrap;connectable=0;strokeColor=inherit;overflow=hidden;fillColor=none;top=0;left=0;bottom=0;right=0;pointerEvents=1;" parent="nHozH7aZE5zu8DyxtDVJ-117" vertex="1">
          <mxGeometry x="1375" width="275" height="40" as="geometry">
            <mxRectangle width="275" height="40" as="alternateBounds" />
          </mxGeometry>
        </mxCell>
        <mxCell id="nHozH7aZE5zu8DyxtDVJ-124" style="shape=tableRow;horizontal=0;startSize=0;swimlaneHead=0;swimlaneBody=0;strokeColor=inherit;top=0;left=0;bottom=0;right=0;collapsible=0;dropTarget=0;fillColor=none;points=[[0,0.5],[1,0.5]];portConstraint=eastwest;" parent="nHozH7aZE5zu8DyxtDVJ-74" vertex="1">
          <mxGeometry y="120" width="1650" height="40" as="geometry" />
        </mxCell>
        <mxCell id="nHozH7aZE5zu8DyxtDVJ-125" value="ZeroShot Prompt" style="shape=partialRectangle;html=1;whiteSpace=wrap;connectable=0;strokeColor=inherit;overflow=hidden;fillColor=none;top=0;left=0;bottom=0;right=0;pointerEvents=1;" parent="nHozH7aZE5zu8DyxtDVJ-124" vertex="1">
          <mxGeometry width="275" height="40" as="geometry">
            <mxRectangle width="275" height="40" as="alternateBounds" />
          </mxGeometry>
        </mxCell>
        <mxCell id="nHozH7aZE5zu8DyxtDVJ-126" style="shape=partialRectangle;html=1;whiteSpace=wrap;connectable=0;strokeColor=inherit;overflow=hidden;fillColor=none;top=0;left=0;bottom=0;right=0;pointerEvents=1;" parent="nHozH7aZE5zu8DyxtDVJ-124" vertex="1">
          <mxGeometry x="275" width="275" height="40" as="geometry">
            <mxRectangle width="275" height="40" as="alternateBounds" />
          </mxGeometry>
        </mxCell>
        <mxCell id="6RKZ_3p5JFmJuiaVcuDi-33" style="shape=partialRectangle;html=1;whiteSpace=wrap;connectable=0;strokeColor=inherit;overflow=hidden;fillColor=none;top=0;left=0;bottom=0;right=0;pointerEvents=1;" parent="nHozH7aZE5zu8DyxtDVJ-124" vertex="1">
          <mxGeometry x="550" width="275" height="40" as="geometry">
            <mxRectangle width="275" height="40" as="alternateBounds" />
          </mxGeometry>
        </mxCell>
        <mxCell id="nHozH7aZE5zu8DyxtDVJ-127" value="" style="shape=partialRectangle;html=1;whiteSpace=wrap;connectable=0;strokeColor=inherit;overflow=hidden;fillColor=none;top=0;left=0;bottom=0;right=0;pointerEvents=1;" parent="nHozH7aZE5zu8DyxtDVJ-124" vertex="1">
          <mxGeometry x="825" width="275" height="40" as="geometry">
            <mxRectangle width="275" height="40" as="alternateBounds" />
          </mxGeometry>
        </mxCell>
        <mxCell id="6RKZ_3p5JFmJuiaVcuDi-42" style="shape=partialRectangle;html=1;whiteSpace=wrap;connectable=0;strokeColor=inherit;overflow=hidden;fillColor=none;top=0;left=0;bottom=0;right=0;pointerEvents=1;" parent="nHozH7aZE5zu8DyxtDVJ-124" vertex="1">
          <mxGeometry x="1100" width="275" height="40" as="geometry">
            <mxRectangle width="275" height="40" as="alternateBounds" />
          </mxGeometry>
        </mxCell>
        <mxCell id="nHozH7aZE5zu8DyxtDVJ-128" style="shape=partialRectangle;html=1;whiteSpace=wrap;connectable=0;strokeColor=inherit;overflow=hidden;fillColor=none;top=0;left=0;bottom=0;right=0;pointerEvents=1;" parent="nHozH7aZE5zu8DyxtDVJ-124" vertex="1">
          <mxGeometry x="1375" width="275" height="40" as="geometry">
            <mxRectangle width="275" height="40" as="alternateBounds" />
          </mxGeometry>
        </mxCell>
        <mxCell id="6RKZ_3p5JFmJuiaVcuDi-6" style="shape=tableRow;horizontal=0;startSize=0;swimlaneHead=0;swimlaneBody=0;strokeColor=inherit;top=0;left=0;bottom=0;right=0;collapsible=0;dropTarget=0;fillColor=none;points=[[0,0.5],[1,0.5]];portConstraint=eastwest;" parent="nHozH7aZE5zu8DyxtDVJ-74" vertex="1">
          <mxGeometry y="160" width="1650" height="40" as="geometry" />
        </mxCell>
        <mxCell id="6RKZ_3p5JFmJuiaVcuDi-7" value="OneShot Prompt" style="shape=partialRectangle;html=1;whiteSpace=wrap;connectable=0;strokeColor=inherit;overflow=hidden;fillColor=none;top=0;left=0;bottom=0;right=0;pointerEvents=1;" parent="6RKZ_3p5JFmJuiaVcuDi-6" vertex="1">
          <mxGeometry width="275" height="40" as="geometry">
            <mxRectangle width="275" height="40" as="alternateBounds" />
          </mxGeometry>
        </mxCell>
        <mxCell id="6RKZ_3p5JFmJuiaVcuDi-8" style="shape=partialRectangle;html=1;whiteSpace=wrap;connectable=0;strokeColor=inherit;overflow=hidden;fillColor=none;top=0;left=0;bottom=0;right=0;pointerEvents=1;" parent="6RKZ_3p5JFmJuiaVcuDi-6" vertex="1">
          <mxGeometry x="275" width="275" height="40" as="geometry">
            <mxRectangle width="275" height="40" as="alternateBounds" />
          </mxGeometry>
        </mxCell>
        <mxCell id="6RKZ_3p5JFmJuiaVcuDi-34" value="Com o uso dos campos &lt;b&gt;Context&lt;/b&gt; e &lt;b&gt;Examples&lt;/b&gt;" style="shape=partialRectangle;html=1;whiteSpace=wrap;connectable=0;strokeColor=inherit;overflow=hidden;fillColor=none;top=0;left=0;bottom=0;right=0;pointerEvents=1;" parent="6RKZ_3p5JFmJuiaVcuDi-6" vertex="1">
          <mxGeometry x="550" width="275" height="40" as="geometry">
            <mxRectangle width="275" height="40" as="alternateBounds" />
          </mxGeometry>
        </mxCell>
        <mxCell id="6RKZ_3p5JFmJuiaVcuDi-9" value="" style="shape=partialRectangle;html=1;whiteSpace=wrap;connectable=0;strokeColor=inherit;overflow=hidden;fillColor=none;top=0;left=0;bottom=0;right=0;pointerEvents=1;" parent="6RKZ_3p5JFmJuiaVcuDi-6" vertex="1">
          <mxGeometry x="825" width="275" height="40" as="geometry">
            <mxRectangle width="275" height="40" as="alternateBounds" />
          </mxGeometry>
        </mxCell>
        <mxCell id="6RKZ_3p5JFmJuiaVcuDi-43" style="shape=partialRectangle;html=1;whiteSpace=wrap;connectable=0;strokeColor=inherit;overflow=hidden;fillColor=none;top=0;left=0;bottom=0;right=0;pointerEvents=1;" parent="6RKZ_3p5JFmJuiaVcuDi-6" vertex="1">
          <mxGeometry x="1100" width="275" height="40" as="geometry">
            <mxRectangle width="275" height="40" as="alternateBounds" />
          </mxGeometry>
        </mxCell>
        <mxCell id="6RKZ_3p5JFmJuiaVcuDi-10" style="shape=partialRectangle;html=1;whiteSpace=wrap;connectable=0;strokeColor=inherit;overflow=hidden;fillColor=none;top=0;left=0;bottom=0;right=0;pointerEvents=1;" parent="6RKZ_3p5JFmJuiaVcuDi-6" vertex="1">
          <mxGeometry x="1375" width="275" height="40" as="geometry">
            <mxRectangle width="275" height="40" as="alternateBounds" />
          </mxGeometry>
        </mxCell>
        <mxCell id="6RKZ_3p5JFmJuiaVcuDi-12" style="shape=tableRow;horizontal=0;startSize=0;swimlaneHead=0;swimlaneBody=0;strokeColor=inherit;top=0;left=0;bottom=0;right=0;collapsible=0;dropTarget=0;fillColor=none;points=[[0,0.5],[1,0.5]];portConstraint=eastwest;" parent="nHozH7aZE5zu8DyxtDVJ-74" vertex="1">
          <mxGeometry y="200" width="1650" height="40" as="geometry" />
        </mxCell>
        <mxCell id="6RKZ_3p5JFmJuiaVcuDi-13" value="FewShot Prompt" style="shape=partialRectangle;html=1;whiteSpace=wrap;connectable=0;strokeColor=inherit;overflow=hidden;fillColor=none;top=0;left=0;bottom=0;right=0;pointerEvents=1;" parent="6RKZ_3p5JFmJuiaVcuDi-12" vertex="1">
          <mxGeometry width="275" height="40" as="geometry">
            <mxRectangle width="275" height="40" as="alternateBounds" />
          </mxGeometry>
        </mxCell>
        <mxCell id="6RKZ_3p5JFmJuiaVcuDi-14" style="shape=partialRectangle;html=1;whiteSpace=wrap;connectable=0;strokeColor=inherit;overflow=hidden;fillColor=none;top=0;left=0;bottom=0;right=0;pointerEvents=1;" parent="6RKZ_3p5JFmJuiaVcuDi-12" vertex="1">
          <mxGeometry x="275" width="275" height="40" as="geometry">
            <mxRectangle width="275" height="40" as="alternateBounds" />
          </mxGeometry>
        </mxCell>
        <mxCell id="6RKZ_3p5JFmJuiaVcuDi-35" style="shape=partialRectangle;html=1;whiteSpace=wrap;connectable=0;strokeColor=inherit;overflow=hidden;fillColor=none;top=0;left=0;bottom=0;right=0;pointerEvents=1;" parent="6RKZ_3p5JFmJuiaVcuDi-12" vertex="1">
          <mxGeometry x="550" width="275" height="40" as="geometry">
            <mxRectangle width="275" height="40" as="alternateBounds" />
          </mxGeometry>
        </mxCell>
        <mxCell id="6RKZ_3p5JFmJuiaVcuDi-15" value="" style="shape=partialRectangle;html=1;whiteSpace=wrap;connectable=0;strokeColor=inherit;overflow=hidden;fillColor=none;top=0;left=0;bottom=0;right=0;pointerEvents=1;" parent="6RKZ_3p5JFmJuiaVcuDi-12" vertex="1">
          <mxGeometry x="825" width="275" height="40" as="geometry">
            <mxRectangle width="275" height="40" as="alternateBounds" />
          </mxGeometry>
        </mxCell>
        <mxCell id="6RKZ_3p5JFmJuiaVcuDi-44" style="shape=partialRectangle;html=1;whiteSpace=wrap;connectable=0;strokeColor=inherit;overflow=hidden;fillColor=none;top=0;left=0;bottom=0;right=0;pointerEvents=1;" parent="6RKZ_3p5JFmJuiaVcuDi-12" vertex="1">
          <mxGeometry x="1100" width="275" height="40" as="geometry">
            <mxRectangle width="275" height="40" as="alternateBounds" />
          </mxGeometry>
        </mxCell>
        <mxCell id="6RKZ_3p5JFmJuiaVcuDi-16" style="shape=partialRectangle;html=1;whiteSpace=wrap;connectable=0;strokeColor=inherit;overflow=hidden;fillColor=none;top=0;left=0;bottom=0;right=0;pointerEvents=1;" parent="6RKZ_3p5JFmJuiaVcuDi-12" vertex="1">
          <mxGeometry x="1375" width="275" height="40" as="geometry">
            <mxRectangle width="275" height="40" as="alternateBounds" />
          </mxGeometry>
        </mxCell>
        <mxCell id="nHozH7aZE5zu8DyxtDVJ-75" value="" style="shape=tableRow;horizontal=0;startSize=0;swimlaneHead=0;swimlaneBody=0;strokeColor=inherit;top=0;left=0;bottom=0;right=0;collapsible=0;dropTarget=0;fillColor=none;points=[[0,0.5],[1,0.5]];portConstraint=eastwest;" parent="nHozH7aZE5zu8DyxtDVJ-74" vertex="1">
          <mxGeometry y="240" width="1650" height="40" as="geometry" />
        </mxCell>
        <mxCell id="nHozH7aZE5zu8DyxtDVJ-76" value="Prompts Templates prontos" style="shape=partialRectangle;html=1;whiteSpace=wrap;connectable=0;strokeColor=inherit;overflow=hidden;fillColor=none;top=0;left=0;bottom=0;right=0;pointerEvents=1;" parent="nHozH7aZE5zu8DyxtDVJ-75" vertex="1">
          <mxGeometry width="275" height="40" as="geometry">
            <mxRectangle width="275" height="40" as="alternateBounds" />
          </mxGeometry>
        </mxCell>
        <mxCell id="nHozH7aZE5zu8DyxtDVJ-77" value="" style="shape=partialRectangle;html=1;whiteSpace=wrap;connectable=0;strokeColor=inherit;overflow=hidden;fillColor=none;top=0;left=0;bottom=0;right=0;pointerEvents=1;" parent="nHozH7aZE5zu8DyxtDVJ-75" vertex="1">
          <mxGeometry x="275" width="275" height="40" as="geometry">
            <mxRectangle width="275" height="40" as="alternateBounds" />
          </mxGeometry>
        </mxCell>
        <mxCell id="6RKZ_3p5JFmJuiaVcuDi-36" value="Tela chamada de &lt;b&gt;Prompt Examples&lt;/b&gt;" style="shape=partialRectangle;html=1;whiteSpace=wrap;connectable=0;strokeColor=inherit;overflow=hidden;fillColor=none;top=0;left=0;bottom=0;right=0;pointerEvents=1;" parent="nHozH7aZE5zu8DyxtDVJ-75" vertex="1">
          <mxGeometry x="550" width="275" height="40" as="geometry">
            <mxRectangle width="275" height="40" as="alternateBounds" />
          </mxGeometry>
        </mxCell>
        <mxCell id="nHozH7aZE5zu8DyxtDVJ-78" value="" style="shape=partialRectangle;html=1;whiteSpace=wrap;connectable=0;strokeColor=inherit;overflow=hidden;fillColor=none;top=0;left=0;bottom=0;right=0;pointerEvents=1;" parent="nHozH7aZE5zu8DyxtDVJ-75" vertex="1">
          <mxGeometry x="825" width="275" height="40" as="geometry">
            <mxRectangle width="275" height="40" as="alternateBounds" />
          </mxGeometry>
        </mxCell>
        <mxCell id="6RKZ_3p5JFmJuiaVcuDi-45" style="shape=partialRectangle;html=1;whiteSpace=wrap;connectable=0;strokeColor=inherit;overflow=hidden;fillColor=none;top=0;left=0;bottom=0;right=0;pointerEvents=1;" parent="nHozH7aZE5zu8DyxtDVJ-75" vertex="1">
          <mxGeometry x="1100" width="275" height="40" as="geometry">
            <mxRectangle width="275" height="40" as="alternateBounds" />
          </mxGeometry>
        </mxCell>
        <mxCell id="nHozH7aZE5zu8DyxtDVJ-79" style="shape=partialRectangle;html=1;whiteSpace=wrap;connectable=0;strokeColor=inherit;overflow=hidden;fillColor=none;top=0;left=0;bottom=0;right=0;pointerEvents=1;" parent="nHozH7aZE5zu8DyxtDVJ-75" vertex="1">
          <mxGeometry x="1375" width="275" height="40" as="geometry">
            <mxRectangle width="275" height="40" as="alternateBounds" />
          </mxGeometry>
        </mxCell>
        <mxCell id="nHozH7aZE5zu8DyxtDVJ-80" style="shape=tableRow;horizontal=0;startSize=0;swimlaneHead=0;swimlaneBody=0;strokeColor=inherit;top=0;left=0;bottom=0;right=0;collapsible=0;dropTarget=0;fillColor=none;points=[[0,0.5],[1,0.5]];portConstraint=eastwest;" parent="nHozH7aZE5zu8DyxtDVJ-74" vertex="1">
          <mxGeometry y="280" width="1650" height="40" as="geometry" />
        </mxCell>
        <mxCell id="nHozH7aZE5zu8DyxtDVJ-81" value="Salva Prompt" style="shape=partialRectangle;html=1;whiteSpace=wrap;connectable=0;strokeColor=inherit;overflow=hidden;fillColor=none;top=0;left=0;bottom=0;right=0;pointerEvents=1;" parent="nHozH7aZE5zu8DyxtDVJ-80" vertex="1">
          <mxGeometry width="275" height="40" as="geometry">
            <mxRectangle width="275" height="40" as="alternateBounds" />
          </mxGeometry>
        </mxCell>
        <mxCell id="nHozH7aZE5zu8DyxtDVJ-82" value="" style="shape=partialRectangle;html=1;whiteSpace=wrap;connectable=0;strokeColor=inherit;overflow=hidden;fillColor=none;top=0;left=0;bottom=0;right=0;pointerEvents=1;" parent="nHozH7aZE5zu8DyxtDVJ-80" vertex="1">
          <mxGeometry x="275" width="275" height="40" as="geometry">
            <mxRectangle width="275" height="40" as="alternateBounds" />
          </mxGeometry>
        </mxCell>
        <mxCell id="6RKZ_3p5JFmJuiaVcuDi-37" value="Ao serem salvos vão para&amp;nbsp;&lt;b style=&quot;border-color: var(--border-color);&quot;&gt;Prompt Gallery&lt;/b&gt;" style="shape=partialRectangle;html=1;whiteSpace=wrap;connectable=0;strokeColor=inherit;overflow=hidden;fillColor=none;top=0;left=0;bottom=0;right=0;pointerEvents=1;" parent="nHozH7aZE5zu8DyxtDVJ-80" vertex="1">
          <mxGeometry x="550" width="275" height="40" as="geometry">
            <mxRectangle width="275" height="40" as="alternateBounds" />
          </mxGeometry>
        </mxCell>
        <mxCell id="nHozH7aZE5zu8DyxtDVJ-83" style="shape=partialRectangle;html=1;whiteSpace=wrap;connectable=0;strokeColor=inherit;overflow=hidden;fillColor=none;top=0;left=0;bottom=0;right=0;pointerEvents=1;" parent="nHozH7aZE5zu8DyxtDVJ-80" vertex="1">
          <mxGeometry x="825" width="275" height="40" as="geometry">
            <mxRectangle width="275" height="40" as="alternateBounds" />
          </mxGeometry>
        </mxCell>
        <mxCell id="6RKZ_3p5JFmJuiaVcuDi-46" style="shape=partialRectangle;html=1;whiteSpace=wrap;connectable=0;strokeColor=inherit;overflow=hidden;fillColor=none;top=0;left=0;bottom=0;right=0;pointerEvents=1;" parent="nHozH7aZE5zu8DyxtDVJ-80" vertex="1">
          <mxGeometry x="1100" width="275" height="40" as="geometry">
            <mxRectangle width="275" height="40" as="alternateBounds" />
          </mxGeometry>
        </mxCell>
        <mxCell id="nHozH7aZE5zu8DyxtDVJ-84" style="shape=partialRectangle;html=1;whiteSpace=wrap;connectable=0;strokeColor=inherit;overflow=hidden;fillColor=none;top=0;left=0;bottom=0;right=0;pointerEvents=1;" parent="nHozH7aZE5zu8DyxtDVJ-80" vertex="1">
          <mxGeometry x="1375" width="275" height="40" as="geometry">
            <mxRectangle width="275" height="40" as="alternateBounds" />
          </mxGeometry>
        </mxCell>
        <mxCell id="6RKZ_3p5JFmJuiaVcuDi-64" style="shape=tableRow;horizontal=0;startSize=0;swimlaneHead=0;swimlaneBody=0;strokeColor=inherit;top=0;left=0;bottom=0;right=0;collapsible=0;dropTarget=0;fillColor=none;points=[[0,0.5],[1,0.5]];portConstraint=eastwest;" parent="nHozH7aZE5zu8DyxtDVJ-74" vertex="1">
          <mxGeometry y="320" width="1650" height="40" as="geometry" />
        </mxCell>
        <mxCell id="6RKZ_3p5JFmJuiaVcuDi-65" value="Versiona Prompt" style="shape=partialRectangle;html=1;whiteSpace=wrap;connectable=0;strokeColor=inherit;overflow=hidden;fillColor=none;top=0;left=0;bottom=0;right=0;pointerEvents=1;" parent="6RKZ_3p5JFmJuiaVcuDi-64" vertex="1">
          <mxGeometry width="275" height="40" as="geometry">
            <mxRectangle width="275" height="40" as="alternateBounds" />
          </mxGeometry>
        </mxCell>
        <mxCell id="6RKZ_3p5JFmJuiaVcuDi-66" style="shape=partialRectangle;html=1;whiteSpace=wrap;connectable=0;strokeColor=inherit;overflow=hidden;fillColor=none;top=0;left=0;bottom=0;right=0;pointerEvents=1;" parent="6RKZ_3p5JFmJuiaVcuDi-64" vertex="1">
          <mxGeometry x="275" width="275" height="40" as="geometry">
            <mxRectangle width="275" height="40" as="alternateBounds" />
          </mxGeometry>
        </mxCell>
        <mxCell id="6RKZ_3p5JFmJuiaVcuDi-67" style="shape=partialRectangle;html=1;whiteSpace=wrap;connectable=0;strokeColor=inherit;overflow=hidden;fillColor=none;top=0;left=0;bottom=0;right=0;pointerEvents=1;" parent="6RKZ_3p5JFmJuiaVcuDi-64" vertex="1">
          <mxGeometry x="550" width="275" height="40" as="geometry">
            <mxRectangle width="275" height="40" as="alternateBounds" />
          </mxGeometry>
        </mxCell>
        <mxCell id="6RKZ_3p5JFmJuiaVcuDi-68" style="shape=partialRectangle;html=1;whiteSpace=wrap;connectable=0;strokeColor=inherit;overflow=hidden;fillColor=none;top=0;left=0;bottom=0;right=0;pointerEvents=1;" parent="6RKZ_3p5JFmJuiaVcuDi-64" vertex="1">
          <mxGeometry x="825" width="275" height="40" as="geometry">
            <mxRectangle width="275" height="40" as="alternateBounds" />
          </mxGeometry>
        </mxCell>
        <mxCell id="6RKZ_3p5JFmJuiaVcuDi-69" style="shape=partialRectangle;html=1;whiteSpace=wrap;connectable=0;strokeColor=inherit;overflow=hidden;fillColor=none;top=0;left=0;bottom=0;right=0;pointerEvents=1;" parent="6RKZ_3p5JFmJuiaVcuDi-64" vertex="1">
          <mxGeometry x="1100" width="275" height="40" as="geometry">
            <mxRectangle width="275" height="40" as="alternateBounds" />
          </mxGeometry>
        </mxCell>
        <mxCell id="6RKZ_3p5JFmJuiaVcuDi-70" style="shape=partialRectangle;html=1;whiteSpace=wrap;connectable=0;strokeColor=inherit;overflow=hidden;fillColor=none;top=0;left=0;bottom=0;right=0;pointerEvents=1;" parent="6RKZ_3p5JFmJuiaVcuDi-64" vertex="1">
          <mxGeometry x="1375" width="275" height="40" as="geometry">
            <mxRectangle width="275" height="40" as="alternateBounds" />
          </mxGeometry>
        </mxCell>
        <mxCell id="nHozH7aZE5zu8DyxtDVJ-85" style="shape=tableRow;horizontal=0;startSize=0;swimlaneHead=0;swimlaneBody=0;strokeColor=inherit;top=0;left=0;bottom=0;right=0;collapsible=0;dropTarget=0;fillColor=none;points=[[0,0.5],[1,0.5]];portConstraint=eastwest;" parent="nHozH7aZE5zu8DyxtDVJ-74" vertex="1">
          <mxGeometry y="360" width="1650" height="40" as="geometry" />
        </mxCell>
        <mxCell id="nHozH7aZE5zu8DyxtDVJ-86" value="DataSets" style="shape=partialRectangle;html=1;whiteSpace=wrap;connectable=0;strokeColor=inherit;overflow=hidden;fillColor=none;top=0;left=0;bottom=0;right=0;pointerEvents=1;" parent="nHozH7aZE5zu8DyxtDVJ-85" vertex="1">
          <mxGeometry width="275" height="40" as="geometry">
            <mxRectangle width="275" height="40" as="alternateBounds" />
          </mxGeometry>
        </mxCell>
        <mxCell id="nHozH7aZE5zu8DyxtDVJ-87" style="shape=partialRectangle;html=1;whiteSpace=wrap;connectable=0;strokeColor=inherit;overflow=hidden;fillColor=none;top=0;left=0;bottom=0;right=0;pointerEvents=1;" parent="nHozH7aZE5zu8DyxtDVJ-85" vertex="1">
          <mxGeometry x="275" width="275" height="40" as="geometry">
            <mxRectangle width="275" height="40" as="alternateBounds" />
          </mxGeometry>
        </mxCell>
        <mxCell id="6RKZ_3p5JFmJuiaVcuDi-38" style="shape=partialRectangle;html=1;whiteSpace=wrap;connectable=0;strokeColor=inherit;overflow=hidden;fillColor=none;top=0;left=0;bottom=0;right=0;pointerEvents=1;" parent="nHozH7aZE5zu8DyxtDVJ-85" vertex="1">
          <mxGeometry x="550" width="275" height="40" as="geometry">
            <mxRectangle width="275" height="40" as="alternateBounds" />
          </mxGeometry>
        </mxCell>
        <mxCell id="nHozH7aZE5zu8DyxtDVJ-88" style="shape=partialRectangle;html=1;whiteSpace=wrap;connectable=0;strokeColor=inherit;overflow=hidden;fillColor=none;top=0;left=0;bottom=0;right=0;pointerEvents=1;" parent="nHozH7aZE5zu8DyxtDVJ-85" vertex="1">
          <mxGeometry x="825" width="275" height="40" as="geometry">
            <mxRectangle width="275" height="40" as="alternateBounds" />
          </mxGeometry>
        </mxCell>
        <mxCell id="6RKZ_3p5JFmJuiaVcuDi-47" style="shape=partialRectangle;html=1;whiteSpace=wrap;connectable=0;strokeColor=inherit;overflow=hidden;fillColor=none;top=0;left=0;bottom=0;right=0;pointerEvents=1;" parent="nHozH7aZE5zu8DyxtDVJ-85" vertex="1">
          <mxGeometry x="1100" width="275" height="40" as="geometry">
            <mxRectangle width="275" height="40" as="alternateBounds" />
          </mxGeometry>
        </mxCell>
        <mxCell id="nHozH7aZE5zu8DyxtDVJ-89" style="shape=partialRectangle;html=1;whiteSpace=wrap;connectable=0;strokeColor=inherit;overflow=hidden;fillColor=none;top=0;left=0;bottom=0;right=0;pointerEvents=1;" parent="nHozH7aZE5zu8DyxtDVJ-85" vertex="1">
          <mxGeometry x="1375" width="275" height="40" as="geometry">
            <mxRectangle width="275" height="40" as="alternateBounds" />
          </mxGeometry>
        </mxCell>
        <mxCell id="nHozH7aZE5zu8DyxtDVJ-90" style="shape=tableRow;horizontal=0;startSize=0;swimlaneHead=0;swimlaneBody=0;strokeColor=inherit;top=0;left=0;bottom=0;right=0;collapsible=0;dropTarget=0;fillColor=none;points=[[0,0.5],[1,0.5]];portConstraint=eastwest;" parent="nHozH7aZE5zu8DyxtDVJ-74" vertex="1">
          <mxGeometry y="400" width="1650" height="40" as="geometry" />
        </mxCell>
        <mxCell id="nHozH7aZE5zu8DyxtDVJ-91" value="Fine Tuning" style="shape=partialRectangle;html=1;whiteSpace=wrap;connectable=0;strokeColor=inherit;overflow=hidden;fillColor=none;top=0;left=0;bottom=0;right=0;pointerEvents=1;" parent="nHozH7aZE5zu8DyxtDVJ-90" vertex="1">
          <mxGeometry width="275" height="40" as="geometry">
            <mxRectangle width="275" height="40" as="alternateBounds" />
          </mxGeometry>
        </mxCell>
        <mxCell id="nHozH7aZE5zu8DyxtDVJ-92" style="shape=partialRectangle;html=1;whiteSpace=wrap;connectable=0;strokeColor=inherit;overflow=hidden;fillColor=none;top=0;left=0;bottom=0;right=0;pointerEvents=1;" parent="nHozH7aZE5zu8DyxtDVJ-90" vertex="1">
          <mxGeometry x="275" width="275" height="40" as="geometry">
            <mxRectangle width="275" height="40" as="alternateBounds" />
          </mxGeometry>
        </mxCell>
        <mxCell id="6RKZ_3p5JFmJuiaVcuDi-39" style="shape=partialRectangle;html=1;whiteSpace=wrap;connectable=0;strokeColor=inherit;overflow=hidden;fillColor=none;top=0;left=0;bottom=0;right=0;pointerEvents=1;" parent="nHozH7aZE5zu8DyxtDVJ-90" vertex="1">
          <mxGeometry x="550" width="275" height="40" as="geometry">
            <mxRectangle width="275" height="40" as="alternateBounds" />
          </mxGeometry>
        </mxCell>
        <mxCell id="nHozH7aZE5zu8DyxtDVJ-93" style="shape=partialRectangle;html=1;whiteSpace=wrap;connectable=0;strokeColor=inherit;overflow=hidden;fillColor=none;top=0;left=0;bottom=0;right=0;pointerEvents=1;" parent="nHozH7aZE5zu8DyxtDVJ-90" vertex="1">
          <mxGeometry x="825" width="275" height="40" as="geometry">
            <mxRectangle width="275" height="40" as="alternateBounds" />
          </mxGeometry>
        </mxCell>
        <mxCell id="6RKZ_3p5JFmJuiaVcuDi-48" style="shape=partialRectangle;html=1;whiteSpace=wrap;connectable=0;strokeColor=inherit;overflow=hidden;fillColor=none;top=0;left=0;bottom=0;right=0;pointerEvents=1;" parent="nHozH7aZE5zu8DyxtDVJ-90" vertex="1">
          <mxGeometry x="1100" width="275" height="40" as="geometry">
            <mxRectangle width="275" height="40" as="alternateBounds" />
          </mxGeometry>
        </mxCell>
        <mxCell id="nHozH7aZE5zu8DyxtDVJ-94" style="shape=partialRectangle;html=1;whiteSpace=wrap;connectable=0;strokeColor=inherit;overflow=hidden;fillColor=none;top=0;left=0;bottom=0;right=0;pointerEvents=1;" parent="nHozH7aZE5zu8DyxtDVJ-90" vertex="1">
          <mxGeometry x="1375" width="275" height="40" as="geometry">
            <mxRectangle width="275" height="40" as="alternateBounds" />
          </mxGeometry>
        </mxCell>
        <mxCell id="6RKZ_3p5JFmJuiaVcuDi-78" style="shape=tableRow;horizontal=0;startSize=0;swimlaneHead=0;swimlaneBody=0;strokeColor=inherit;top=0;left=0;bottom=0;right=0;collapsible=0;dropTarget=0;fillColor=none;points=[[0,0.5],[1,0.5]];portConstraint=eastwest;" parent="nHozH7aZE5zu8DyxtDVJ-74" vertex="1">
          <mxGeometry y="440" width="1650" height="40" as="geometry" />
        </mxCell>
        <mxCell id="6RKZ_3p5JFmJuiaVcuDi-79" value="Compare" style="shape=partialRectangle;html=1;whiteSpace=wrap;connectable=0;strokeColor=inherit;overflow=hidden;fillColor=none;top=0;left=0;bottom=0;right=0;pointerEvents=1;" parent="6RKZ_3p5JFmJuiaVcuDi-78" vertex="1">
          <mxGeometry width="275" height="40" as="geometry">
            <mxRectangle width="275" height="40" as="alternateBounds" />
          </mxGeometry>
        </mxCell>
        <mxCell id="6RKZ_3p5JFmJuiaVcuDi-80" style="shape=partialRectangle;html=1;whiteSpace=wrap;connectable=0;strokeColor=inherit;overflow=hidden;fillColor=none;top=0;left=0;bottom=0;right=0;pointerEvents=1;" parent="6RKZ_3p5JFmJuiaVcuDi-78" vertex="1">
          <mxGeometry x="275" width="275" height="40" as="geometry">
            <mxRectangle width="275" height="40" as="alternateBounds" />
          </mxGeometry>
        </mxCell>
        <mxCell id="6RKZ_3p5JFmJuiaVcuDi-81" style="shape=partialRectangle;html=1;whiteSpace=wrap;connectable=0;strokeColor=inherit;overflow=hidden;fillColor=none;top=0;left=0;bottom=0;right=0;pointerEvents=1;" parent="6RKZ_3p5JFmJuiaVcuDi-78" vertex="1">
          <mxGeometry x="550" width="275" height="40" as="geometry">
            <mxRectangle width="275" height="40" as="alternateBounds" />
          </mxGeometry>
        </mxCell>
        <mxCell id="6RKZ_3p5JFmJuiaVcuDi-82" style="shape=partialRectangle;html=1;whiteSpace=wrap;connectable=0;strokeColor=inherit;overflow=hidden;fillColor=none;top=0;left=0;bottom=0;right=0;pointerEvents=1;" parent="6RKZ_3p5JFmJuiaVcuDi-78" vertex="1">
          <mxGeometry x="825" width="275" height="40" as="geometry">
            <mxRectangle width="275" height="40" as="alternateBounds" />
          </mxGeometry>
        </mxCell>
        <mxCell id="6RKZ_3p5JFmJuiaVcuDi-83" style="shape=partialRectangle;html=1;whiteSpace=wrap;connectable=0;strokeColor=inherit;overflow=hidden;fillColor=none;top=0;left=0;bottom=0;right=0;pointerEvents=1;" parent="6RKZ_3p5JFmJuiaVcuDi-78" vertex="1">
          <mxGeometry x="1100" width="275" height="40" as="geometry">
            <mxRectangle width="275" height="40" as="alternateBounds" />
          </mxGeometry>
        </mxCell>
        <mxCell id="6RKZ_3p5JFmJuiaVcuDi-84" style="shape=partialRectangle;html=1;whiteSpace=wrap;connectable=0;strokeColor=inherit;overflow=hidden;fillColor=none;top=0;left=0;bottom=0;right=0;pointerEvents=1;" parent="6RKZ_3p5JFmJuiaVcuDi-78" vertex="1">
          <mxGeometry x="1375" width="275" height="40" as="geometry">
            <mxRectangle width="275" height="40" as="alternateBounds" />
          </mxGeometry>
        </mxCell>
        <mxCell id="6RKZ_3p5JFmJuiaVcuDi-85" style="shape=tableRow;horizontal=0;startSize=0;swimlaneHead=0;swimlaneBody=0;strokeColor=inherit;top=0;left=0;bottom=0;right=0;collapsible=0;dropTarget=0;fillColor=none;points=[[0,0.5],[1,0.5]];portConstraint=eastwest;" parent="nHozH7aZE5zu8DyxtDVJ-74" vertex="1">
          <mxGeometry y="480" width="1650" height="40" as="geometry" />
        </mxCell>
        <mxCell id="6RKZ_3p5JFmJuiaVcuDi-86" value="Deployments" style="shape=partialRectangle;html=1;whiteSpace=wrap;connectable=0;strokeColor=inherit;overflow=hidden;fillColor=none;top=0;left=0;bottom=0;right=0;pointerEvents=1;" parent="6RKZ_3p5JFmJuiaVcuDi-85" vertex="1">
          <mxGeometry width="275" height="40" as="geometry">
            <mxRectangle width="275" height="40" as="alternateBounds" />
          </mxGeometry>
        </mxCell>
        <mxCell id="6RKZ_3p5JFmJuiaVcuDi-87" style="shape=partialRectangle;html=1;whiteSpace=wrap;connectable=0;strokeColor=inherit;overflow=hidden;fillColor=none;top=0;left=0;bottom=0;right=0;pointerEvents=1;" parent="6RKZ_3p5JFmJuiaVcuDi-85" vertex="1">
          <mxGeometry x="275" width="275" height="40" as="geometry">
            <mxRectangle width="275" height="40" as="alternateBounds" />
          </mxGeometry>
        </mxCell>
        <mxCell id="6RKZ_3p5JFmJuiaVcuDi-88" style="shape=partialRectangle;html=1;whiteSpace=wrap;connectable=0;strokeColor=inherit;overflow=hidden;fillColor=none;top=0;left=0;bottom=0;right=0;pointerEvents=1;" parent="6RKZ_3p5JFmJuiaVcuDi-85" vertex="1">
          <mxGeometry x="550" width="275" height="40" as="geometry">
            <mxRectangle width="275" height="40" as="alternateBounds" />
          </mxGeometry>
        </mxCell>
        <mxCell id="6RKZ_3p5JFmJuiaVcuDi-89" style="shape=partialRectangle;html=1;whiteSpace=wrap;connectable=0;strokeColor=inherit;overflow=hidden;fillColor=none;top=0;left=0;bottom=0;right=0;pointerEvents=1;" parent="6RKZ_3p5JFmJuiaVcuDi-85" vertex="1">
          <mxGeometry x="825" width="275" height="40" as="geometry">
            <mxRectangle width="275" height="40" as="alternateBounds" />
          </mxGeometry>
        </mxCell>
        <mxCell id="6RKZ_3p5JFmJuiaVcuDi-90" style="shape=partialRectangle;html=1;whiteSpace=wrap;connectable=0;strokeColor=inherit;overflow=hidden;fillColor=none;top=0;left=0;bottom=0;right=0;pointerEvents=1;" parent="6RKZ_3p5JFmJuiaVcuDi-85" vertex="1">
          <mxGeometry x="1100" width="275" height="40" as="geometry">
            <mxRectangle width="275" height="40" as="alternateBounds" />
          </mxGeometry>
        </mxCell>
        <mxCell id="6RKZ_3p5JFmJuiaVcuDi-91" style="shape=partialRectangle;html=1;whiteSpace=wrap;connectable=0;strokeColor=inherit;overflow=hidden;fillColor=none;top=0;left=0;bottom=0;right=0;pointerEvents=1;" parent="6RKZ_3p5JFmJuiaVcuDi-85" vertex="1">
          <mxGeometry x="1375" width="275" height="40" as="geometry">
            <mxRectangle width="275" height="40" as="alternateBounds" />
          </mxGeometry>
        </mxCell>
        <mxCell id="6RKZ_3p5JFmJuiaVcuDi-92" style="shape=tableRow;horizontal=0;startSize=0;swimlaneHead=0;swimlaneBody=0;strokeColor=inherit;top=0;left=0;bottom=0;right=0;collapsible=0;dropTarget=0;fillColor=none;points=[[0,0.5],[1,0.5]];portConstraint=eastwest;" parent="nHozH7aZE5zu8DyxtDVJ-74" vertex="1">
          <mxGeometry y="520" width="1650" height="40" as="geometry" />
        </mxCell>
        <mxCell id="6RKZ_3p5JFmJuiaVcuDi-93" value="Tracking Token" style="shape=partialRectangle;html=1;whiteSpace=wrap;connectable=0;strokeColor=inherit;overflow=hidden;fillColor=none;top=0;left=0;bottom=0;right=0;pointerEvents=1;" parent="6RKZ_3p5JFmJuiaVcuDi-92" vertex="1">
          <mxGeometry width="275" height="40" as="geometry">
            <mxRectangle width="275" height="40" as="alternateBounds" />
          </mxGeometry>
        </mxCell>
        <mxCell id="6RKZ_3p5JFmJuiaVcuDi-94" style="shape=partialRectangle;html=1;whiteSpace=wrap;connectable=0;strokeColor=inherit;overflow=hidden;fillColor=none;top=0;left=0;bottom=0;right=0;pointerEvents=1;" parent="6RKZ_3p5JFmJuiaVcuDi-92" vertex="1">
          <mxGeometry x="275" width="275" height="40" as="geometry">
            <mxRectangle width="275" height="40" as="alternateBounds" />
          </mxGeometry>
        </mxCell>
        <mxCell id="6RKZ_3p5JFmJuiaVcuDi-95" style="shape=partialRectangle;html=1;whiteSpace=wrap;connectable=0;strokeColor=inherit;overflow=hidden;fillColor=none;top=0;left=0;bottom=0;right=0;pointerEvents=1;" parent="6RKZ_3p5JFmJuiaVcuDi-92" vertex="1">
          <mxGeometry x="550" width="275" height="40" as="geometry">
            <mxRectangle width="275" height="40" as="alternateBounds" />
          </mxGeometry>
        </mxCell>
        <mxCell id="6RKZ_3p5JFmJuiaVcuDi-96" style="shape=partialRectangle;html=1;whiteSpace=wrap;connectable=0;strokeColor=inherit;overflow=hidden;fillColor=none;top=0;left=0;bottom=0;right=0;pointerEvents=1;" parent="6RKZ_3p5JFmJuiaVcuDi-92" vertex="1">
          <mxGeometry x="825" width="275" height="40" as="geometry">
            <mxRectangle width="275" height="40" as="alternateBounds" />
          </mxGeometry>
        </mxCell>
        <mxCell id="6RKZ_3p5JFmJuiaVcuDi-97" value="https://encurtador.com.br/DLSX6" style="shape=partialRectangle;html=1;whiteSpace=wrap;connectable=0;strokeColor=inherit;overflow=hidden;fillColor=none;top=0;left=0;bottom=0;right=0;pointerEvents=1;" parent="6RKZ_3p5JFmJuiaVcuDi-92" vertex="1">
          <mxGeometry x="1100" width="275" height="40" as="geometry">
            <mxRectangle width="275" height="40" as="alternateBounds" />
          </mxGeometry>
        </mxCell>
        <mxCell id="6RKZ_3p5JFmJuiaVcuDi-98" style="shape=partialRectangle;html=1;whiteSpace=wrap;connectable=0;strokeColor=inherit;overflow=hidden;fillColor=none;top=0;left=0;bottom=0;right=0;pointerEvents=1;" parent="6RKZ_3p5JFmJuiaVcuDi-92" vertex="1">
          <mxGeometry x="1375" width="275" height="40" as="geometry">
            <mxRectangle width="275" height="40" as="alternateBounds" />
          </mxGeometry>
        </mxCell>
        <mxCell id="6RKZ_3p5JFmJuiaVcuDi-99" style="shape=tableRow;horizontal=0;startSize=0;swimlaneHead=0;swimlaneBody=0;strokeColor=inherit;top=0;left=0;bottom=0;right=0;collapsible=0;dropTarget=0;fillColor=none;points=[[0,0.5],[1,0.5]];portConstraint=eastwest;" parent="nHozH7aZE5zu8DyxtDVJ-74" vertex="1">
          <mxGeometry y="560" width="1650" height="40" as="geometry" />
        </mxCell>
        <mxCell id="6RKZ_3p5JFmJuiaVcuDi-100" style="shape=partialRectangle;html=1;whiteSpace=wrap;connectable=0;strokeColor=inherit;overflow=hidden;fillColor=none;top=0;left=0;bottom=0;right=0;pointerEvents=1;" parent="6RKZ_3p5JFmJuiaVcuDi-99" vertex="1">
          <mxGeometry width="275" height="40" as="geometry">
            <mxRectangle width="275" height="40" as="alternateBounds" />
          </mxGeometry>
        </mxCell>
        <mxCell id="6RKZ_3p5JFmJuiaVcuDi-101" style="shape=partialRectangle;html=1;whiteSpace=wrap;connectable=0;strokeColor=inherit;overflow=hidden;fillColor=none;top=0;left=0;bottom=0;right=0;pointerEvents=1;" parent="6RKZ_3p5JFmJuiaVcuDi-99" vertex="1">
          <mxGeometry x="275" width="275" height="40" as="geometry">
            <mxRectangle width="275" height="40" as="alternateBounds" />
          </mxGeometry>
        </mxCell>
        <mxCell id="6RKZ_3p5JFmJuiaVcuDi-102" style="shape=partialRectangle;html=1;whiteSpace=wrap;connectable=0;strokeColor=inherit;overflow=hidden;fillColor=none;top=0;left=0;bottom=0;right=0;pointerEvents=1;" parent="6RKZ_3p5JFmJuiaVcuDi-99" vertex="1">
          <mxGeometry x="550" width="275" height="40" as="geometry">
            <mxRectangle width="275" height="40" as="alternateBounds" />
          </mxGeometry>
        </mxCell>
        <mxCell id="6RKZ_3p5JFmJuiaVcuDi-103" style="shape=partialRectangle;html=1;whiteSpace=wrap;connectable=0;strokeColor=inherit;overflow=hidden;fillColor=none;top=0;left=0;bottom=0;right=0;pointerEvents=1;" parent="6RKZ_3p5JFmJuiaVcuDi-99" vertex="1">
          <mxGeometry x="825" width="275" height="40" as="geometry">
            <mxRectangle width="275" height="40" as="alternateBounds" />
          </mxGeometry>
        </mxCell>
        <mxCell id="6RKZ_3p5JFmJuiaVcuDi-104" style="shape=partialRectangle;html=1;whiteSpace=wrap;connectable=0;strokeColor=inherit;overflow=hidden;fillColor=none;top=0;left=0;bottom=0;right=0;pointerEvents=1;" parent="6RKZ_3p5JFmJuiaVcuDi-99" vertex="1">
          <mxGeometry x="1100" width="275" height="40" as="geometry">
            <mxRectangle width="275" height="40" as="alternateBounds" />
          </mxGeometry>
        </mxCell>
        <mxCell id="6RKZ_3p5JFmJuiaVcuDi-105" style="shape=partialRectangle;html=1;whiteSpace=wrap;connectable=0;strokeColor=inherit;overflow=hidden;fillColor=none;top=0;left=0;bottom=0;right=0;pointerEvents=1;" parent="6RKZ_3p5JFmJuiaVcuDi-99" vertex="1">
          <mxGeometry x="1375" width="275" height="40" as="geometry">
            <mxRectangle width="275" height="40" as="alternateBounds" />
          </mxGeometry>
        </mxCell>
        <mxCell id="nHozH7aZE5zu8DyxtDVJ-103" value="&lt;span style=&quot;font-weight: normal; font-size: 18px;&quot;&gt;Features&lt;/span&gt;" style="text;html=1;strokeColor=none;fillColor=none;align=center;verticalAlign=middle;whiteSpace=wrap;rounded=0;fontSize=18;fontStyle=1;fontFamily=Tahoma;" parent="1" vertex="1">
          <mxGeometry x="140" y="240" width="90" height="40" as="geometry" />
        </mxCell>
        <mxCell id="nHozH7aZE5zu8DyxtDVJ-123" value="" style="rounded=0;whiteSpace=wrap;html=1;" parent="1" vertex="1">
          <mxGeometry x="-1240" y="80" width="1280" height="640" as="geometry" />
        </mxCell>
        <mxCell id="6RKZ_3p5JFmJuiaVcuDi-49" value="&lt;span style=&quot;font-weight: normal; font-size: 18px;&quot;&gt;Have?&lt;/span&gt;" style="text;html=1;strokeColor=none;fillColor=none;align=center;verticalAlign=middle;whiteSpace=wrap;rounded=0;fontSize=18;fontStyle=1;fontFamily=Tahoma;" parent="1" vertex="1">
          <mxGeometry x="410" y="240" width="90" height="40" as="geometry" />
        </mxCell>
        <mxCell id="6RKZ_3p5JFmJuiaVcuDi-50" value="&lt;span style=&quot;font-weight: normal; font-size: 18px;&quot;&gt;How/Where?&lt;/span&gt;" style="text;html=1;strokeColor=none;fillColor=none;align=center;verticalAlign=middle;whiteSpace=wrap;rounded=0;fontSize=18;fontStyle=1;fontFamily=Tahoma;" parent="1" vertex="1">
          <mxGeometry x="682.5" y="240" width="90" height="40" as="geometry" />
        </mxCell>
        <mxCell id="6RKZ_3p5JFmJuiaVcuDi-51" value="" style="group" parent="1" vertex="1" connectable="0">
          <mxGeometry x="469.99999999999994" y="170" width="226.95000000000005" height="40" as="geometry" />
        </mxCell>
        <mxCell id="nHozH7aZE5zu8DyxtDVJ-70" value="" style="shape=image;verticalLabelPosition=bottom;labelBackgroundColor=default;verticalAlign=top;aspect=fixed;imageAspect=0;image=data:image/png,iVBORw0KGgoAAAANSUhEUgAAAzwAAAFzCAIAAAB0BZspAAA/GklEQVR42uzdB5hcV33//+85d2a296LtKrvq1Wouci9gm2IbYjqEP87PEIohhSSEQPgBCYGEhOKAacHxjxgCGGzAGOMqd/UuWdKqbe99Z3Z25p7zfyTZFBft7tw7o93R+/X48SOtdmbunLn33M+cGrDWCgAAAKY3TREAAAAQ2gAAAEBoAwAAILQBAACA0AYAAABCGwAAAKENAAAAhDYAAAAQ2gAAAAhtAAAAILQBAAAQ2gAAAEBoAwAAAKENAACA0AYAAABCGwAAAAhtAAAAhDYAAAAQ2gAAAEBoAwAAILQBAACA0AYAAEBoAwAAAKENAAAAhDYAAABCGwAAAAhtAAAAILQBAAAQ2gAAAEBoAwAAILQBAACA0AYAAABCGwAAAKENAAAAhDYAAAAQ2gAAAAhtAAAAILQBAACA0AYAAEBoAwAAAKENAACA0AYAAABCGwAAAAhtAAAAhDYAAAAQ2gAAAEBoAwAAmHkCFAEwE41G7cEe2zSgwlHj2j/6p4yAlGTr+WW2tlArSupccrDb3rnV/XFj/Oiokj8+K0py7c21gVvXO+dVcVIAM5Wy1lIKwMxyol+2t5iR8TNfvGpeiVpVKTkZ3KTPCd94Ov6h54yc+axQ6tOr9MevcHI5KwBCG4Bk295qDnSJMZO6cguy1CWzpSiHgRDpbCwun3jQ/coeVyZTnyv1jnr1tesDJTnkNmCGoSoHZpJDPXZfh51kYhORwYh94oQai/PdLG1ZK599OP6V3XGZ5Ddwa+9uNB/8lRuJUXgAoQ1AcvSH7fYWM9VHDUXM9lZD6aWrn+12v7DDneqjfnzUveO5OKUHENoA+M9a2dluYm4ijz3Sq9oGaWxLQwMR+8UtCSbyv9xmDnVzVgCENgB+6w3bjqHEE9+RXm7PaejhRrulO9Fm1Ii9Z49LGQKENgA+ax60cQ+dnC0DJhIjt6UVY+Xeg546vn/aaAbHOCsAQhsAX2/P/WFPN9e4Vb2jFGRaGYvZ+7yNVtzeJ8NjzCEFCG0A/BM3Eot7vbmOjFOQaaVzWEa8RXmxtrGPSSoAoQ2Af1xjI56n+kVZ+CO9dI/68IGO0WkOENoA+BraZNzl5oo/4steF9wDAEIbAD8prlW8TF2BD9tHV+Uypg0gtAEAkikjqC4v8RS5SnJVZSGhDSC0AQCSKeTIdfVO4o9X8s65uiib0AYQ2gAASfa6RVoyEq3GlXrtXKXJbAChDQCQbEvK1ccXKFFTT15K3j5bvWaRQxkChDYAQNIpJX97hbO6dMoPzMiWz14TCJDZAEIbACA1SnLU/3tjcEHhVB6TI4+8MdhQQs8oQGgDAKTQknL1szeFrqrUk+gnVauK1eabghvmUPkDhDYAQMotnaV+8tbAVy7Uknkqt70kvJ3+a1A+s0bd/7bQulpqfmBGUtayzDow3Y1G7QPPG487Wa2oVCuruFunuZ4R++hh+/ARtzksrRFrrFRnyawsdfFs/bqFuppV2QBCGwBCG6aVSEz6I2KtLc6WrCBZDUgHAYoAANJPVvDkfy/rKAUwg/G1GwAAgNAGAAAAQhsAAAChDQAAAIQ2AAAAENoAAAAIbQAAAEgp1mkDgDTUM2L7xk7+oTBDledRHgChDcA5b3DMdg2b7rAajb6wvUpQ6+IcqcyT4mzlnEut+Ye67e4O+8gx0zIkQS3uycBkL6rRG+boxWUpKoqdrfYXz7uPNtmN/VbMqU9EqwVZcuMc581L9XlVKkitD8xYbGMFzADTcxurkajd32mO90v0FQ9Mqao8WViuagrSf1H+w932jk3xf3/eSEyJvKxS1epdc9SfrdWX1TvJO4bGXvvVp93b97mvXt+rt86RT1waYDczgNAG4BwKbU0DdmuzHR2foAJxlCycpVdVpnOT20/3mJsfjkvUyhkKQ4k48k/nOR+/PJCMtq5nTpibfhnrGp6wyhcJqf+9ynnLSofLCphx+L4FYMpO9Nunj5kJE5uIuFYOdNqNjbFxNz2/H/50r73513EZO2Nik1Otb3H55Bbzkfvj467Px/D0cbPhZ5NIbKcPI2rf+kD8f3caTmOA0AYgzbUN2udOmPikb/rW2tZhvas9DYvi4efNzb+JvTB0bHKF8a0D7r89FvPxGJoH5IZfxmRsKo+x8raHYztbyW0AoQ2A36zINLnBjsXs5mYbM1MepvZ8p2kaSKvGtp4R+56H4hKzU/0sP7nLPn3Un9a2mJEvPRHvHUngkfKJR9yRKMNjAEIbAH8vVKVC02NQWGOvHY3axMbC7usQ33sGz6Jvb3LbRxIKPeP2ji1u3I+i2N1ubz+YYJ7/TavdeJTQBhDaAPgq4EhGwOv9NSPgdRbnuCtH+xJv8+sN287hNEkJPSP2+wcTj10/OGp3tfqQ2n572Eg84SK1P3/edekjBQhtAHzkKAk5XuNObsjrYYxEzWAk8cOw1nakS2jb2WIbhz2F4I3HxXuGfuS4p8z1vSbbF6axDSC0AfAxtGnJz7BKJZ4SAlqKc7weRl/Ya1tdf3gqo/ansUPdroind/JMi9eCiMTsI13eGsrCtn+MywsgtAHwVXWB43iITLPyVHbQa+QKx7zmjHFX0mNpyK6ot7khSnrDrg/51XPnZlM/LW0AoQ2AryoLVGGWTeyKVUo1lPhwDErxObxYdXosCiu9rgqPew5Mnj+RuCG0AYQ2AL5SImurdWJzCeoKpSrfh8DF/im/43X8vpJSbXMzzn4KJogDhDYA/ivLUwtnyVRHtuVm6NXVKuD4cHPOzfD6DFlBq9MiJcwt9FZ5WqkuZCMpAIQ2IH2tqnYWlatJ5zaVG1KXzhO/WnSKMkV5a5kpzkqTpp2GUuWx+rywljYuAIQ2IK2tqVarquyEi65pkVm55sr5qiTbt3CQn6ln5Sb+8KCjKvPSJKmcV6U2FHkYUuaoK+ZQ/QIgtAFpTSlZVuFct1AtLJPckHp5cAhoVZqj1tXpaxYECjL9DEmOlrrCxFceKcux5flpUufkZKh3rwgk+hHKbYvUolm0tAGYmgBFAMxEeZlqfZ0zPGZ7Imoo4r6wKr6VnJAuzFLluZKkoWNzS3TTkHQMTnlKQkCr5RVKp1FQec8a53/2myc7pz4lIUu9b43DDAAAhDbg3IpueZkiRakb0h5y1Noq+0hERaa4XMXKSlWel1Y5JSsoX782sOpHMZnStutK/ucSZ2U1vRwApoyKA8DUFGWrK+rVqZ7ZyVpSkZ69gSur1FM3OJI16bem1D+v0e9YzbxRAIQ2AClRkq0uq1dleRPMY9UiIUfW16k11VqnaW/ghnpn002BK6omfnuFOfLz1wc+cU2Q8wdAYugeBZCI4mx1TYM62OUe75feiHr5wrvZQakpVAvLpDArzb8crp+tf/3O0F3b3Lv3uxs7XqGrdF6hvGe+c8vaQE0hJw4AQhuAlHO0LKlw6ktlMGJ7Ru3I+KmprdaGHFWUrYuybX7GuTLYPjMgt57v3LxcH+2z21tMy7B1T4W3wpBaU60XluuqAs4XAIQ2AGdVRkDK81R53svHaZ1z0yOLstWabLWmhmEnAJKCygUAAIDQBgAAAEIbAADAOYIxbcDMZoyMxa15cc5i0FEZXNYAQGgDMH0MRe2JPts1YofGVOxUatOn9sTMz7Q1Bbq2UGk2SgIAQhuAsygal72d5mivjcbVqfXRfr82WCRue0blaK8py5UVlU5VPqUFAGmCMW3ADNMftg8ftvs77FhMrH3VXS+7R+SRw+7udkOJAUB6oKUNmEn6wnbjETsy6c3ad7VZY+yqajpKAYDQBiBVYka2NE0hsZ22p8PkZuqGkqTnNvfFRj3n7LXgGysx9+QftJbgWTqMnhE7Mi5dI5KfKfmZih5qAIQ24Jyzt8N0jdoEHrizzVbmSU4oKbltIGJbhqRzyI39LrQpVZCpa/JVRYGkZjJENG53ttktTbZ12EZda5UoJaVZanGZvniOKstNxUGMxeWX++0Dh9wDA6YtaptGlWTalZlqfq5cOce5cZlTSXoD4I06w5gYANPHSNT++nk3Gk8wf6yolJVVjr+H1B+x+zpM84DEjSj10spEixRk6eWVUlekkheaxl15pDF+z357dMCaP37103/NDqjr5ul3rNIlOck6CmvlgefNp59yt/UYUX84LeR0LXvqJ1nqP9bqW9cHskO+ve7gmC386rh4G7X4mzcHXrvA4foCZgRa2oCZoW1IonH9skQwWY09almFdfxr+GrscXe2S2T8d8HlpQdmTqY688RRmVci62qdkJOMMrHf2exubDYvzy2/+0k4bu855O7uNH9+vrO6Oik9pp99MP6ZHe6LBfHyTHfq/xH7F0+6T7bYL18TmFPCEEMAiWD2KDADWCudIybhxHYyu8Rs76hvx3Ow293Uon+X2M7saK88ccSNxn0uk45h+38fdR97pcT2cocH7T88Gt/a7PNcWtfI3/4i/pldk33anx0zb78n1jlE/wYAQhuQpsZdGR7z2jzTP+bPwZzoN9tblHGnEIDah9WWFj8DUyRmb382frB/Cs8ZjsuXnjaNvX4exne3uF/a74qZQgh7rtd+6jE3PE5uA0BoA9JR3NhIzOttfixmfUlLu9pV3Ez1qeyxXnu0z7fAdP9+81TrlN9OV8R849nfT5jw6FCP/cAT8QRaP7/zvPn1/umyfh6jmgFCGwCf76yu55urLzGhsccORhI8lH2d4ksnae+o/cG+BN/Nzm779HHXlw/lm8/EJbFnMvbft/nUX+z5rMhiEgJAaAPgo4CjsoNeu0dDjtdniLtyoj/xpDAUlu4RH0rj2RMyEE08rTxw0If42jUsv242CWemZ7vsVl/6iz1Paagp4C4AENoA+CfkSHbIa6NKfobXwxiKmv5I4odhxLYP+ZBUNp6I68SPQRoHpWnA6zHsbDOHhj0lpocOey2KnKC6usLTMVTnSXE2lxdAaAPg44WqpDhHe2lXCTqqPM/rYXSPem3Y6Y1Y4y18hsdt95j1knf6I9Ix7DUBH+0xHvsmd3d7PYaAI9fM8VSHX1vtFGSz/ghAaAPgq5p8CejEb/N1BZLhuXs0GveaM8Zd5XHke/eohKOe3ogROxjx2srVNWY9jicb9WNeyNUNjiQ8KE2pNy3WmswGENoA+Ks0R9UUJvjYgFbzy1R61DhRV8Y8d7G602DKZMCPD2RZhbptSYJrpL+pTl3ZwC0AILQBSIKVFSojOOVHKaXqi60v+2+qaRD88kIq1/NOLsF0aV8KOfKJS3RDwdTfTkA+fWUgkz1xAEIbgGTIz9Ln1+qpdnJW58lKn7Zvys3wmnUyg9ZjXirJkYyA9RIfQ47MykufTsGKAnX3GwKSM6UiUPe/IbSygp5RgNAGIGlmF6n1dTqgJ7XYg1KqtkAumqszAv7cnouzRHtbZKI8V3tsrgs50lDoqeIqz1YVuWl1Vqyr1U++MbigcHIlm6F+dX3w+kUkNoDQBiDJGkrVVQ1OeY5VZ4w/QS2Lyuwl85wM/7rAckOqPC/x4WABraryfTiMKxt0wrMZlJIlJVKam26R5eI5+vF3Bv9uVeCMlbq6dbGz713B1y0msQEzEiMagJmnPE+umK+b+s2RPtU3ao35/W4HjpJQUM0ulHnFqiTH53uzo2VeqUpsvQylVHmuKcryoc5ZUaEWFKpDA4kdhty8PD03AajMV1+4znn7Kv3YUfPQUXN/txVjT54ZjtpQIG+c71xVr1fXKPIaQGgDkFIhRzWUOg2lEh63A2EZMyfjiLKSE5LibOUkrQ19bpE+3uu2DSVywKuqHF8OLCek3rdaf/YJE576EiQ3Nej5pencw7CiUq2odG7b4MRc6Ry24XGZXaRCAWFpD4DQBuAsyw6p7FDqXk4rOb9OP9IoQ1NZeEMpvWyWKcnxrYnrgtnO25ao/9o9tf07zytz3rX6nBgTok4N/qstJKkBaYUxbQCmJjdDbZgjuaEpBIJls+ySCp87Jd+9Wr9loTPp1Cgry5xPXq6LssgxAAhtAM4ZpTnqyvmqumDiSaw5IXXxPL2q2v+qRin5wIXOx9YHcoIT/qa6Zrb69BU6/eYfADin0D0KIBEFmeryec6xfvdwjx6ImJj70kSVHZTZRXpxuWSHkhWVtJIbl+rza0P37nOfbDZdYfuSQW5FWWphobphib6gjjFdAAhtAM5VWkt9iVNfIt0jundMRcdfGOXmaFWYqcrzbMhJRVKqzJc/v9D5k+X6cK9t7pfYCzvSq9IcWVyuZheR1gAQ2gDglLJcVZb78uEWKuXHoGQ2nwaA9P2qTBEAAAAQ2gAAAEBoAwAAODcwpg2Y2UaidmhMRmMSdyU7JJlBKU3mjgiY/vZ12mePm8be383JkHlF6qK5emWlYg4tQGgDkGpx1x4fkCO9diBsXSPui0tdBLRkBlVNodQXq+JsbtHnlqePm29uNv/T5ErsZf/2jFxRqm5bH7h+kQ45FBVAaAOQEh3Ddker6Q0ra1+6+WbcyEjUPt8pjd2yoMysrHQC3KHPAYNj9guPul/c5b56zJfHOuxjv4i996Dz+asCpxZGBkBoA5BMx/vssydM3CiRM22XHjf2QJcaiZoL59Cykub6w/YDv3R/fMydzC/fedA9PmTuujFUW0jJATMMI1+AmaR54HRikzMnttOstU0D9qljbtyl5NKWa+QvH4j/+Kg7iTPiBY+323f+LDYQsZQeMLPQ0gbMGEMR88xxGzdTe1TroNrRZtbVJusbWjQu3SO2c1QGIzYWF6UkJ0PKcqUyV+VmqlSOqguP27G4dI/acExmF6qglhQfwFlx51b3zkNmqo96stN85Sn3M9dwCwAIbQCSYGebjCfSZmaP9Kg5RbbM7+3Sx+JyqNse6rGR8T9usxmRo70S0FKVbxaX6/K8pAenXW12W7N9utU9Mvj7IynPUudVyEW1el2tTt7+p2fXsX75200JtqP+3z3mTcvsikpmqwCENgC+6h21bUMJ9mfFjD3UI/6Gtq5hea7ZDL56F1vc2KYB1TFsF5fbFVXJaudrG5Tvb4s90mzNyxqbuiL2wWPy0DF3cZl91zJ94Zw0HA2y8ajpHUm0lzNqf7onvqIyyMUFzBSMaQNmhqZBiZnEU1fLgIy7vo1hahqQR4+cKbG9yI67dneHnBpX5/8Iqu2t9q9+G3+46RUS2+8YkX3d5m8ec3+0I91G9sWM/OKg8fIM9xyxjGwDCG0A/GSs9IeNSOL313HXdg37czD9Ybv5hBubdAiz1h7vV7vajb9lsqvNfnZjvH3E2EkciCP2jp3uPbtNOp0V0Zj9ubdS3T9gh6JcXgChDYB/Yq5Exr12bg77cXuOGftckxlzp3Yw1tpD3ap9yLcCaRuy//FMfCA6tRR7+/b4I4fjaXNWnCzPca/tZId7DNcXQGgD4GNos6Mxr7fnMT86KI/1Sd/oKyzqO6G4sfs7jetHQrAid+9wj0+94dBa+d4O2zvqQznYadCp2D9mffk+AIDQBsA3Somjzv7VHjNypNeYRHtpO0aka8SX4Gh+eyzBzuL2sH3okA/J0fvHEfdcEnmZPswsCXITAAhtAHwU0Cor6PUOnen5GUaitnfUw5MY60toe/yIHfPw8CeazJjnZsuKLCXeirPQc+SqzVfi8TNVUpfPXQAgtAHwT8iR3AyvOaMo0+thDEet9dAvaET6ItZjx6IV2d5uEt6Xy1ppH5WWQa9FUVvstfJcVeY5hQfk2nJPTzInX5XkcXkBhDYA/lFKZuVp8dC2kxVQxdleD2Mg4vUZRqPKWI/HYAdjnpJff1QSXvHud5ZV6upcT8+wwfO6cQFHbljgIbQpeetsXZTF4roAoQ2Ar2oKVFYg8agxr0wCnsdhTYc9ofojMhLzeBw27Ll7tLpA3j7HSThFry5Ra6p9KM2rGhxJOHWF5IYlSpHZAEIbAH/lhKQ+0Q61jKAsKEmTm7OxYqfHIhW3XuBIYrtjKfUP5zs5GT58IvNL1ZdX6UTStJIP1+sL5zpcWQChDYD/ls/SZdmJ3OlXVencjDQJbUWZkh3y2E6msoP+BKZvrJ96YFLygUX62iW+1b1/vsG5qW7Kb2dJgXzqSjawAghtAJIj4Mj5s1XuFFt3lszSC0rTpw+sOFvlhTzVXNkBKcvxp0A+sCHwV6sCU8htSt5Qqb9wjZMV9O0TyQqqr10fvGoq+74vKlI/flOonCkIAKENQPIUZatL56nSnMlOSlhRqVdXp9WoJaVkRZnjpcqryZW6It8O5p+v0Z9cqSf522+rU9+9KViY4/MnUlMod70p9N6Fkzkr1I1z9b1vCi6dxVg2gNAGIMlKctRV89XicskIyCsOI1dKaZHSHHVFvbOyKg1Hmr9mvqe3tK5a5YR8K5SQI5+/LnD/jcF1rzZq8NSPK3PlPy8P/NfNofL8pJRJVb5854bgfa93LqtQEnjlw5iTJ9+5zLn7zYGF5SQ2YGZ+a7XTYTcWAFM3ELHH+0xvWIbGVNS1p+/D+ZkqP2Rqipy6Qv/j2p4Os7PVU41RlKWuW6Qdb98WXSOfe3T8iWZJYEJCSZa+4/VOWa7/qSUal/sPmI0n7J5u97FhkbgSJWtyZXWJbKjV1y1yUtMdaaxsbjJPHzeNgzJ2atcFx1HzcmVtjb50ns5kGBtAaANwthgrkXEbO5VftEhGUGUEkvVa0yS0iciRXvMPD5v28NRimxZ123p949LkTpnsC9uhMRU/tR5dXqbMylVn8dw4+a5pVgPSRYAiAGY0rSQn45y7LdeX6A+stZ97UsWn8rXzTxbqNyxO+iIXxdmn1zFW0+HcAEBoA4Cz7LJ6JxyT7203fdHJLNymbpyvblnvOIzjBUBoA4AUu26RU1+iv7PV3dpplH3VIW5z8/VblzjXLqbdCQChDQDOkgVl6p9eE3juuPt0s9nUYgdiv/+nDC0rSvWFdfqSuaosl8QGgNAGAGdVyJFL651L6p3BiO0elcExe/qHVfkqLyOJ0zIAgNAGAFOmRAqzVGHWtJgBAADJwKBcAAAAQhsAAAD8QPcokCYs/YLTw1hconGrTq0fFwyoLDYhAEBoAzA4ZgcianDMDEdtzEh2QAqydH6GKs2VIM3oqRUelyeOmI3HzMZ2+2y/EffkD5fkq0ur9eU16rL5TkVeio6kc0gO9ZjGbtMXFSNSHJS6Yl1fpuYVk+qBmY1trIAZqT9iD3RJx5AdHT/dyvZHynP0vFJpKPV599Hps43VdPPgAfMfW90HW628Yo2qZHWp+uAy533nO0ndv/9Ir/3uZvPbZnd7rxX14nlx8g+qLt/eMDvw3pVqdS1xHiC0AUgJK7K3w+zvsOPuBL9ZnqcuqFMFmYrQljzjrnzp8finNpuXR+eXe88C5yvXO0VZKhlnxR3Puh981kj0jNtDaPnndc5tFzs5IVrdgJmHr1zADLO91e5slQkTm4h0DdtHD9vuEb6YJUvMyGcfiX9qszuZxCYidx1y33ef2x/2+RMZidq//XX8g4/HJ0hsImLk7ze5t94X56wACG0AkmtHm93fYScZEU7ezsftU8dfWG8Wvrtzq/tP28yUHnLvcfev749PJnNP3r8/5f7rrik8492N5q9/G4+7fIDADMNEBGDGaB+y+zunkNhOGx23W5rtFfVpvld6OGYPdNnmfhmLnyyfoFYV+VJfoiryktUPeLTP3roxPuWHWfmvRnPtPnPzCn8+j1/st/+4ecr5665DZv2z8Q9dzC0AILQB8Ju1sqPViEnggbZjWJoH7Jw0nTzYM2Lv2es+12rbRuxLugcrs2VRibp5hbOk3P/E+s1njcQTfOy/bo6/blEw2/PAsv6w/cIzCR2ElQ9vNa9ZZOeXMrgNmDHoHgVmhpZB2zemTKKB71BvevaQPtrofuh+94cHzLEh+/IBXe1heazZfujX7teeig9E/CyB5gH7/aPxhB++pdvuajXeD+Ohw/a57kTfV0Tu3W+4sgBCGwCfdQxbZRKPHb0jdnQ83XLbdze5n3/S7QybiTKrvfew+dyjtnfUtxLY12Z7I57aqB5s9HoMrpH7DrlT7S7/w4L5ySEzEmW8I0BoA+Af18jQmPXSKhI30jWaVh1hP9vj/mC/O8kyMSI7utx/ftyNxPzJKIe6jRhPT7Wt02sr17hrf9Hm6Ri29NjuYS4vgNAGwD/jroyMe41cw2k0h3RXm/vtnVMbfW/EbuuyP9ntT4dgX8yKt+Lsitpo3NsxjMqIx9VDrG0epIcUILQB8I9rbDTuNXJ5X0l7mizFPe7KXTvsWCKJx961xz3c40NM8d5oGYlLzPVUoK3DPnwe4TiXF0BoA+DjhapUQHvNCd6jStDzMSg/dnE60Gm2dSWYV+JWHjroQ9YJOMpj6CtzbG6GpyfJZSt6gNAGYLoJOZIb8ho1CjO8Bqa8TK9vJD/TeF8u7ukm8TD6XnZ1myHPM0nnFHp7G1YWlToej6GqQInH51BSk8eSHwChDYB/Ao7kZFgvzVRKSaHnyFWcJUFPLUxqlueI4BrZ1+Gp0bB5WJqHvBbF8golGZ7qz/NrvBZFbkhdUebpGCpzVEU+oQ0gtAHwlceV/YuyVGG219tzVlBV5yf+8JAjZTlejyESsyPGU2gLx6333T+XlKvri23iQ9uy9LULHe9R/tp5nsrzptmqOIfQBhDaAPiqrsgpyEo4aqj5pT4MJ1NKGkp1wqPrZhedzI4ej8GXuY5hz0vWBRz50LpEd5RR8qmFqjzPhzdy/UJHQjrhj/P1CxxNZgMIbQD8FdSydFaCN9iSHPFrD6uKfJlbnEjiCTmydFZafSLXLtb/Z6GTQGPb0mL1wYscX45hySz1iaUJfrJvmasvr+cWABDaACTB3GK9oGzKd+igo9bXqpA/IeFkRDmvWhdnT63qCGi5cI7Ky0yrCkdr+ccrnFUFamq5LaS+eU2gosCfDK2VfOwSZ8nUE3lJrnz+KieL+acAoQ1AMiiRVVWqIm8KMxICWq2ullJfxy1lBNSlc6Vs0mPsgo5aV6frCtOwtqkuVD+4IbBhknuuK5EM9avrA5fM9bMoynPUT98UXD6l3BaUH742yFbxAKENQBJlBNSVDYEFpRMv26aUKsjSF89VC8r8v8zzMtWV9WpBmQT0BMdQmqsur9cNJWmbD5ZW6Z+/LfiRpfpkJlNnSmxvrNI73xZ83WL/P47FZeonbwpeMrne84Yi9dxbgtcsoPIHZuBXd2vZLRiYeU70m/2dtiesXnGbgsygqiswyyud7FBy01L7sJzoMy0DEnnZhg2VeVKVLw1ljl89s6cNRe1H7o+dGPT0JH9/kfOahY6/RfHYYfe+A+arR0TGzEu+Gr93nn5tg37TCp+L4iX6w/aube7HtlmJvMpsjaD6x1XO/1nnVBdwAQGENgApFDMyFLGtQ7ZrRMZiSsRqpQqzbVmOqs5X2aHUHUkkJsNjMhg14fFT6wBnqKIsyQoqJwmtOdM2tJ3WOSTNg+b5btsTtgWZam6hzCvRVfkq4KTos+gYlo1HzSNHzc5u0zZuYqJmBdWqInVhrXrd4kBdIdcNQGgDgJSY5qFtWukdteOumpUnrOsBpIcARQAAaamEhXOB9MJYVAAAAEIbAAAACG0AAACENgAAABDaAAAAQGgDAAAgtAEAACClWKcNgFen92YYHRc5tatWyFEFmTbZO2hNTyNRe6DL9oZFWWVEirJsQ6kqZb00AIQ2AGfXQMQe7rHtgzYSl3H3xWpFS2ZQ5WfYBWW6uuBcWY5/f4e5c7t9tNVsG7Iy/uJOM0FZlKs2zHLeuUwurXcc+jYAENqAGS3uSjhurT3dTCUzoo0q7sreDnOgS+LmpVvhxY2MRO1IVNqGTEWBXVuli7LTObj1he1/PhX/9E4j7sv+LSbP99vn++Pfe17dssh+8lJnbskMKIrRcdsXPpm2jZW8DCnMoqUQILQB5zYr0j5omwakL2KicXV6H2BHS07IzsrTc4tsbsY0vVmOu/LccXNi4PSbONNb7BiUR8N2Xa2tK0rPVqaeUfve++L3nzATftrfO+g+1OL+9+uCl8+bpkUxFrObm83Go7YtbPvHxFFiRAqDqizbrq1xLp2rSG/A2cWG8cDZ0T5k93aYjuFX/YWQI/PL1NJZOmOafbdyjTx51G2eypbtQUcum6cr83245U+rDeMHIvZdP3fvP+FOusYVCeo9b3eWVU273PbkUfPfu9zGAauUKCt/GEK1nPxreY5+22L1+iVOyOHyBc4ORlgAZ8HeDrvxyJkS2+nWrH0ddmOj6R4x0+rgt7bEW4amFr9irjzXZCOxdPuK+MnfxO9vcqfwACsybj78oNs9PI3exfCYvf2Z+Kc2xhsHTn5A9o8Tm8gLf+0aNV/fZr78ZGwkyld9gNAGnBu2tcR3tNnY5JJY56h95LA92D1dbpPtQ/ZYbyIt9CNRu6c9rW72jza63zhoZOrvaWOn+eH2+DR5F/s7zCd+6/7s4KTehrX2wWP2355ww+PkNoDQBqS7o332+c5TC2NMWszI5ibzzAlz1luqrJXGHuMm2vB3vF/6w2lys3eNfHtrIontVDnKX+w0XUNnvyh+e9D99KNmb6+Z0jt5osV861mXaxkgtAHpLBKzO1ttYpnnSI99uNF2j5zNO304ZluGVcKdtbG4bR9Jk9B2qNv+b0fi78WE7RNHz2av90DEfvHx+L884/ZEp3wYRuS+o/a5E+Q2gNAGpK/nO91wzMONNmwfabS7292zNX2oPyzxuIekItI9LOmR2nY2G4l6eobHm87awe/tsJ98yH3gmDEe7hw/32/G4nYsTj8pkDos+QGkTtuw1/naMdfubldDY2Z1tUr9cm4Dnkegj4yLMZIGa8weGzRiPJSGksY+VyTV8zCNlXv3mv/a43qcTGDE7uhUzQMn/zy/lCsbILQBaWdoTInnliZr7bE+6R6RdbW2pjCl8cd47tBLmyWGYp6foSdqIzGbFUxd8u4alm9uim1sFuNHc+e4tbvazanQxhIgAKENSDtx41tmGRm3TxxXyyvssgrFgqep5z19aiU6hR/dlmb3ji32yKCfqfn5bk4EgNAGYBJc1+5utV3Dsr5W52Wm4vYfcHxIKh6Dih9tdSrTc/tWrudnKAulaNnkaFx+usf91i5X+93MOcqCbQChDcAkGZG2IfXIEbumWmoLk57birO8PkNBltf947OCKjPgqZc5y7GlnvdCXVSmRTxMn7SysiIVXdvNA/a7m92NrUYn5/QDkErMHgVSRyWlO8wOj9knjtmtzfFYku+iBZkqK0N7eftl2V4PMeTIAm8j+cpzVGWB16JYVK60t+R3yZykh+zNTebjv41vbE3WaZEdOvkfAEIbkJahLVnPbIw90KUfb3T7I0nsscoKqpq8xNtssjOkptCHQesXzPZS5aklJVLkeePzhlJ1S62SRJ9mValKamgLj9tvPRf/+8fjHaNJPB/mF6n5RYyoBAhtQDrKy0jq09uOYXn4sG3sTeJ9uqFEQokO52ooFl+WKVlbrVeUJF53vWGJP7MdP3RRIMElO7T6m/Oc3KQNQ2wasP/0qPnR8zbuJvcbSH3Jyf8AENqANFSRm/SXGIvZZ4/bLc0mSTfs0lxnaYWSqTcxleaoReX+VDgZAfXWFRJMaHDc9fNkiU+HsbJCfXGNk0Bj2zvn6jcsT1bd+2ij+9e/iT/d7tokL6+ysEgvrjj5H9c1QGgD0tCCMhVyUtCdZJ/vso8cMb3J6RpbXKYayqb2zDkhdUGdCvm3ntcFdYG3LpryihkrSvT71vk5++rDFzsfXaKnVI8uKVSfv9rJzfD/NAiPyzefdf/lGdMVsSm4c1zXoPMzVH4G3aNA6jif+cxnKAUgNTKDyljTNZKK+9zouDQNSEZAirN9fjmlpDpfx13VM7lQWJylLp6n/D0MrWRZpe4ctMcGJtugtKBQ/cMVwfI8Pw8j6KjXLHDCA/JM16SO4vW1+vtvDNaX+n8CHOu1n9voPt5kUrOt1Opyfev5ToBv/UBqKWtZaAdInZixTx+3LQOSskuvvlTWVDvJWBLs+IDsajVDY6/6RoJa1ZfKsgqVpHX/x135+V7z3Z1x15x5+Qn12tn6lnVOeV5SStg1cu9e83dPxRsHrbzaaiSZ+our1AcucPKz/C+KRw6b725328MpOqOqc9W/XBNIwRIzAAhtwFk27sqmE+Z4f4ouPaVUUaZaV6uSEVnirj0xICf67XD098PetVZZQZmVpxqKJQWr/h7pMz/fY7Z327Zh+4djPoxIZkCWFDnXLZCrFyS9W3pwzP7qgP3lwfjeAWkct7lKXCulAVmUry+vU29bGagu8P9F+yP2e5vj9x9LXUXeUKj+5uLAgjISG0BoA84N1sq+TrO7zbqpuv5Cjqys8m0qwMuNxWwk/kIzU1BLbsqHOrUNyaEu0zRoI6c6CLWyVXlOXZFaOkvp1B5L17D0j1mtTn7K2UFVU5isFzrYbb/yrHuw1/qyl+hkvHa2umVdMEkNlgAIbcD01T5kNzebobGUXe5qTpGsrVGp3KQcyeAa+fm++A922YFYiirwggz50+XOjcsczbkDENqAc1N43O5qk8Zek6rYpnJDdn2drsrn3jtT9YXtdzabB44ZSVUD29IS/cHznaWzOGcAQhtwbrNWDnTbHa3GpGorx4CWFVV6cbmi1WTG2d5mvrHJNA6k6FzRItfN1X+23inK5lwBCG0ATukcsjvabfeIpKb5RItUFsi6Gp2CiQLwRTQu9+8339npRlI1EDI/Q314jX7NQofCBwhtAF56V97Rag/3mJS9Ym6GWl+rkzGrEf7qGpZvPBd7vCVlM45lWalz2wV6fimZHiC0AXgVh7vtnnY7GkvdgiBLZsnySh1kodTpakuzuWOLOTpkUlNba5E3LdTvXePkstsBQGgDcGb9Ybup2ZzqKk2R6gK9qsoWZxPcppeYkR9uj/9wv4m4KYprBVnqI2v1lQ10iQKENgCT4xrZ0Wae70rdBZoVUutq1OwiGlemi9ZB+eam2NNtqTsHlpepv7goMK+YcwAgtAGYoqN9dluLHUtVV6mj1MJytbxSUrKrPc7kyWPu7VtN50iKZqUYkfcsc966UueE+OgBQhuAhAyO2S3NpmM4dZdqWa5cUKcLs2bkzXskaiOxUwFUS16mmokD9SIxe/cO88P9rrGSmjkp5Vly2/mBi+fSOQ4Q2gB44xrZ0eoe6ErdK2YF1Hk1qr5kxuS2rmG7tcXu63SPj+ieUWOthAIyv1DmFKo1Nc6yihnzRo722a8/G9/ZnbqKeUOVvnW9Q7c4QGgD4JuWAdnSbEZjkpprVovMLZW1NU5oeg9JHx23P93rPtho2kZfqYJTkuPIukr1vrWB2sLpnks2HjFf2+L2RyQ1e4kGlLx3hfMnK5zMAJcXQGgD4KuRqH2uyW0fSl34KM1R62qlNGeadpw1D9gvP2V2dk88tbI4W39otb5q/jR9I0NR+93N8V81Ssq2fq8v0O9fq9fX0SUKENoAJEfMyIFOu7vdpOzCDTmyslItmjXt7u6dQ/bjv403DU+2ILSoj6zTNy2bdi2HR3rl68/Gd3fblCW2q2r1n60PVOZzPQGENgBJ1jpot7TY4bHUXbz1pWpVpcqeNlMLh8fs3/3WPdA7taCTG5AvXBNcPm2GuFkrDxx0v7nVDKdqgnBeUL13VeDNyxjBBhDaAKTKSNTuaJXj/VZS1TxTkKUuqNXledPi7f+/be73dpsE3vviEv3v1zlZwbOfWnpH7Q+2u/c1pq6BbXa++ssLnZVVdIkChDYAqWVF9nfZvW1m3E3RKwYdtazCLi53nLN63+8ese+9NzYaS/DhH78g8LrFZzm47O2w39jk7u9L0T6zWuTaefrP1jnF2bSxATMYs4aAGfuVS2RpuSrP1pubbF9EUtDkFnPtjjbVEzbranRO6Ky98ceO2IQTm4hsPGaunq8zzl7l95Pd5q7dbsq6RHMDcst5zjQczAeA0AacW8py1VULZGuLPdabkteztrlfhsbsqipbV3gW2qusyJYWTw1UhwakZcjWn43NmvrC9tub4vcft6kJUEqp+UXqoxc4S2fRwAYQ2gBMA5kBdfEcVZFnt7eYaDwVrzgYMU8cU8tn2eWVSqc2D4xGbZ+3GRgDUdtxNkLbrjZz+2b3cH+KEpsWuWaO+sD5TlEWiQ0gtAGYThpKVFGm2tRke8OpeDlr7O522x+WNTU6LzN1saBrVPpiXo99NJrSj8Y18qNd7t173FE3RXEtJygfXh947QLmHACENgDTUkmOvnqB7Gh1D/ekaI5R86AMjMmaGpuy/Qbirhgfhu+nbgJW25D9zmZ3Y7MxqXrFhSXqLy8KzC+lgQ0gtAGYxkKOnF/nlGS7O9tVZDwV0WQ4ajYelSVlsqrGSUFXaXG2ZIXsoKemMuWkqk93U5P52ia3fcSmJrFpUe9Yom9eqQsySWwAoQ3ATNBQ6pTm2OeapGc0FXuVWiv7ulRvxF1XpwuTHBcKslRpUHdI4ikoy7HluUnPNOFx++M99s7dcS2SmsRWnqU+uFZf3sAsUSBtMeIBSE+FWerKBr2g1CqVmkYX2zEsjzTaI33JzYhBLfOKPFVcs/PUvOLklkXroHzqEffO3XFJUWJT6yudL742QGID0hstbUDaCjmyvs6pzJctzWY0dqpBLMnCUfvMMekdsauqdShp+eGSufKLI4k/fGm5yslIYpB9+LD7vZ22cyRFY9iytbp5qX7neU6IwAYQ2gDMaLWFkpehNjeZrtHUzE6wB7ulf8ysrVYlOUnJRmuq9XnlekeXSSzIviZpcyojMfmf7e7d+03KdqaqztUfWu9cNJsRbMA5gW2sgHOCa2R/p93Tbt1UXfJBR62p0Q2lkoxAsafDfPTBeAITMm9Z4bx7TVKapBp77B2b3a2dKZskKpfVqPevD1QVkNgAQhuAtNM6KFtb7NBYioKFUmpOkV1To5OxQfvP97pf32LNVMaMXVTpfPIKnYy+0QcPuXfusO3hVO0lqtX7V+mblzuaYckAoQ1Auhodt5ubbctAitYqU0oVZ+m1NVKe5/+T37PLfH27O5k3okUurNJ/scEp9Xve6Oi4/fZm95eHU7cMW12e+uA6fcFshrABhDYA54D9HWZ3u42lKmgEHbW0wi6v8D9nPHHUfH+He2JIzjCMLC8ob1jgvOc8JzPo86s39tj/fM7d0Z2ylkt5TZ2+ZV0gGQkYAKENwDTVMWw3NdmhMZuqwKHmFMmaGuV7V2nHsDzW6P7mmGkb/qMYqkVyM9TVdfq6RToZ2wPct8+9a4/pjaSoALMD6l3L9dtWOpoxbAChDcC5JhKz21rssb7UVQL5IVlXq6oK/R+KNe7KiT7bPGhO9fxKYbaqzpeGUpWMvQH6w/ZbW+K/OZqiLmYtMq9Q3XZBYEUleQ0gtAE4hx3sttvbbDyeoqrAcdSKCllWMVOH0O9qM9/aYvb3pa5L9LWz1Z+tD5TmkNgAQhuhDTjndQ6ZbW2qdzRVkx9FqgvsulonqYvc+s41cu9ec8eOeMrGAhZlqFtXO9cuokcUAKENwIvG4rKrzR7qsZKiOkHlZqh1NaqmcGaUT9ew/d4W8+AJN2W5dnGZ/vA6vXgWq3oAILQBeJmDXWZ3h4zFUlQtBLRaWC4rK7UzvZPJzlb75efizUMpKhZX5J2LnHev0TkhmtgAENoAvIq+sN3UbHpGUlcL1eTLqmpVlD0dA0o0Lj/aGb97n4mmqku0NEO/f626ZgHLsAEgtAGYyLgrezvsvo7U7ciUGVRratS84umV2zqH5Nub44+22JTVk6vL9AcvdBpKaGADQGgDMGkn+u3mZpuyrlIRtWSWWlYhGYFpEVmePOp+d5s5MZKit69F3rFEv2dtIEQTGwBCG4CpGojYHS2mbUhS1uZWki0XzNbFZ7WrdNyVH+5w797npqxLtDBDffR8fUU9eQ0AoQ1AooyV3W3uvo4U5TalJKhlba2uP0tdhE0D9j+fdbd0pG4v0Q1V6tb1gdlFdIkCILQB8Kx5wG5ttiPjqasu6ktlTbVOcVfpo43m29vdjtHUvc33rXDeutLJCHCKASC0AfBJeNxubjLNg6mqm5QqzpJ1taosNxW5bTRq/3ub+5NDJmU1Yk2evnW1unQeXaIACG0A/Gat7Ou0u9uMm6pqI+TIyipZVJ7cZHO0z371WXdXl03NXqIi6qpadcu6QFUB5xQAQhuApGkblM3NZjiaoqpDKTWnWNZW68xgEmKoyC/2uf+9y/alatJBdkDetdR5y0onQBMbAEIbgGQbjdqd7XK0N2VNU5KfqS6oVbPy/ewqHR6z399qfnbYpOxdNBTqD67Xq6vZmQoAoQ1Aqlgr+7vsrnbjpmg3Tgk6sqpKLyxTyo/kdqDTfGOT3dObur1Er53n3LJWl+QwSxQAoQ1AynUM2+2t0juaqvUxlNQUqvXVKifjlaNPJGZP/tIpjpZXXKjWNfLrA+aOHe5oqtYNzg7IrecFblxGAxsAQhuAs2csJltbzPF+SVllkp+p11TbmkJ9OoEd6LKbmszeDmkecgddOT3yzRXRjpqdo+YVqvOqZHXNC01c/WH7rU3x3xxP3T4HDcX6tvOdZRU0sAEgtAGYBhp77PZWE42rFIwPCzon666KfLu9xd59wG4bNHK6k/MML56p/88cdfUc9WiTPTJgYyZF9d4b6tWt6wN5mSQ2AIQ2ANNGz4jZ3Gz7IkmsVbSWkJLGPvPAcftkj5X47/pCJ5/4pCFbajKVoyWetMpPi+QE5QNrAq9bTJcoAEIbgOknZmRnqznYnZSu0oyADEbkwaPmnhYjYyKBqSc2ebEpLkOty5P8ULJy27IS9ZELAwvLaGADQGgDMI0d6TU7Wmwk7nNiO9pnv7XPPd4v4iQU114S3bTU5Un9qZ3p/Z1G8ZbFznvO07kZJDYAhDYA095AxG5ptp0j/jS5ZTqytd1+aa/7QgObL04dV26OWlsgyvqT23Iz1MfW6avns2wuAEIbgJnDWNnW4h7q8pqHgo5sa7X/tsc9NSPU76O0onPUJfmilHirC9UFlfqWtXp+KQ1sAAhtAGag5gHZ2mJHx21iVU1GQPZ2ms9tMyejX5LG9J/KbRsKRCdaF7qi/nSJfudqJyvIBw6A0AZgxhoes5uaTPvwlB8Y1NIyaD++1UjUSlJnYVqpK5D5OSqBeQk1efrW89Sl9XSJAiC0AZj54q7d3ym7O6bQ3qa1xOL2q9vdnV3+jWM7U10oK4ulNDSF3KZFnV8lHzo/UFNIlygAQhuANNI6aLe2ylBkUoPcQgF56Kj93l53sontd5vX6z/4yeTTlBUJqctKJvvrOY565wrnbSu1JrABILQBSD+j47K12TQNyJk3TtBaBsLy4U2ujNmJg9fpZwrqt9TJpTWqKOvkA6Jxeei4+WGzkfEp5LZ5BTJ3Ep2ktfnykXWB9XUsnAuA0AYgfVkrBzrNng477r7q72QE5Mf7zD1HzMTNbFYkU316mfO+dU5Zjs0O/T7iReMyGJEHDrr/utXd128nE9okqDaUSEi96oxXLerK2eoD5zulObSwASC0ATgHdA3Lc81mMPIKTW4BJcMxef8zcRk9tY7uGRi5aa7++0sCa2vVmV/rcxvd2/fGJ94W1cqCIlWb9co7JYQc+dPl+u2rAnSJAiC0ATiHjMXslmZzYuClC6RlBuWJ4/b2Pe4EM0atvKVe3359sCxv4teyVr72lPuxp+IThjbJVJcVvayiVDK3QH14vbO6mi5RAGcNFRCAsyMzqC6Z56yr1RlB9YdV0lhM9vWaCdbkNbKhXN3+usBkEtvp1PXRS5yPLp9oITUlMm6j7snf/8NDurpOfeXaAIkNAKENwLlrYZm6Yp4UZ7+QkrSWkah9bMCeqWPUigTUF64MlOVOrZ/yc1erC8r0BJ2kRgZe7BzVIhlaPnp+4O8uD+Zn0ScKgNAG4NxWlquvnq8bypTWSikZGBMZPeNqHVbev0gnMHkzL1N98Dw94XTUlqg6XTnWF6kvvzZwwxLtUFMCILQBwOnpohfW6fU1khlQ3eEzNoVZkYDctNDJSGjF3Tcv15I1Qb03ErcBpW5aoL/02sCyCipJAIQ2APhj88v0FQ1aRJ25MWxOjrpkXoIvkR1S765RE/SQKvWxdc5HNgSK6BIFQGgDgFdUkCnVeROEtrk56g/XY5uqy+rO+Fgl87LsFQ3ENQCENgA4o/29E2w/FfC2OfuSigkCmbESjvE5ACC0AcAZZTnJXTxyZGxyuyMAAKENAM6gJn+CX4i7np5/R/sEiSykhOmiAAhtADCBwswJfuGxQds+lPjzP906QWgrCamibMa0ASC0AcAZ1RScsV5SImP26RMmsSdvGbC/6DBnHjO3sJCKEQChDQAmsrB8gtmj4sqP97nh8UTGnf1wR1yiE7SirSinmQ0AoQ0AJlKSLcuL1JnrrZ8cN786MOXQdqjbfnGvO+Esg/NrCG0ACG0AMJHibPXmhomqJiNvfTR2qHsKua1n1P7Vg27v8ASBrLpg4jVBAIDQBgAnbajTE1ROSiQsf/Kz+OGeSeW2jmH5wH3ur5rdCTpelfzpHJ2fSWgDQGgDgEm4eI7aUDTBEruiZU+vWXD3+L37THj8TL/43HFz0//G7jk+iZVCtLp+kdZkNgDTkrKWRSQBTDt3bnH/v0fiEy9ya0+mt/fMd25YoNfX6prC3/9Lf9g+flSePm6+vM8VM6mK7p31zl03BwhtAAhtADBZw2P2uh/Enp7kqDUjElBL8mV2rlTnOWHXDoZtU9ju6ReZfBWn5Om3By+aTf8DAEIbAEzFgwfMtb+KS3xydZR9IXglWhfKbYudr94QoNgBTFt8pwQwTV29UH98qTP51CUeujVXlahPXO5Q5gAIbQAwZY6WT1+pL6tIfjUVVN+8NlBRwFg2AIQ2AEhIbqb6/o2BRQXJfA0ld13qXFBLZQiA0AYAHswtUj+6MVSXn6wq8M4rnHevp2MUwAzARAQAM0Bjr731V+5jba6fT5ql/meDfsc6Jh8AILQBgH+Gx+znH3a/tM8VK+K53rqsQv/b1c5aekUBENoAIBl+sdf807Pxzb028dyWqf9tjb5lnS7MYuYBAEIbACRN76j99X73X7aa/YOnqq/J1GHq1K9l6k8v03+6xplXTCkCILQBQErEXXn0sHmw0WzqME93n6zMXi29leTKtWX64tn6hqVOZT4lB4DQBgBnQ8+IPTEgrf32yIBpHRbXWCUSE6nMUXUFqr5YzcpX84rpCQUw4zEIFwAAYAagpQ0AAGAGoKUNAACA0AYAAABCGwAAAKENAAAAhDYAAAAQ2gAAAAhtAAAAILQBAACA0AYAAEBoAwAAAKENAACA0AYAAABCGwAAAAhtAAAAhDYAAAAQ2gAAAEBoAwAAILQBAACA0AYAAABCGwAAAKENAAAAhDYAAABCGwAAAAhtAAAAILQBAAAQ2gAAAEBoAwAAAKENAACA0AYAAABCGwAAAKENAAAAhDYAAAAQ2gAAAAhtAAAAILQBAACA0AYAAEBoAwAAAKENAAAAhDYAAABCGwAAAAhtAAAAhDYAAAAQ2gAAAEBoAwAAILQBAACA0AYAAABCGwAAwAz0/wcAAP//u4tTN+QckeQAAAAASUVORK5CYII=;" parent="6RKZ_3p5JFmJuiaVcuDi-51" vertex="1">
          <mxGeometry y="5" width="66.95" height="30" as="geometry" />
        </mxCell>
        <mxCell id="nHozH7aZE5zu8DyxtDVJ-71" value="Vertex AI - Generative AI Studio" style="text;html=1;strokeColor=none;fillColor=none;align=center;verticalAlign=middle;whiteSpace=wrap;rounded=0;fontStyle=1" parent="6RKZ_3p5JFmJuiaVcuDi-51" vertex="1">
          <mxGeometry x="66.95000000000005" width="160" height="40" as="geometry" />
        </mxCell>
        <mxCell id="6RKZ_3p5JFmJuiaVcuDi-52" value="Com o uso dos campos &lt;b&gt;Context&lt;/b&gt; e &lt;b&gt;Examples&lt;/b&gt;" style="shape=partialRectangle;html=1;whiteSpace=wrap;connectable=0;strokeColor=inherit;overflow=hidden;fillColor=none;top=0;left=0;bottom=0;right=0;pointerEvents=1;" parent="1" vertex="1">
          <mxGeometry x="590" y="440" width="275" height="40" as="geometry">
            <mxRectangle width="275" height="40" as="alternateBounds" />
          </mxGeometry>
        </mxCell>
        <mxCell id="6RKZ_3p5JFmJuiaVcuDi-57" value="" style="shape=image;html=1;verticalAlign=top;verticalLabelPosition=bottom;labelBackgroundColor=#ffffff;imageAspect=0;aspect=fixed;image=https://cdn4.iconfinder.com/data/icons/web-ui-color/128/Checkmark-128.png" parent="1" vertex="1">
          <mxGeometry x="445" y="290" width="20" height="20" as="geometry" />
        </mxCell>
        <mxCell id="6RKZ_3p5JFmJuiaVcuDi-58" value="" style="shape=image;html=1;verticalAlign=top;verticalLabelPosition=bottom;labelBackgroundColor=#ffffff;imageAspect=0;aspect=fixed;image=https://cdn4.iconfinder.com/data/icons/web-ui-color/128/Checkmark-128.png" parent="1" vertex="1">
          <mxGeometry x="445" y="330" width="20" height="20" as="geometry" />
        </mxCell>
        <mxCell id="6RKZ_3p5JFmJuiaVcuDi-59" value="" style="shape=image;html=1;verticalAlign=top;verticalLabelPosition=bottom;labelBackgroundColor=#ffffff;imageAspect=0;aspect=fixed;image=https://cdn4.iconfinder.com/data/icons/web-ui-color/128/Checkmark-128.png" parent="1" vertex="1">
          <mxGeometry x="445" y="370" width="20" height="20" as="geometry" />
        </mxCell>
        <mxCell id="6RKZ_3p5JFmJuiaVcuDi-60" value="" style="shape=image;html=1;verticalAlign=top;verticalLabelPosition=bottom;labelBackgroundColor=#ffffff;imageAspect=0;aspect=fixed;image=https://cdn4.iconfinder.com/data/icons/web-ui-color/128/Checkmark-128.png" parent="1" vertex="1">
          <mxGeometry x="445" y="410" width="20" height="20" as="geometry" />
        </mxCell>
        <mxCell id="6RKZ_3p5JFmJuiaVcuDi-61" value="" style="shape=image;html=1;verticalAlign=top;verticalLabelPosition=bottom;labelBackgroundColor=#ffffff;imageAspect=0;aspect=fixed;image=https://cdn4.iconfinder.com/data/icons/web-ui-color/128/Checkmark-128.png" parent="1" vertex="1">
          <mxGeometry x="445" y="450" width="20" height="20" as="geometry" />
        </mxCell>
        <mxCell id="6RKZ_3p5JFmJuiaVcuDi-62" value="" style="shape=image;html=1;verticalAlign=top;verticalLabelPosition=bottom;labelBackgroundColor=#ffffff;imageAspect=0;aspect=fixed;image=https://cdn4.iconfinder.com/data/icons/web-ui-color/128/Checkmark-128.png" parent="1" vertex="1">
          <mxGeometry x="445" y="490" width="20" height="20" as="geometry" />
        </mxCell>
        <mxCell id="6RKZ_3p5JFmJuiaVcuDi-63" value="" style="shape=image;html=1;verticalAlign=top;verticalLabelPosition=bottom;labelBackgroundColor=#ffffff;imageAspect=0;aspect=fixed;image=https://cdn4.iconfinder.com/data/icons/web-ui-color/128/Checkmark-128.png" parent="1" vertex="1">
          <mxGeometry x="445" y="530" width="20" height="20" as="geometry" />
        </mxCell>
        <mxCell id="6RKZ_3p5JFmJuiaVcuDi-106" value="&lt;span style=&quot;font-weight: normal; font-size: 18px;&quot;&gt;Have?&lt;/span&gt;" style="text;html=1;strokeColor=none;fillColor=none;align=center;verticalAlign=middle;whiteSpace=wrap;rounded=0;fontSize=18;fontStyle=1;fontFamily=Tahoma;" parent="1" vertex="1">
          <mxGeometry x="960" y="240" width="90" height="40" as="geometry" />
        </mxCell>
        <mxCell id="6RKZ_3p5JFmJuiaVcuDi-107" value="&lt;span style=&quot;font-weight: normal; font-size: 18px;&quot;&gt;How/Where?&lt;/span&gt;" style="text;html=1;strokeColor=none;fillColor=none;align=center;verticalAlign=middle;whiteSpace=wrap;rounded=0;fontSize=18;fontStyle=1;fontFamily=Tahoma;" parent="1" vertex="1">
          <mxGeometry x="1240" y="240" width="90" height="40" as="geometry" />
        </mxCell>
        <mxCell id="6RKZ_3p5JFmJuiaVcuDi-108" value="&lt;span style=&quot;font-weight: normal; font-size: 18px;&quot;&gt;What is?&lt;/span&gt;" style="text;html=1;strokeColor=none;fillColor=none;align=center;verticalAlign=middle;whiteSpace=wrap;rounded=0;fontSize=18;fontStyle=1;fontFamily=Tahoma;" parent="1" vertex="1">
          <mxGeometry x="-320" y="230" width="90" height="40" as="geometry" />
        </mxCell>
        <mxCell id="6RKZ_3p5JFmJuiaVcuDi-209" value="" style="shape=table;startSize=0;container=1;collapsible=0;childLayout=tableLayout;" parent="1" vertex="1">
          <mxGeometry x="-590" y="280" width="630" height="200" as="geometry" />
        </mxCell>
        <mxCell id="6RKZ_3p5JFmJuiaVcuDi-210" value="" style="shape=tableRow;horizontal=0;startSize=0;swimlaneHead=0;swimlaneBody=0;strokeColor=inherit;top=0;left=0;bottom=0;right=0;collapsible=0;dropTarget=0;fillColor=none;points=[[0,0.5],[1,0.5]];portConstraint=eastwest;" parent="6RKZ_3p5JFmJuiaVcuDi-209" vertex="1">
          <mxGeometry width="630" height="40" as="geometry" />
        </mxCell>
        <mxCell id="6RKZ_3p5JFmJuiaVcuDi-211" value="" style="shape=partialRectangle;html=1;whiteSpace=wrap;connectable=0;strokeColor=inherit;overflow=hidden;fillColor=none;top=0;left=0;bottom=0;right=0;pointerEvents=1;" parent="6RKZ_3p5JFmJuiaVcuDi-210" vertex="1">
          <mxGeometry width="630" height="40" as="geometry">
            <mxRectangle width="630" height="40" as="alternateBounds" />
          </mxGeometry>
        </mxCell>
        <mxCell id="6RKZ_3p5JFmJuiaVcuDi-212" value="" style="shape=tableRow;horizontal=0;startSize=0;swimlaneHead=0;swimlaneBody=0;strokeColor=inherit;top=0;left=0;bottom=0;right=0;collapsible=0;dropTarget=0;fillColor=none;points=[[0,0.5],[1,0.5]];portConstraint=eastwest;" parent="6RKZ_3p5JFmJuiaVcuDi-209" vertex="1">
          <mxGeometry y="40" width="630" height="40" as="geometry" />
        </mxCell>
        <mxCell id="6RKZ_3p5JFmJuiaVcuDi-213" value="&lt;div style=&quot;&quot;&gt;&lt;span style=&quot;background-color: initial;&quot;&gt;Studio ou Playground é onde são produzidos prompt design/engineering. E o que é prompt desing/engineering?&lt;/span&gt;&lt;/div&gt;&lt;span style=&quot;border-color: var(--border-color);&quot;&gt;A arte e a ciência de descobrir que texto alimentar o modelo para que este possa ter o comportamento pretendido.&lt;/span&gt;" style="shape=partialRectangle;html=1;whiteSpace=wrap;connectable=0;strokeColor=inherit;overflow=hidden;fillColor=none;top=0;left=0;bottom=0;right=0;pointerEvents=1;align=right;" parent="6RKZ_3p5JFmJuiaVcuDi-212" vertex="1">
          <mxGeometry width="630" height="40" as="geometry">
            <mxRectangle width="630" height="40" as="alternateBounds" />
          </mxGeometry>
        </mxCell>
        <mxCell id="6RKZ_3p5JFmJuiaVcuDi-214" value="" style="shape=tableRow;horizontal=0;startSize=0;swimlaneHead=0;swimlaneBody=0;strokeColor=inherit;top=0;left=0;bottom=0;right=0;collapsible=0;dropTarget=0;fillColor=none;points=[[0,0.5],[1,0.5]];portConstraint=eastwest;" parent="6RKZ_3p5JFmJuiaVcuDi-209" vertex="1">
          <mxGeometry y="80" width="630" height="40" as="geometry" />
        </mxCell>
        <mxCell id="6RKZ_3p5JFmJuiaVcuDi-215" value="" style="shape=partialRectangle;html=1;whiteSpace=wrap;connectable=0;strokeColor=inherit;overflow=hidden;fillColor=none;top=0;left=0;bottom=0;right=0;pointerEvents=1;" parent="6RKZ_3p5JFmJuiaVcuDi-214" vertex="1">
          <mxGeometry width="630" height="40" as="geometry">
            <mxRectangle width="630" height="40" as="alternateBounds" />
          </mxGeometry>
        </mxCell>
        <mxCell id="6RKZ_3p5JFmJuiaVcuDi-216" value="" style="shape=tableRow;horizontal=0;startSize=0;swimlaneHead=0;swimlaneBody=0;strokeColor=inherit;top=0;left=0;bottom=0;right=0;collapsible=0;dropTarget=0;fillColor=none;points=[[0,0.5],[1,0.5]];portConstraint=eastwest;" parent="6RKZ_3p5JFmJuiaVcuDi-209" vertex="1">
          <mxGeometry y="120" width="630" height="40" as="geometry" />
        </mxCell>
        <mxCell id="6RKZ_3p5JFmJuiaVcuDi-217" value="" style="shape=partialRectangle;html=1;whiteSpace=wrap;connectable=0;strokeColor=inherit;overflow=hidden;fillColor=none;top=0;left=0;bottom=0;right=0;pointerEvents=1;" parent="6RKZ_3p5JFmJuiaVcuDi-216" vertex="1">
          <mxGeometry width="630" height="40" as="geometry">
            <mxRectangle width="630" height="40" as="alternateBounds" />
          </mxGeometry>
        </mxCell>
        <mxCell id="6RKZ_3p5JFmJuiaVcuDi-218" value="" style="shape=tableRow;horizontal=0;startSize=0;swimlaneHead=0;swimlaneBody=0;strokeColor=inherit;top=0;left=0;bottom=0;right=0;collapsible=0;dropTarget=0;fillColor=none;points=[[0,0.5],[1,0.5]];portConstraint=eastwest;" parent="6RKZ_3p5JFmJuiaVcuDi-209" vertex="1">
          <mxGeometry y="160" width="630" height="40" as="geometry" />
        </mxCell>
        <mxCell id="6RKZ_3p5JFmJuiaVcuDi-219" value="" style="shape=partialRectangle;html=1;whiteSpace=wrap;connectable=0;strokeColor=inherit;overflow=hidden;fillColor=none;top=0;left=0;bottom=0;right=0;pointerEvents=1;" parent="6RKZ_3p5JFmJuiaVcuDi-218" vertex="1">
          <mxGeometry width="630" height="40" as="geometry">
            <mxRectangle width="630" height="40" as="alternateBounds" />
          </mxGeometry>
        </mxCell>
        <UserObject label="https://cloud.google.com/ai/generative-ai?_ga=2.142227122.-1033308723.1691505625&amp;_gac=1.215017317.1694294666.CjwKCAjwjOunBhB4EiwA94JWsFxbsQLqNJbIcpcS5eH8JCz8Ia-FHw8Ww8tNi_PLzU60ccVklsdb8hoCeLcQAvD_BwE&#xa;&#xa;&#xa;https://smith.langchain.com/hub&#xa;&#xa;https://spellbook.scale.com/app/financial-assistant-o73q31msr/prompt" link="https://cloud.google.com/ai/generative-ai?_ga=2.142227122.-1033308723.1691505625&amp;_gac=1.215017317.1694294666.CjwKCAjwjOunBhB4EiwA94JWsFxbsQLqNJbIcpcS5eH8JCz8Ia-FHw8Ww8tNi_PLzU60ccVklsdb8hoCeLcQAvD_BwE" id="w1xGYGU2ZCpebzclB80Q-1">
          <mxCell style="text;whiteSpace=wrap;" parent="1" vertex="1">
            <mxGeometry x="-660" y="-230" width="910" height="190" as="geometry" />
          </mxCell>
        </UserObject>
        <mxCell id="Q3NzAb_6QXpIOXe42pcN-8" value="" style="shape=image;html=1;verticalAlign=top;verticalLabelPosition=bottom;labelBackgroundColor=#ffffff;imageAspect=0;aspect=fixed;image=https://cdn4.iconfinder.com/data/icons/web-ui-color/128/Checkmark-128.png" vertex="1" parent="1">
          <mxGeometry x="445" y="570" width="20" height="20" as="geometry" />
        </mxCell>
        <mxCell id="Q3NzAb_6QXpIOXe42pcN-9" value="Com o uso dos campos &lt;b&gt;Context&lt;/b&gt; e &lt;b&gt;Examples&lt;/b&gt;" style="shape=partialRectangle;html=1;whiteSpace=wrap;connectable=0;strokeColor=inherit;overflow=hidden;fillColor=none;top=0;left=0;bottom=0;right=0;pointerEvents=1;" vertex="1" parent="1">
          <mxGeometry x="590" y="480" width="275" height="40" as="geometry">
            <mxRectangle width="275" height="40" as="alternateBounds" />
          </mxGeometry>
        </mxCell>
        <mxCell id="Q3NzAb_6QXpIOXe42pcN-10" value="" style="shape=image;html=1;verticalAlign=top;verticalLabelPosition=bottom;labelBackgroundColor=#ffffff;imageAspect=0;aspect=fixed;image=https://cdn4.iconfinder.com/data/icons/web-ui-color/128/Checkmark-128.png" vertex="1" parent="1">
          <mxGeometry x="445" y="610" width="20" height="20" as="geometry" />
        </mxCell>
        <mxCell id="Q3NzAb_6QXpIOXe42pcN-11" value="" style="shape=image;html=1;verticalAlign=top;verticalLabelPosition=bottom;labelBackgroundColor=#ffffff;imageAspect=0;aspect=fixed;image=https://cdn4.iconfinder.com/data/icons/web-ui-color/128/Checkmark-128.png" vertex="1" parent="1">
          <mxGeometry x="445" y="650" width="20" height="20" as="geometry" />
        </mxCell>
        <mxCell id="Q3NzAb_6QXpIOXe42pcN-12" value="" style="shape=image;html=1;verticalAlign=top;verticalLabelPosition=bottom;labelBackgroundColor=#ffffff;imageAspect=0;aspect=fixed;image=https://cdn4.iconfinder.com/data/icons/web-ui-color/128/Checkmark-128.png" vertex="1" parent="1">
          <mxGeometry x="445" y="690" width="20" height="20" as="geometry" />
        </mxCell>
        <mxCell id="Q3NzAb_6QXpIOXe42pcN-14" value="&lt;b&gt;Playground&lt;/b&gt;" style="shape=partialRectangle;html=1;whiteSpace=wrap;connectable=0;strokeColor=inherit;overflow=hidden;fillColor=none;top=0;left=0;bottom=0;right=0;pointerEvents=1;" vertex="1" parent="1">
          <mxGeometry x="1140" y="360" width="275" height="40" as="geometry">
            <mxRectangle width="275" height="40" as="alternateBounds" />
          </mxGeometry>
        </mxCell>
        <mxCell id="Q3NzAb_6QXpIOXe42pcN-15" value="" style="shape=image;html=1;verticalAlign=top;verticalLabelPosition=bottom;labelBackgroundColor=#ffffff;imageAspect=0;aspect=fixed;image=https://cdn4.iconfinder.com/data/icons/web-ui-color/128/Checkmark-128.png" vertex="1" parent="1">
          <mxGeometry x="995" y="290" width="20" height="20" as="geometry" />
        </mxCell>
        <mxCell id="Q3NzAb_6QXpIOXe42pcN-16" value="Tela chamada de &lt;b&gt;Use Case&lt;/b&gt;" style="shape=partialRectangle;html=1;whiteSpace=wrap;connectable=0;strokeColor=inherit;overflow=hidden;fillColor=none;top=0;left=0;bottom=0;right=0;pointerEvents=1;" vertex="1" parent="1">
          <mxGeometry x="1140" y="520" width="275" height="40" as="geometry">
            <mxRectangle width="275" height="40" as="alternateBounds" />
          </mxGeometry>
        </mxCell>
        <mxCell id="Q3NzAb_6QXpIOXe42pcN-17" value="" style="shape=image;html=1;verticalAlign=top;verticalLabelPosition=bottom;labelBackgroundColor=#ffffff;imageAspect=0;aspect=fixed;image=https://cdn4.iconfinder.com/data/icons/web-ui-color/128/Checkmark-128.png" vertex="1" parent="1">
          <mxGeometry x="995" y="810" width="20" height="20" as="geometry" />
        </mxCell>
      </root>
    </mxGraphModel>
  </diagram>
</mxfile>
